<svg width="160" height="56" viewBox="0 0 160 56" fill="none" xmlns="http://www.w3.org/2000/svg">
<path d="M21.1472 14.2334H24.1572C24.3572 14.2334 24.5172 14.0734 24.5172 13.8834C24.5172 13.6834 24.3572 13.5234 24.1572 13.5234H21.1472C20.9572 13.5234 20.7872 13.6834 20.7872 13.8834C20.7872 14.0734 20.9472 14.2334 21.1472 14.2334ZM22.6472 40.6434C21.7872 40.6434 21.0772 41.3534 21.0772 42.2134C21.0772 43.0734 21.7772 43.7834 22.6472 43.7834C23.5172 43.7834 24.2172 43.0834 24.2172 42.2134C24.2172 41.3434 23.5172 40.6434 22.6472 40.6434ZM14.9672 39.3034H30.3472V16.5534H14.9672V39.3034ZM64.2572 31.8334C63.5272 31.8334 62.8672 32.0734 62.2772 32.5534C61.6872 33.0434 61.2972 33.6734 61.1172 34.4634C61.0272 34.8334 60.9872 35.1334 60.9872 35.3634V37.5734C60.9872 38.5434 61.2772 39.3634 61.8772 40.0234C62.4672 40.6834 63.2372 41.0234 64.1872 41.0234C65.2972 41.0234 66.1672 40.5934 66.7872 39.7334C67.4072 38.8734 67.7172 37.7434 67.7172 36.3334C67.7172 35.0434 67.4272 33.9734 66.8472 33.1334C66.1972 32.2734 65.3372 31.8334 64.2572 31.8334ZM118.187 31.6434C117.007 31.6434 116.097 32.1734 115.487 33.2234C114.947 34.0934 114.687 35.1534 114.687 36.4134C114.687 37.6334 114.947 38.6834 115.487 39.5534C116.117 40.6034 117.017 41.1334 118.167 41.1334C119.287 41.1334 120.177 40.6034 120.817 39.5234C121.367 38.6434 121.647 37.5834 121.647 36.3634C121.647 35.1434 121.387 34.0934 120.857 33.2234C120.217 32.1734 119.337 31.6434 118.187 31.6434ZM78.8772 31.8334C78.1472 31.8334 77.4872 32.0734 76.8972 32.5534C76.3072 33.0434 75.9172 33.6734 75.7272 34.4634C75.6372 34.8334 75.5972 35.1334 75.5972 35.3634V37.5734C75.5972 38.5434 75.8872 39.3634 76.4872 40.0234C77.0772 40.6834 77.8472 41.0234 78.7972 41.0234C79.9172 41.0234 80.7772 40.5934 81.4072 39.7334C82.0272 38.8734 82.3372 37.7434 82.3372 36.3334C82.3372 35.0434 82.0472 33.9734 81.4572 33.1334C80.8172 32.2734 79.9572 31.8334 78.8772 31.8334ZM48.3372 27.0734H48.2772C48.0872 27.8634 47.8072 29.0134 47.3972 30.5534L45.8672 35.3734H50.8172L49.2672 30.5534C49.0972 30.0534 48.7872 28.8934 48.3372 27.0734ZM140.607 31.5034C139.647 31.5034 138.857 31.9134 138.257 32.7134C137.767 33.3534 137.467 34.1134 137.377 35.0034H143.537C143.557 34.1334 143.367 33.3734 142.967 32.7334C142.447 31.9234 141.657 31.5034 140.607 31.5034ZM61.3672 18.3734C61.4072 18.2434 61.4072 18.1234 61.4072 17.9934V17.0534C60.1872 17.0434 59.0172 17.2934 59.0172 18.3334C59.0172 19.0134 59.4572 19.3234 59.9972 19.3234C60.7072 19.3134 61.1972 18.8634 61.3672 18.3734ZM45.2372 14.0734C45.0572 13.4934 44.8972 12.8534 44.7572 12.3034H44.7272C44.5872 12.8534 44.4372 13.5134 44.2772 14.0734L43.5472 16.4134H45.9772L45.2372 14.0734ZM152.567 0.263428H6.89725C3.19725 0.263428 0.177246 3.28343 0.177246 6.98343V48.8434C0.177246 52.5434 3.19725 55.5534 6.89725 55.5534H152.567C156.277 55.5534 159.287 52.5434 159.287 48.8434V6.98343C159.297 3.28343 156.277 0.263428 152.567 0.263428ZM143.337 13.3934C145.557 13.3934 146.297 15.2234 146.297 16.7234C146.297 17.0434 146.267 17.3034 146.237 17.4534H141.647C141.687 18.6934 142.647 19.2234 143.757 19.2234C144.557 19.2234 145.127 19.0934 145.657 18.9134L145.907 20.0934C145.317 20.3434 144.497 20.5334 143.517 20.5334C141.297 20.5334 139.987 19.1734 139.987 17.0734C139.987 15.1834 141.137 13.3934 143.337 13.3934ZM115.877 13.5534L115.957 14.5834H115.997C116.307 14.0434 117.047 13.4034 118.187 13.4034C119.387 13.4034 120.617 14.1734 120.617 16.3434V20.4134H118.887V16.5434C118.887 15.5634 118.517 14.8134 117.577 14.8134C116.887 14.8134 116.407 15.3034 116.227 15.8234C116.167 15.9634 116.147 16.1734 116.147 16.3734V20.4134H114.417V15.6034C114.417 14.8134 114.387 14.1534 114.357 13.5634H115.877V13.5534ZM97.6972 13.3934C99.9172 13.3934 100.657 15.2234 100.657 16.7234C100.657 17.0434 100.627 17.3034 100.597 17.4534H96.0072C96.0472 18.6934 97.0072 19.2234 98.1172 19.2234C98.9172 19.2234 99.4772 19.0934 100.017 18.9134L100.267 20.0934C99.6772 20.3434 98.8572 20.5334 97.8772 20.5334C95.6572 20.5334 94.3472 19.1734 94.3472 17.0734C94.3472 15.1834 95.5072 13.3934 97.6972 13.3934ZM90.6072 10.4134H92.3372V20.4034H90.6072V10.4134ZM76.8872 14.6134C76.2072 14.6134 75.5072 14.8234 75.0472 15.1234L74.7072 13.9934C75.2172 13.6834 76.0972 13.3934 77.1872 13.3934C79.3872 13.3934 80.0172 14.7834 80.0172 16.2934V18.7534C80.0172 19.3734 80.0472 19.9734 80.1272 20.4034H78.5672L78.4372 19.6434H78.3972C77.9872 20.1734 77.2672 20.5634 76.3672 20.5634C74.9872 20.5634 74.2172 19.5634 74.2172 18.5234C74.2172 16.8034 75.7472 15.9234 78.2872 15.9334V15.8234C78.2772 15.3634 78.0872 14.6134 76.8872 14.6134ZM66.6472 10.6934C67.2372 10.6934 67.6072 11.1034 67.6172 11.6334C67.6172 12.1434 67.2372 12.5634 66.6272 12.5634C66.0472 12.5634 65.6672 12.1434 65.6672 11.6334C65.6772 11.1034 66.0772 10.6934 66.6472 10.6934ZM67.5072 13.5534V20.4034H65.7772V13.5534H67.5072V13.5534ZM43.7072 10.9134H45.9172L48.9972 20.3934H47.1272L46.2672 17.7034H43.2672L42.4472 20.3934H40.6572L43.7072 10.9134ZM32.1772 42.3634C32.1772 44.0334 30.8172 45.3934 29.1472 45.3934H16.1472C14.4772 45.3934 13.1172 44.0434 13.1172 42.3634V13.4834C13.1172 11.8134 14.4772 10.4534 16.1472 10.4534H29.1472C30.8172 10.4534 32.1772 11.8134 32.1772 13.4834V42.3634ZM53.0672 43.0534L51.3472 37.6334H45.3472L43.7072 43.0534H40.6472L46.5772 24.6034H50.2472L56.2172 43.0534H53.0672ZM53.7372 20.4034H52.0372L49.4872 13.5534H51.3572L52.4672 17.0334C52.6672 17.6334 52.8072 18.1834 52.9272 18.7534H52.9672C53.0972 18.1934 53.2472 17.6534 53.4272 17.0334L54.5272 13.5534H56.3472L53.7372 20.4034ZM57.3072 18.5134C57.3072 16.7934 58.8372 15.9134 61.3772 15.9234V15.8134C61.3772 15.3634 61.1972 14.6134 59.9872 14.6134C59.3072 14.6134 58.6072 14.8234 58.1472 15.1234L57.8072 13.9934C58.3172 13.6834 59.1972 13.3934 60.2872 13.3934C62.4772 13.3934 63.1172 14.7834 63.1172 16.2934V18.7534C63.1172 19.3734 63.1472 19.9734 63.2272 20.4034H61.6672L61.5372 19.6434H61.4972C61.0872 20.1734 60.3672 20.5634 59.4672 20.5634C58.0772 20.5534 57.3072 19.5534 57.3072 18.5134ZM68.8772 41.6134C67.7772 42.7734 66.4072 43.3634 64.7772 43.3634C63.0072 43.3634 61.7472 42.7334 60.9772 41.4734V48.4634H58.0272V34.1234C58.0272 32.7034 57.9872 31.2434 57.9172 29.7534H60.5172L60.6772 31.8634H60.7272C61.7172 30.2834 63.2072 29.4834 65.2172 29.4834C66.7872 29.4834 68.0972 30.1034 69.1472 31.3434C70.1972 32.5834 70.7172 34.2234 70.7172 36.2434C70.7272 38.5134 70.1072 40.2934 68.8772 41.6134ZM71.9572 20.4034H70.2272V10.4134H71.9572V20.4034ZM83.4972 41.6134C82.3972 42.7734 81.0272 43.3634 79.3972 43.3634C77.6372 43.3634 76.3672 42.7334 75.6072 41.4734V48.4634H72.6472V34.1234C72.6472 32.7034 72.6072 31.2434 72.5372 29.7534H75.1272L75.2972 31.8634H75.3472C76.3372 30.2834 77.8272 29.4834 79.8372 29.4834C81.4072 29.4834 82.7172 30.1034 83.7672 31.3434C84.8172 32.5834 85.3472 34.2234 85.3472 36.2434C85.3372 38.5134 84.7272 40.2934 83.4972 41.6134ZM85.5272 20.5534C84.6372 20.5534 83.8572 20.2134 83.3572 19.3734H83.3272L83.2472 20.4034H81.7672C81.7972 19.9434 81.8272 19.1834 81.8272 18.4734V10.4134H83.5572V14.4934H83.5872C84.0072 13.8334 84.7572 13.3934 85.7872 13.3934C87.4572 13.3934 88.6572 14.7834 88.6472 16.8634C88.6372 19.3334 87.0672 20.5534 85.5272 20.5534ZM100.407 41.7134C99.1972 42.7934 97.5272 43.3234 95.3772 43.3234C93.3872 43.3234 91.7972 42.9434 90.5972 42.1734L91.2872 39.7134C92.5772 40.4734 94.0072 40.8634 95.5472 40.8634C96.6672 40.8634 97.5272 40.6134 98.1472 40.1134C98.7672 39.6134 99.0772 38.9434 99.0772 38.0934C99.0772 37.3534 98.8172 36.7234 98.3172 36.2134C97.7972 35.7034 96.9572 35.2334 95.7772 34.7934C92.5472 33.5934 90.9372 31.8334 90.9372 29.5134C90.9372 28.0034 91.4972 26.7534 92.6472 25.7834C93.7872 24.8234 95.2972 24.3334 97.1772 24.3334C98.8572 24.3334 100.247 24.6234 101.367 25.2034L100.617 27.6134C99.5772 27.0534 98.3972 26.7634 97.0772 26.7634C96.0372 26.7634 95.2172 27.0234 94.6272 27.5234C94.1372 27.9834 93.8872 28.5434 93.8872 29.1934C93.8872 29.9134 94.1672 30.5234 94.7372 31.0034C95.2272 31.4434 96.1272 31.9134 97.4172 32.4234C99.0072 33.0534 100.177 33.8134 100.927 34.6734C101.677 35.5334 102.047 36.5934 102.047 37.8734C102.037 39.4534 101.487 40.7334 100.407 41.7134ZM110.827 31.9634H107.567V38.4334C107.567 40.0734 108.147 40.8934 109.297 40.8934C109.827 40.8934 110.257 40.8534 110.607 40.7634L110.687 43.0034C110.107 43.2234 109.337 43.3334 108.387 43.3334C107.227 43.3334 106.307 42.9834 105.647 42.2634C104.987 41.5534 104.657 40.3534 104.657 38.6834V31.9634H102.717V29.7534H104.657V27.3234L107.557 26.4434V29.7534H110.817V31.9634H110.827ZM109.157 20.5534C107.227 20.5534 105.727 19.2334 105.727 17.0234C105.727 14.7734 107.207 13.3934 109.277 13.3934C111.317 13.3934 112.687 14.8334 112.687 16.9134C112.677 19.4334 110.897 20.5534 109.157 20.5534ZM122.957 41.3334C121.727 42.6834 120.107 43.3534 118.087 43.3534C116.127 43.3534 114.567 42.7034 113.417 41.4134C112.257 40.1234 111.687 38.4834 111.687 36.5134C111.687 34.4534 112.287 32.7634 113.477 31.4534C114.677 30.1334 116.277 29.4834 118.307 29.4834C120.267 29.4834 121.837 30.1234 123.017 31.4234C124.147 32.6734 124.707 34.3034 124.707 36.2934C124.697 38.3434 124.117 40.0134 122.957 41.3334ZM126.007 13.5534H126.977V12.2634L128.677 11.7834V13.5434H130.327V14.8334H128.677V17.8634C128.677 18.7034 128.897 19.1334 129.567 19.1334C129.877 19.1334 130.047 19.1234 130.247 19.0634L130.277 20.3734C130.027 20.4734 129.557 20.5534 129.027 20.5534C128.377 20.5534 127.857 20.3434 127.537 19.9934C127.157 19.6034 126.987 18.9634 126.987 18.0634V14.8434H126.017V13.5534H126.007ZM133.597 32.3534C133.307 32.3034 132.997 32.2734 132.667 32.2734C131.627 32.2734 130.827 32.6634 130.257 33.4434C129.767 34.1434 129.517 35.0034 129.517 36.0734V43.0534H126.557V33.9334C126.557 32.4134 126.527 31.0134 126.477 29.7534H129.047L129.157 32.3034H129.237C129.547 31.4334 130.037 30.7234 130.717 30.2034C131.377 29.7234 132.087 29.4934 132.857 29.4934C133.127 29.4934 133.377 29.5034 133.587 29.5434V32.3534H133.597ZM134.047 16.2934V20.4034H132.317V10.4134H134.047V14.4834H134.077C134.287 14.1634 134.587 13.8934 134.937 13.7134C135.287 13.5134 135.697 13.4034 136.137 13.4034C137.307 13.4034 138.527 14.1734 138.527 16.3734V20.4134H136.797V16.5634C136.797 15.5734 136.427 14.8134 135.477 14.8134C134.797 14.8134 134.327 15.2634 134.127 15.7834C134.057 15.9234 134.047 16.1134 134.047 16.2934ZM146.247 37.1234H137.377C137.417 38.4334 137.837 39.4334 138.667 40.1234C139.417 40.7434 140.377 41.0534 141.567 41.0534C142.887 41.0534 144.077 40.8434 145.157 40.4234L145.627 42.4834C144.377 43.0334 142.877 43.3034 141.167 43.3034C139.107 43.3034 137.487 42.7034 136.317 41.4834C135.137 40.2734 134.547 38.6434 134.547 36.6034C134.547 34.5934 135.097 32.9234 136.187 31.5934C137.347 30.1734 138.897 29.4634 140.847 29.4634C142.767 29.4634 144.217 30.1734 145.197 31.5934C145.977 32.7234 146.377 34.1234 146.377 35.7834C146.347 36.3034 146.317 36.7534 146.247 37.1234ZM85.1472 14.7434C84.4472 14.7434 83.7972 15.2534 83.6172 16.0134C83.5872 16.1434 83.5572 16.2934 83.5572 16.4634V17.5734C83.5572 17.7134 83.5672 17.8534 83.5972 17.9834C83.7772 18.6834 84.3872 19.1934 85.1272 19.1934C86.2072 19.1934 86.8772 18.3334 86.8772 16.9434C86.8772 15.7334 86.2972 14.7434 85.1472 14.7434ZM97.5972 14.5734C96.5272 14.5734 96.0772 15.5434 96.0072 16.2434H99.0172C99.0372 15.6134 98.7572 14.5734 97.5972 14.5734ZM109.227 14.6434C108.007 14.6434 107.507 15.8434 107.507 16.9834C107.507 18.3034 108.167 19.3034 109.207 19.3034C110.187 19.3034 110.877 18.3434 110.877 16.9534C110.887 15.8834 110.407 14.6434 109.227 14.6434ZM75.9272 18.3334C75.9272 19.0134 76.3672 19.3234 76.9072 19.3234C77.6072 19.3234 78.1072 18.8734 78.2772 18.3834C78.3172 18.2534 78.3172 18.1334 78.3172 18.0034V17.0634C77.0972 17.0434 75.9272 17.2934 75.9272 18.3334ZM143.237 14.5734C142.167 14.5734 141.717 15.5434 141.647 16.2434H144.657C144.667 15.6134 144.387 14.5734 143.237 14.5734Z" fill="#D7C2FF"/>
</svg>
