<svg width="11" height="11" viewBox="0 0 11 11" fill="none" xmlns="http://www.w3.org/2000/svg">
<path d="M3.23347 0.268066C3.3263 0.268066 3.41532 0.304941 3.48096 0.370579C3.5466 0.436217 3.58347 0.525241 3.58347 0.618066V1.27257H7.34197V0.622566C7.34197 0.529741 7.37885 0.440717 7.44449 0.375079C7.51012 0.309441 7.59915 0.272566 7.69197 0.272566C7.7848 0.272566 7.87382 0.309441 7.93946 0.375079C8.0051 0.440717 8.04197 0.529741 8.04197 0.622566V1.27257H9.39697C9.6621 1.27257 9.91638 1.37785 10.1039 1.56528C10.2914 1.75271 10.3968 2.00694 10.397 2.27207V9.26857C10.3968 9.5337 10.2914 9.78792 10.1039 9.97535C9.91638 10.1628 9.6621 10.2681 9.39697 10.2681H1.39697C1.13184 10.2681 0.877565 10.1628 0.690043 9.97535C0.502521 9.78792 0.397105 9.5337 0.396973 9.26857V2.27207C0.397105 2.00694 0.502521 1.75271 0.690043 1.56528C0.877565 1.37785 1.13184 1.27257 1.39697 1.27257H2.88347V0.617566C2.88361 0.524827 2.92054 0.435932 2.98616 0.370402C3.05179 0.304873 3.14073 0.268066 3.23347 0.268066V0.268066ZM1.09697 4.13907V9.26857C1.09697 9.30796 1.10473 9.34697 1.11981 9.38337C1.13489 9.41977 1.15698 9.45284 1.18484 9.4807C1.2127 9.50856 1.24577 9.53065 1.28217 9.54573C1.31857 9.56081 1.35758 9.56857 1.39697 9.56857H9.39697C9.43637 9.56857 9.47538 9.56081 9.51178 9.54573C9.54818 9.53065 9.58125 9.50856 9.60911 9.4807C9.63696 9.45284 9.65906 9.41977 9.67414 9.38337C9.68921 9.34697 9.69697 9.30796 9.69697 9.26857V4.14607L1.09697 4.13907ZM3.73047 7.57757V8.41057H2.89697V7.57757H3.73047ZM5.81347 7.57757V8.41057H4.98047V7.57757H5.81347ZM7.89697 7.57757V8.41057H7.06347V7.57757H7.89697ZM3.73047 5.58907V6.42207H2.89697V5.58907H3.73047ZM5.81347 5.58907V6.42207H4.98047V5.58907H5.81347ZM7.89697 5.58907V6.42207H7.06347V5.58907H7.89697ZM2.88347 1.97207H1.39697C1.35758 1.97207 1.31857 1.97983 1.28217 1.9949C1.24577 2.00998 1.2127 2.03208 1.18484 2.05993C1.15698 2.08779 1.13489 2.12086 1.11981 2.15726C1.10473 2.19366 1.09697 2.23267 1.09697 2.27207V3.43957L9.69697 3.44657V2.27207C9.69697 2.23267 9.68921 2.19366 9.67414 2.15726C9.65906 2.12086 9.63696 2.08779 9.60911 2.05993C9.58125 2.03208 9.54818 2.00998 9.51178 1.9949C9.47538 1.97983 9.43637 1.97207 9.39697 1.97207H8.04197V2.43657C8.04197 2.52939 8.0051 2.61842 7.93946 2.68405C7.87382 2.74969 7.7848 2.78657 7.69197 2.78657C7.59915 2.78657 7.51012 2.74969 7.44449 2.68405C7.37885 2.61842 7.34197 2.52939 7.34197 2.43657V1.97207H3.58347V2.43207C3.58347 2.52489 3.5466 2.61392 3.48096 2.67955C3.41532 2.74519 3.3263 2.78207 3.23347 2.78207C3.14065 2.78207 3.05162 2.74519 2.98599 2.67955C2.92035 2.61392 2.88347 2.52489 2.88347 2.43207V1.97207V1.97207Z" fill="#616161"/>
</svg>
