<svg width="342" height="328" viewBox="0 0 342 328" fill="none" xmlns="http://www.w3.org/2000/svg">
<path opacity="0.6" d="M201.499 0.678223L111.054 15.6213M201.499 0.678223L297.252 49.4397M201.499 0.678223L220.833 37.9703L218.67 146.045M111.054 15.6213L37.6498 63.4652M111.054 15.6213L129.93 85.4208L104.435 190.415L107.974 294.951M111.054 15.6213L36.7978 110.064M37.6498 63.4652L0.750977 163.61M37.6498 63.4652L36.7978 110.064M0.750977 163.61L45.1213 278.697M0.750977 163.61L36.7978 110.064M0.750977 163.61L35.0282 218.532M45.1213 278.697L140.023 327.459M45.1213 278.697L35.0282 218.532M45.1213 278.697L107.515 294.492L194.027 249.729L292.861 223.382M140.023 327.459L224.831 314.744M140.023 327.459L107.974 294.951M224.831 314.744L303.413 264.672L341.229 162.758L297.252 49.4397M224.831 314.744L107.974 294.951M224.831 314.744L292.861 223.382M224.831 314.744L194.945 249.729L218.67 146.045M297.252 49.4397L297.252 114.848L292.861 223.382M297.252 49.4397L221.161 38.1667M107.974 294.951L35.0282 218.532M36.7978 110.064L35.0282 218.532M292.861 223.382L340.902 162.627L296.99 114.586L221.161 38.1667M218.67 146.045L297.252 115.307M218.67 146.045L103.976 190.415M110.726 15.6211L221.161 38.1667M221.161 38.1667L129.471 85.29L36.9289 110.457M36.6012 110.457L103.976 190.415M103.976 190.415L194.486 249.729M103.976 190.415L34.5694 218.991M303.413 265.065L292.861 222.923L218.211 145.586L129.93 85.0276" stroke="#0071BC" stroke-width="0.8601" stroke-miterlimit="10"/>
</svg>
