<svg width="11" height="11" viewBox="0 0 11 11" fill="none" xmlns="http://www.w3.org/2000/svg">
<path d="M5.59815 10.2681C4.60924 10.2681 3.64254 9.97482 2.82029 9.42541C1.99805 8.87601 1.35719 8.09511 0.978749 7.18148C0.600311 6.26785 0.501294 5.26252 0.69422 4.29262C0.887146 3.32271 1.36335 2.4318 2.06261 1.73253C2.76187 1.03327 3.65279 0.557068 4.62269 0.364142C5.5926 0.171216 6.59793 0.270233 7.51156 0.648671C8.42519 1.02711 9.20609 1.66797 9.75549 2.49022C10.3049 3.31246 10.5981 4.27916 10.5981 5.26807C10.5981 6.59415 10.0714 7.86592 9.13368 8.8036C8.196 9.74128 6.92423 10.2681 5.59815 10.2681ZM5.59815 0.982354C4.75051 0.982354 3.92191 1.23371 3.21713 1.70463C2.51235 2.17555 1.96304 2.84488 1.63866 3.628C1.31429 4.41111 1.22942 5.27282 1.39478 6.10417C1.56015 6.93552 1.96832 7.69916 2.56769 8.29852C3.16706 8.89789 3.9307 9.30607 4.76204 9.47143C5.59339 9.6368 6.45511 9.55193 7.23822 9.22755C8.02133 8.90317 8.69067 8.35386 9.16159 7.64908C9.63251 6.9443 9.88386 6.1157 9.88386 5.26807C9.88386 4.13143 9.43233 3.04134 8.6286 2.23761C7.82488 1.43388 6.73479 0.982354 5.59815 0.982354V0.982354Z" fill="#616161"/>
<path d="M7.23764 7.41085L5.24121 5.41442V2.05371H5.9555V5.118L7.74121 6.90728L7.23764 7.41085Z" fill="#616161"/>
</svg>
