<svg width="509" height="475" viewBox="0 0 509 475" fill="none" xmlns="http://www.w3.org/2000/svg">
<g clip-path="url(#clip0_507_1357)">
<g opacity="0.7">
<g opacity="0.7">
<g opacity="0.7">
<g opacity="0.7">
<path opacity="0.7" d="M108.231 431.759L159.319 402.277L211.353 396.985L252.601 420.798L289.309 419.286L320.908 400.954" stroke="white" stroke-width="0.5349" stroke-miterlimit="10"/>
</g>
<g opacity="0.7">
<path opacity="0.7" d="M209.839 407.757L249.952 430.814L292.904 429.113L347.965 397.363" stroke="white" stroke-width="0.5349" stroke-miterlimit="10"/>
</g>
<path opacity="0.7" d="M323.367 402.088C322.232 402.844 320.34 402.844 319.204 402.088C318.069 401.332 318.069 400.387 319.204 399.631C320.34 398.875 322.232 398.875 323.367 399.631C324.502 400.387 324.502 401.332 323.367 402.088Z" fill="white"/>
<path opacity="0.7" d="M350.236 398.497C349.101 399.253 347.208 399.253 346.073 398.497C344.938 397.741 344.938 396.796 346.073 396.04C347.208 395.284 349.101 395.284 350.236 396.04C351.371 396.796 351.371 397.741 350.236 398.497Z" fill="white"/>
<path opacity="0.7" d="M295.174 430.247C294.039 431.003 292.147 431.003 291.012 430.247C289.876 429.491 289.876 428.546 291.012 427.79C292.147 427.035 294.039 427.035 295.174 427.79C296.31 428.546 296.31 429.68 295.174 430.247Z" fill="white"/>
<path opacity="0.7" d="M291.39 420.42C290.255 421.176 288.363 421.176 287.227 420.42C286.092 419.664 286.092 418.719 287.227 417.963C288.363 417.207 290.255 417.207 291.39 417.963C292.525 418.719 292.525 419.853 291.39 420.42Z" fill="white"/>
<path opacity="0.7" d="M213.434 398.308C212.298 399.064 210.406 399.064 209.271 398.308C208.136 397.552 208.136 396.607 209.271 395.851C210.406 395.095 212.298 395.095 213.434 395.851C214.569 396.607 214.569 397.741 213.434 398.308Z" fill="white"/>
<path opacity="0.7" d="M211.92 408.891C210.785 409.647 208.893 409.647 207.757 408.891C206.622 408.135 206.622 407.19 207.757 406.435C208.893 405.679 210.785 405.679 211.92 406.435C213.055 407.19 213.055 408.324 211.92 408.891Z" fill="white"/>
<path opacity="0.7" d="M110.312 432.893C109.177 433.649 107.285 433.649 106.149 432.893C105.014 432.137 105.014 431.192 106.149 430.436C107.285 429.68 109.177 429.68 110.312 430.436C111.637 431.192 111.637 432.326 110.312 432.893Z" fill="white"/>
</g>
<g opacity="0.7">
<g opacity="0.7">
<path opacity="0.7" d="M331.314 418.957L291.201 442.203L248.249 440.313L193.188 408.752" stroke="white" stroke-width="0.5349" stroke-miterlimit="10"/>
</g>
<path opacity="0.7" d="M190.917 409.697C192.053 410.453 193.945 410.453 195.08 409.697C196.215 408.941 196.215 407.996 195.08 407.24C193.945 406.484 192.053 406.484 190.917 407.24C189.782 407.996 189.782 409.13 190.917 409.697Z" fill="white"/>
<path opacity="0.7" d="M245.979 441.447C247.114 442.203 249.006 442.203 250.142 441.447C251.277 440.691 251.277 439.746 250.142 438.99C249.006 438.235 247.114 438.235 245.979 438.99C244.844 439.746 244.844 440.88 245.979 441.447Z" fill="white"/>
<path opacity="0.7" d="M329.233 420.28C330.368 421.036 332.26 421.036 333.396 420.28C334.531 419.524 334.531 418.579 333.396 417.824C332.26 417.068 330.368 417.068 329.233 417.824C328.098 418.39 328.098 419.524 329.233 420.28Z" fill="white"/>
</g>
<g opacity="0.7">
<g opacity="0.7">
<path opacity="0.7" d="M249.952 401.521L199.054 372.038L146.83 366.746L105.582 390.559L69.0634 389.047L37.2754 370.715" stroke="white" stroke-width="0.5349" stroke-miterlimit="10"/>
</g>
<g opacity="0.7">
<path opacity="0.7" d="M148.533 377.519L108.42 400.576L65.4681 398.875L10.4067 367.124" stroke="white" stroke-width="0.5349" stroke-miterlimit="10"/>
</g>
<path opacity="0.7" d="M34.8153 371.849C35.9506 372.605 37.8428 372.605 38.978 371.849C40.1133 371.093 40.1133 370.148 38.978 369.392C37.8428 368.636 35.9506 368.636 34.8153 369.392C33.68 369.959 33.68 371.093 34.8153 371.849Z" fill="white"/>
<path opacity="0.7" d="M7.94717 368.258C9.08245 369.014 10.9746 369.014 12.1099 368.258C13.2452 367.502 13.2452 366.557 12.1099 365.802C10.9746 365.046 9.08245 365.046 7.94717 365.802C6.81188 366.557 6.81188 367.502 7.94717 368.258Z" fill="white"/>
<path opacity="0.7" d="M63.1977 400.009C64.3329 400.765 66.2251 400.765 67.3604 400.009C68.4956 399.253 68.4956 398.308 67.3604 397.552C66.2251 396.796 64.3329 396.796 63.1977 397.552C62.0624 398.308 62.0624 399.253 63.1977 400.009Z" fill="white"/>
<path opacity="0.7" d="M66.9818 390.181C68.1171 390.937 70.0093 390.937 71.1445 390.181C72.2798 389.425 72.2798 388.48 71.1445 387.724C70.0093 386.968 68.1171 386.968 66.9818 387.724C65.8465 388.48 65.8465 389.614 66.9818 390.181Z" fill="white"/>
<path opacity="0.7" d="M144.938 368.069C146.074 368.825 147.966 368.825 149.101 368.069C150.236 367.313 150.236 366.368 149.101 365.613C147.966 364.857 146.074 364.857 144.938 365.613C143.803 366.368 143.803 367.502 144.938 368.069Z" fill="white"/>
<path opacity="0.7" d="M146.452 378.653C147.587 379.409 149.479 379.409 150.615 378.653C151.75 377.897 151.75 376.952 150.615 376.196C149.479 375.44 147.587 375.44 146.452 376.196C145.127 376.952 145.127 378.086 146.452 378.653Z" fill="white"/>
<path opacity="0.7" d="M247.871 402.655C249.006 403.411 250.898 403.411 252.034 402.655C253.169 401.899 253.169 400.954 252.034 400.198C250.898 399.442 249.006 399.442 247.871 400.198C246.736 400.954 246.736 401.899 247.871 402.655Z" fill="white"/>
</g>
</g>
</g>
<g opacity="0.7">
<g opacity="0.7">
<g opacity="0.7">
<g opacity="0.7">
<path opacity="0.7" d="M509.365 279.244L469.441 302.49L426.489 300.789L371.428 269.038" stroke="white" stroke-width="0.5349" stroke-miterlimit="10"/>
</g>
<path opacity="0.7" d="M395.836 273.574C396.971 274.33 398.863 274.33 399.999 273.574C401.134 272.818 401.134 271.873 399.999 271.117C398.863 270.361 396.971 270.361 395.836 271.117C394.701 271.873 394.701 273.007 395.836 273.574Z" fill="white"/>
<path opacity="0.7" d="M368.968 269.983C370.103 270.739 371.995 270.739 373.13 269.983C374.266 269.227 374.266 268.282 373.13 267.526C371.995 266.77 370.103 266.77 368.968 267.526C367.832 268.282 367.832 269.416 368.968 269.983Z" fill="white"/>
<path opacity="0.7" d="M424.218 301.734C425.353 302.49 427.246 302.49 428.381 301.734C429.516 300.978 429.516 300.033 428.381 299.277C427.246 298.521 425.353 298.521 424.218 299.277C423.083 300.033 423.083 301.167 424.218 301.734Z" fill="white"/>
<path opacity="0.7" d="M428.002 292.095C429.138 292.851 431.03 292.851 432.165 292.095C433.3 291.339 433.3 290.394 432.165 289.638C431.03 288.882 429.138 288.882 428.002 289.638C426.867 290.394 426.867 291.339 428.002 292.095Z" fill="white"/>
<path opacity="0.7" d="M507.283 280.567C508.418 281.323 510.311 281.323 511.446 280.567C512.581 279.811 512.581 278.866 511.446 278.11C510.311 277.354 508.418 277.354 507.283 278.11C506.148 278.677 506.148 279.811 507.283 280.567Z" fill="white"/>
</g>
<g opacity="0.7">
<g opacity="0.7">
<path opacity="0.7" d="M362.156 347.658L413.055 318.365L465.278 312.884L506.527 336.697" stroke="white" stroke-width="0.5349" stroke-miterlimit="10"/>
</g>
<g opacity="0.7">
<path opacity="0.7" d="M463.575 323.657L503.688 346.902" stroke="white" stroke-width="0.5349" stroke-miterlimit="10"/>
</g>
<path opacity="0.7" d="M467.17 314.396C466.035 315.152 464.143 315.152 463.007 314.396C461.872 313.64 461.872 312.695 463.007 311.939C464.143 311.183 466.035 311.183 467.17 311.939C468.305 312.506 468.305 313.64 467.17 314.396Z" fill="white"/>
<path opacity="0.7" d="M465.656 324.979C464.521 325.735 462.629 325.735 461.494 324.979C460.358 324.224 460.358 323.279 461.494 322.523C462.629 321.767 464.521 321.767 465.656 322.523C466.792 323.279 466.792 324.224 465.656 324.979Z" fill="white"/>
<path opacity="0.7" d="M364.237 348.981C363.102 349.737 361.21 349.737 360.075 348.981C358.939 348.225 358.939 347.28 360.075 346.524C361.21 345.768 363.102 345.768 364.237 346.524C365.373 347.28 365.373 348.225 364.237 348.981Z" fill="white"/>
</g>
<g opacity="0.7">
<g opacity="0.7">
<path opacity="0.7" d="M368.022 376.952L418.921 347.658L471.144 342.178L512.392 365.991" stroke="white" stroke-width="0.5349" stroke-miterlimit="10"/>
</g>
<g opacity="0.7">
<path opacity="0.7" d="M469.63 352.95L509.743 376.196" stroke="white" stroke-width="0.5349" stroke-miterlimit="10"/>
</g>
<path opacity="0.7" d="M473.036 343.501C471.9 344.257 470.008 344.257 468.873 343.501C467.738 342.745 467.738 341.8 468.873 341.044C470.008 340.288 471.9 340.288 473.036 341.044C474.171 341.8 474.171 342.934 473.036 343.501Z" fill="white"/>
<path opacity="0.7" d="M471.711 354.273C470.576 355.029 468.684 355.029 467.548 354.273C466.413 353.517 466.413 352.572 467.548 351.816C468.684 351.06 470.576 351.06 471.711 351.816C472.846 352.383 472.846 353.517 471.711 354.273Z" fill="white"/>
<path opacity="0.7" d="M370.103 378.086C368.968 378.842 367.076 378.842 365.94 378.086C364.805 377.33 364.805 376.385 365.94 375.629C367.076 374.873 368.968 374.873 370.103 375.629C371.238 376.385 371.238 377.519 370.103 378.086Z" fill="white"/>
</g>
</g>
</g>
<g opacity="0.7">
<g opacity="0.7">
<g opacity="0.7">
<g opacity="0.7">
<path opacity="0.7" d="M101.229 208.561L152.128 238.044L204.162 243.335L245.6 219.523L282.118 221.035L313.906 239.367" stroke="white" stroke-width="0.5349" stroke-miterlimit="10"/>
</g>
<g opacity="0.7">
<path opacity="0.7" d="M202.648 232.563L242.762 209.506L285.713 211.207L340.775 242.957" stroke="white" stroke-width="0.5349" stroke-miterlimit="10"/>
</g>
<path opacity="0.7" d="M316.177 238.233C315.042 237.477 313.15 237.477 312.015 238.233C310.879 238.989 310.879 239.934 312.015 240.69C313.15 241.446 315.042 241.446 316.177 240.69C317.313 239.934 317.313 238.989 316.177 238.233Z" fill="white"/>
<path opacity="0.7" d="M343.045 241.824C341.91 241.068 340.018 241.068 338.883 241.824C337.747 242.579 337.747 243.524 338.883 244.28C340.018 245.036 341.91 245.036 343.045 244.28C344.37 243.524 344.37 242.579 343.045 241.824Z" fill="white"/>
<path opacity="0.7" d="M287.984 210.073C286.849 209.317 284.957 209.317 283.822 210.073C282.686 210.829 282.686 211.774 283.822 212.53C284.957 213.286 286.849 213.286 287.984 212.53C289.12 211.774 289.12 210.64 287.984 210.073Z" fill="white"/>
<path opacity="0.7" d="M284.2 219.712C283.064 218.956 281.172 218.956 280.037 219.712C278.902 220.468 278.902 221.413 280.037 222.168C281.172 222.924 283.064 222.924 284.2 222.168C285.335 221.602 285.335 220.468 284.2 219.712Z" fill="white"/>
<path opacity="0.7" d="M206.244 242.013C205.108 241.257 203.216 241.257 202.081 242.013C200.946 242.768 200.946 243.713 202.081 244.469C203.216 245.225 205.108 245.225 206.244 244.469C207.379 243.713 207.379 242.58 206.244 242.013Z" fill="white"/>
<path opacity="0.7" d="M204.73 231.429C203.595 230.673 201.703 230.673 200.567 231.429C199.432 232.185 199.432 233.13 200.567 233.886C201.703 234.642 203.595 234.642 204.73 233.886C205.865 233.13 205.865 231.996 204.73 231.429Z" fill="white"/>
<path opacity="0.7" d="M103.311 207.427C102.176 206.671 100.284 206.671 99.1483 207.427C98.0131 208.183 98.0131 209.128 99.1483 209.884C100.284 210.64 102.176 210.64 103.311 209.884C104.446 209.128 104.446 207.994 103.311 207.427Z" fill="white"/>
</g>
<g opacity="0.7">
<g opacity="0.7">
<path opacity="0.7" d="M425.732 167.361L374.833 196.655L322.61 202.135L281.362 178.323L244.654 179.835L213.055 197.978" stroke="white" stroke-width="0.5349" stroke-miterlimit="10"/>
</g>
<g opacity="0.7">
<path opacity="0.7" d="M324.124 191.363L284.01 168.117L241.059 169.818L186.187 201.568" stroke="white" stroke-width="0.5349" stroke-miterlimit="10"/>
</g>
<path opacity="0.7" d="M210.595 197.033C211.73 196.277 213.623 196.277 214.758 197.033C215.893 197.789 215.893 198.734 214.758 199.49C213.623 200.246 211.73 200.246 210.595 199.49C209.46 198.734 209.46 197.6 210.595 197.033Z" fill="white"/>
<path opacity="0.7" d="M183.727 200.624C184.862 199.868 186.754 199.868 187.89 200.624C189.025 201.379 189.025 202.324 187.89 203.08C186.754 203.836 184.862 203.836 183.727 203.08C182.592 202.324 182.592 201.19 183.727 200.624Z" fill="white"/>
<path opacity="0.7" d="M238.788 168.873C239.924 168.117 241.816 168.117 242.951 168.873C244.086 169.629 244.086 170.574 242.951 171.33C241.816 172.086 239.924 172.086 238.788 171.33C237.653 170.574 237.653 169.44 238.788 168.873Z" fill="white"/>
<path opacity="0.7" d="M242.573 178.512C243.708 177.756 245.6 177.756 246.735 178.512C247.871 179.268 247.871 180.213 246.735 180.968C245.6 181.724 243.708 181.724 242.573 180.968C241.437 180.213 241.437 179.268 242.573 178.512Z" fill="white"/>
<path opacity="0.7" d="M320.718 200.813C321.853 200.057 323.746 200.057 324.881 200.813C326.016 201.568 326.016 202.513 324.881 203.269C323.746 204.025 321.853 204.025 320.718 203.269C319.583 202.513 319.583 201.379 320.718 200.813Z" fill="white"/>
<path opacity="0.7" d="M322.042 190.04C323.178 189.284 325.07 189.284 326.205 190.04C327.34 190.796 327.34 191.741 326.205 192.497C325.07 193.253 323.178 193.253 322.042 192.497C320.907 191.93 320.907 190.796 322.042 190.04Z" fill="white"/>
<path opacity="0.7" d="M423.651 166.227C424.786 165.471 426.678 165.471 427.813 166.227C428.949 166.983 428.949 167.928 427.813 168.684C426.678 169.44 424.786 169.44 423.651 168.684C422.515 167.928 422.515 166.794 423.651 166.227Z" fill="white"/>
</g>
<g opacity="0.7">
<g opacity="0.7">
<path opacity="0.7" d="M242.762 238.8L191.863 268.282L139.829 273.574L98.3913 249.761L61.8729 251.273L30.085 269.605" stroke="white" stroke-width="0.5349" stroke-miterlimit="10"/>
</g>
<g opacity="0.7">
<path opacity="0.7" d="M141.343 262.802L101.23 239.745L58.2781 241.446L3.2168 273.196" stroke="white" stroke-width="0.5349" stroke-miterlimit="10"/>
</g>
<path opacity="0.7" d="M27.8144 268.471C28.9496 267.715 30.8418 267.715 31.9771 268.471C33.1124 269.227 33.1124 270.172 31.9771 270.928C30.8418 271.684 28.9496 271.684 27.8144 270.928C26.6791 270.172 26.6791 269.227 27.8144 268.471Z" fill="white"/>
<path opacity="0.7" d="M0.946011 272.062C2.0813 271.495 3.78422 271.495 5.10872 272.062C6.24401 272.818 6.24401 273.763 5.10872 274.519C3.97344 275.275 2.0813 275.275 0.946011 274.519C-0.378488 273.763 -0.378488 272.818 0.946011 272.062Z" fill="white"/>
<path opacity="0.7" d="M58.0885 243.146C59.7605 243.146 61.1159 242.385 61.1159 241.446C61.1159 240.506 59.7605 239.745 58.0885 239.745C56.4165 239.745 55.061 240.506 55.061 241.446C55.061 242.385 56.4165 243.146 58.0885 243.146Z" fill="white"/>
<path opacity="0.7" d="M59.7919 250.139C60.9272 249.383 62.8193 249.383 63.9546 250.139C65.0899 250.895 65.0899 251.84 63.9546 252.596C62.8193 253.352 60.9272 253.352 59.7919 252.596C58.6566 251.84 58.6566 250.706 59.7919 250.139Z" fill="white"/>
<path opacity="0.7" d="M137.748 272.251C138.883 271.495 140.775 271.495 141.911 272.251C143.046 273.007 143.046 273.952 141.911 274.708C140.775 275.464 138.883 275.464 137.748 274.708C136.613 273.952 136.613 272.818 137.748 272.251Z" fill="white"/>
<path opacity="0.7" d="M139.262 261.668C140.397 260.912 142.289 260.912 143.424 261.668C144.56 262.424 144.56 263.368 143.424 264.124C142.289 264.88 140.397 264.88 139.262 264.124C138.126 263.368 138.126 262.235 139.262 261.668Z" fill="white"/>
<path opacity="0.7" d="M240.68 237.666C241.815 236.91 243.708 236.91 244.843 237.666C245.978 238.422 245.978 239.367 244.843 240.123C243.708 240.879 241.815 240.879 240.68 240.123C239.545 239.367 239.545 238.422 240.68 237.666Z" fill="white"/>
</g>
</g>
</g>
</g>
<path d="M295.322 120.984C295.322 128.81 293.063 134.897 289.067 138.376C287.85 139.419 280.378 144.637 278.988 145.332C273.775 147.419 273.254 142.202 265.956 138.028C249.622 128.636 236.415 105.679 236.415 86.8953C236.415 79.7645 231.724 78.721 235.025 75.0687C235.894 74.1991 243.54 68.8076 244.582 68.1119C249.969 64.6335 257.615 64.9814 266.13 69.8511C282.116 79.2428 295.322 102.026 295.322 120.984Z" fill="url(#paint0_linear_507_1357)"/>
<path d="M288.372 125.679C288.372 144.463 275.166 152.115 258.831 142.724C242.497 133.332 229.291 110.375 229.291 91.5911C229.291 72.8078 242.497 65.1553 258.831 74.547C275.166 83.9386 288.372 106.896 288.372 125.679Z" fill="url(#paint1_linear_507_1357)"/>
<path d="M277.279 140.565C287.501 134.657 287.541 115.573 277.369 97.9383C267.196 80.3037 250.662 70.7968 240.44 76.7041C230.218 82.6114 230.177 101.696 240.35 119.33C250.523 136.965 267.056 146.472 277.279 140.565Z" stroke="#4D0063" stroke-width="0.6873" stroke-miterlimit="10"/>
<path d="M266.998 99.9393V93.8521L262.133 91.0693V96.6348L257.267 93.8521V88.2866L252.402 85.5039V91.0693L247.536 88.2866V115.94L252.402 118.723V124.288L257.267 127.071V121.505L262.133 124.288V129.854L266.998 132.636V126.549C269.257 126.897 270.995 125.853 271.516 123.418C272.037 121.158 271.516 117.853 269.952 114.896C271.516 113.853 272.211 111.244 271.516 108.287C270.995 105.331 269.257 102.2 266.998 99.9393ZM252.575 96.6348L264.565 103.592C265.955 104.287 266.998 106.2 266.998 107.766C266.998 109.331 265.955 109.853 264.565 109.157L252.575 102.2V96.6348ZM264.565 120.114L252.575 113.157V107.592L264.565 114.549C265.955 115.244 266.998 117.157 266.998 118.723C266.998 120.288 265.955 120.984 264.565 120.114Z" fill="white"/>
<path d="M261.264 396.299L138.585 325.687C133.024 322.557 133.024 305.861 135.283 300.295L250.317 240.641C256.573 236.988 266.303 236.64 271.864 239.771L397.324 303.773C401.842 311.078 399.409 328.296 392.98 331.949L282.985 395.603C276.382 399.082 266.651 399.429 261.264 396.299Z" fill="url(#paint2_linear_507_1357)"/>
<path d="M261.264 378.037L138.585 307.426C133.024 304.295 133.719 298.73 140.149 295.078L250.143 231.423C256.399 227.77 266.13 227.423 271.69 230.553L394.37 301.165C399.93 304.295 399.235 309.861 392.806 313.513L282.811 377.168C276.382 380.82 266.651 381.168 261.264 378.037Z" fill="url(#paint3_linear_507_1357)"/>
<path d="M261.091 369.863L152.834 307.426C147.273 304.295 147.968 298.73 154.398 295.077L250.491 239.597C256.746 235.945 266.477 235.597 272.038 238.727L380.295 301.165C385.855 304.295 385.16 309.861 378.731 313.513L282.638 368.993C276.208 372.646 266.477 372.994 261.091 369.863Z" fill="url(#paint4_linear_507_1357)"/>
<path opacity="0.1" d="M265.435 344.993C311.98 344.993 349.712 326.616 349.712 303.947C349.712 281.279 311.98 262.902 265.435 262.902C218.89 262.902 181.158 281.279 181.158 303.947C181.158 326.616 218.89 344.993 265.435 344.993Z" fill="url(#paint5_radial_507_1357)"/>
<path opacity="0.1" d="M317.391 325.861C289.762 339.427 244.756 339.427 217.127 325.861C189.498 312.296 189.498 290.556 217.127 276.99C244.756 263.424 289.762 263.424 317.391 276.99C345.02 290.556 345.02 312.296 317.391 325.861Z" fill="url(#paint6_radial_507_1357)"/>
<path d="M206.354 274.033L329.902 275.077V292.295C329.902 301.513 323.82 310.556 311.83 317.513C287.676 331.427 248.579 331.427 224.425 317.513C212.435 310.556 206.354 301.339 206.354 292.295V274.033V274.033Z" fill="url(#paint7_linear_507_1357)"/>
<path d="M212.435 271.946H210.35V304.71H212.435V271.946Z" fill="#4D0063"/>
<path d="M219.56 271.946H217.475V309.687H219.56V271.946Z" fill="#4D0063"/>
<path d="M226.51 271.946H224.425V309.687H226.51V271.946Z" fill="#4D0063"/>
<path d="M233.635 271.946H231.55V309.687H233.635V271.946Z" fill="#4D0063"/>
<path d="M240.759 271.946H238.674V309.687H240.759V271.946Z" fill="#4D0063"/>
<path d="M247.884 271.946H245.798V309.687H247.884V271.946Z" fill="#4D0063"/>
<path d="M255.008 271.946H252.923V309.687H255.008V271.946Z" fill="#4D0063"/>
<path d="M262.133 271.946H260.048V309.687H262.133V271.946Z" fill="#4D0063"/>
<path d="M269.257 271.946H267.172V309.687H269.257V271.946Z" fill="#4D0063"/>
<path d="M276.382 271.946H274.296V309.687H276.382V271.946Z" fill="#4D0063"/>
<path d="M283.332 271.946H281.247V309.687H283.332V271.946Z" fill="#4D0063"/>
<path d="M290.456 271.946H288.371V309.687H290.456V271.946Z" fill="#4D0063"/>
<path d="M297.581 271.946H295.496V309.687H297.581V271.946Z" fill="#4D0063"/>
<path d="M304.705 271.946H302.62V309.687H304.705V271.946Z" fill="#4D0063"/>
<path d="M311.83 271.946H309.745V309.687H311.83V271.946Z" fill="#4D0063"/>
<path d="M318.954 271.946H316.869V309.687H318.954V271.946Z" fill="#4D0063"/>
<path d="M326.079 271.946H323.994V303.937H326.079V271.946Z" fill="#4D0063"/>
<path d="M268.215 311.426C302.38 311.426 330.076 295.463 330.076 275.772C330.076 256.081 302.38 240.119 268.215 240.119C234.05 240.119 206.354 256.081 206.354 275.772C206.354 295.463 234.05 311.426 268.215 311.426Z" fill="url(#paint8_linear_507_1357)"/>
<path d="M268.214 305.165C298.061 305.165 322.256 291.227 322.256 274.033C322.256 256.84 298.061 242.901 268.214 242.901C238.368 242.901 214.173 256.84 214.173 274.033C214.173 291.227 238.368 305.165 268.214 305.165Z" stroke="#4D0063" stroke-width="1.1865" stroke-miterlimit="10"/>
<path d="M261.611 254.728L253.792 250.206L246.667 254.38L253.792 258.554L246.667 262.728L239.543 258.554L232.418 262.728L239.543 266.902L232.418 271.077L268.214 291.773L275.339 287.599L282.463 291.773L289.588 287.599L282.463 283.425L289.588 279.251L296.712 283.425L303.837 279.251L296.017 274.729C298.276 272.12 297.929 268.99 295.496 266.555C292.889 264.12 288.371 262.381 283.332 262.381C283.158 259.424 280.378 256.815 276.034 255.25C271.516 253.511 266.129 253.337 261.611 254.728ZM246.667 270.903L264.565 260.641C266.477 259.424 269.778 259.424 271.69 260.641C273.601 261.859 273.601 263.598 271.69 264.815L253.792 275.077L246.667 270.903ZM285.939 272.99L268.041 283.251L260.916 279.077L278.814 268.816C280.726 267.598 284.027 267.598 285.939 268.816C288.024 269.859 288.024 271.772 285.939 272.99Z" fill="white"/>
<path d="M206.354 253.858L329.902 254.902V272.12C329.902 281.338 323.82 290.382 311.83 297.338C287.676 311.252 248.579 311.252 224.425 297.338C212.435 290.382 206.354 281.164 206.354 272.12V253.858V253.858Z" fill="url(#paint9_linear_507_1357)"/>
<path d="M212.435 251.597H210.35V304.709H212.435V251.597Z" fill="#4D0063"/>
<path d="M219.56 251.597H217.475V312.662H219.56V251.597Z" fill="#4D0063"/>
<path d="M226.51 251.597H224.425V317.507H226.51V251.597Z" fill="#4D0063"/>
<path d="M233.635 251.597H231.55V321.118H233.635V251.597Z" fill="#4D0063"/>
<path d="M240.759 251.597H238.674V323.629H240.759V251.597Z" fill="#4D0063"/>
<path d="M247.884 251.597H245.798V325.522H247.884V251.597Z" fill="#4D0063"/>
<path d="M255.008 251.597H252.923V326.8H255.008V251.597Z" fill="#4D0063"/>
<path d="M262.133 251.597H260.048V327.948H262.133V251.597Z" fill="#4D0063"/>
<path d="M269.257 251.597H267.172V327.948H269.257V251.597Z" fill="#4D0063"/>
<path d="M276.382 251.597H274.296V327.948H276.382V251.597Z" fill="#4D0063"/>
<path d="M283.332 251.597H281.247V326.732H283.332V251.597Z" fill="#4D0063"/>
<path d="M290.456 251.597H288.371V325.54H290.456V251.597Z" fill="#4D0063"/>
<path d="M297.581 251.597H295.496V323.603H297.581V251.597Z" fill="#4D0063"/>
<path d="M304.705 251.597H302.62V321.219H304.705V251.597Z" fill="#4D0063"/>
<path d="M311.83 251.597H309.745V317.593H311.83V251.597Z" fill="#4D0063"/>
<path d="M318.954 251.597H316.869V312.824H318.954V251.597Z" fill="#4D0063"/>
<path d="M326.079 251.597H323.994V304.777H326.079V251.597Z" fill="#4D0063"/>
<path d="M268.215 291.077C302.38 291.077 330.076 275.115 330.076 255.424C330.076 235.733 302.38 219.77 268.215 219.77C234.05 219.77 206.354 235.733 206.354 255.424C206.354 275.115 234.05 291.077 268.215 291.077Z" fill="url(#paint10_linear_507_1357)"/>
<path d="M268.214 284.99C298.061 284.99 322.256 271.052 322.256 253.858C322.256 236.665 298.061 222.727 268.214 222.727C238.368 222.727 214.173 236.665 214.173 253.858C214.173 271.052 238.368 284.99 268.214 284.99Z" stroke="#4D0063" stroke-width="1.1865" stroke-miterlimit="10"/>
<path d="M261.611 234.379L253.792 229.857L246.667 234.032L253.792 238.206L246.667 242.38L239.543 238.206L232.418 242.38L239.543 246.554L232.418 250.728L268.214 271.424L275.339 267.25L282.463 271.424L289.588 267.25L282.463 263.076L289.588 258.902L296.712 263.076L303.837 258.902L296.017 254.38C298.276 251.771 297.929 248.641 295.496 246.206C292.889 243.771 288.371 242.032 283.332 242.032C283.158 239.075 280.378 236.466 276.034 234.901C271.516 233.336 266.129 233.162 261.611 234.379ZM246.667 250.554L264.565 240.293C266.477 239.075 269.778 239.075 271.69 240.293C273.601 241.51 273.601 243.249 271.69 244.467L253.792 254.728L246.667 250.554ZM285.939 252.641L268.041 262.902L260.916 258.728L278.814 248.467C280.726 247.25 284.027 247.25 285.939 248.467C288.024 249.684 288.024 251.424 285.939 252.641Z" fill="white"/>
<path d="M206.354 233.51L329.902 234.553V251.771C329.902 260.989 323.82 270.033 311.83 276.99C287.676 290.903 248.579 290.903 224.425 276.99C212.435 270.033 206.354 260.815 206.354 251.771V233.51V233.51Z" fill="url(#paint11_linear_507_1357)"/>
<path d="M212.435 231.249H210.35V289.338H212.435V231.249Z" fill="#4D0063"/>
<path d="M219.56 231.249H217.475V289.338H219.56V231.249Z" fill="#4D0063"/>
<path d="M226.51 231.249H224.425V289.338H226.51V231.249Z" fill="#4D0063"/>
<path d="M233.635 231.249H231.55V289.338H233.635V231.249Z" fill="#4D0063"/>
<path d="M240.759 231.249H238.674V289.338H240.759V231.249Z" fill="#4D0063"/>
<path d="M247.884 231.249H245.798V289.338H247.884V231.249Z" fill="#4D0063"/>
<path d="M255.008 231.249H252.923V289.338H255.008V231.249Z" fill="#4D0063"/>
<path d="M262.133 231.249H260.048V289.338H262.133V231.249Z" fill="#4D0063"/>
<path d="M269.257 231.249H267.172V289.338H269.257V231.249Z" fill="#4D0063"/>
<path d="M276.382 231.249H274.296V289.338H276.382V231.249Z" fill="#4D0063"/>
<path d="M283.332 231.249H281.247V289.338H283.332V231.249Z" fill="#4D0063"/>
<path d="M290.456 231.249H288.371V289.338H290.456V231.249Z" fill="#4D0063"/>
<path d="M297.581 231.249H295.496V289.338H297.581V231.249Z" fill="#4D0063"/>
<path d="M304.705 231.249H302.62V289.338H304.705V231.249Z" fill="#4D0063"/>
<path d="M311.83 231.249H309.745V289.338H311.83V231.249Z" fill="#4D0063"/>
<path d="M318.954 231.249H316.869V289.338H318.954V231.249Z" fill="#4D0063"/>
<path d="M326.079 231.249H323.994V289.338H326.079V231.249Z" fill="#4D0063"/>
<path d="M268.215 270.729C302.38 270.729 330.076 254.766 330.076 235.075C330.076 215.384 302.38 199.421 268.215 199.421C234.05 199.421 206.354 215.384 206.354 235.075C206.354 254.766 234.05 270.729 268.215 270.729Z" fill="url(#paint12_linear_507_1357)"/>
<path d="M306.269 255.598C285.244 267.772 251.011 267.772 229.986 255.598C208.96 243.423 208.96 223.596 229.986 211.422C251.011 199.248 285.244 199.248 306.269 211.422C327.469 223.596 327.469 243.423 306.269 255.598Z" stroke="#4D0063" stroke-width="1.1865" stroke-miterlimit="10"/>
<path d="M261.611 214.205L253.792 209.683L246.667 213.857L253.792 218.031L246.667 222.205L239.543 218.031L232.418 222.205L239.543 226.379L232.418 230.553L268.214 251.25L275.339 247.076L282.463 251.25L289.588 247.076L282.463 242.901L289.588 238.727L296.712 242.901L303.837 238.727L296.017 234.205C298.276 231.597 297.929 228.466 295.496 226.031C292.889 223.596 288.371 221.857 283.332 221.857C283.158 218.901 280.378 216.292 276.034 214.726C271.516 212.987 266.129 212.813 261.611 214.205ZM246.667 230.205L264.565 219.944C266.477 218.727 269.778 218.727 271.69 219.944C273.601 221.162 273.601 222.901 271.69 224.118L253.792 234.379L246.667 230.205ZM285.939 232.292L268.041 242.554L260.916 238.38L278.814 228.118C280.726 226.901 284.027 226.901 285.939 228.118C288.024 229.336 288.024 231.249 285.939 232.292Z" fill="white"/>
<path d="M206.354 213.161L329.902 214.205V231.423C329.902 240.641 323.82 249.684 311.83 256.641C287.676 270.555 248.579 270.555 224.425 256.641C212.435 249.684 206.354 240.467 206.354 231.423V213.161V213.161Z" fill="url(#paint13_linear_507_1357)"/>
<path d="M212.435 211.074H210.35V269.163H212.435V211.074Z" fill="#4D0063"/>
<path d="M219.56 211.074H217.475V269.163H219.56V211.074Z" fill="#4D0063"/>
<path d="M226.51 211.074H224.425V269.163H226.51V211.074Z" fill="#4D0063"/>
<path d="M233.635 211.074H231.55V269.163H233.635V211.074Z" fill="#4D0063"/>
<path d="M240.759 211.074H238.674V269.163H240.759V211.074Z" fill="#4D0063"/>
<path d="M247.884 211.074H245.798V269.163H247.884V211.074Z" fill="#4D0063"/>
<path d="M255.008 211.074H252.923V269.163H255.008V211.074Z" fill="#4D0063"/>
<path d="M262.133 211.074H260.048V269.163H262.133V211.074Z" fill="#4D0063"/>
<path d="M269.257 211.074H267.172V269.163H269.257V211.074Z" fill="#4D0063"/>
<path d="M276.382 211.074H274.296V269.163H276.382V211.074Z" fill="#4D0063"/>
<path d="M283.332 211.074H281.247V269.163H283.332V211.074Z" fill="#4D0063"/>
<path d="M290.456 211.074H288.371V269.163H290.456V211.074Z" fill="#4D0063"/>
<path d="M297.581 211.074H295.496V269.163H297.581V211.074Z" fill="#4D0063"/>
<path d="M304.705 211.074H302.62V269.163H304.705V211.074Z" fill="#4D0063"/>
<path d="M311.83 211.074H309.745V269.163H311.83V211.074Z" fill="#4D0063"/>
<path d="M318.954 211.074H316.869V269.163H318.954V211.074Z" fill="#4D0063"/>
<path d="M326.079 211.074H323.994V269.163H326.079V211.074Z" fill="#4D0063"/>
<path d="M311.83 240.119C287.676 254.032 248.579 254.032 224.425 240.119C200.272 226.205 200.272 203.596 224.425 189.682C248.579 175.768 287.676 175.768 311.83 189.682C335.984 203.596 335.984 226.205 311.83 240.119Z" fill="url(#paint14_linear_507_1357)"/>
<path d="M268.214 244.293C298.061 244.293 322.256 230.355 322.256 213.161C322.256 195.968 298.061 182.03 268.214 182.03C238.368 182.03 214.173 195.968 214.173 213.161C214.173 230.355 238.368 244.293 268.214 244.293Z" stroke="#4D0063" stroke-width="1.1865" stroke-miterlimit="10"/>
<path d="M261.611 193.856L253.792 189.334L246.667 193.508L253.792 197.682L246.667 201.856L239.543 197.682L232.418 201.856L239.543 206.03L232.418 210.205L268.214 230.901L275.339 226.727L282.463 230.901L289.588 226.727L282.463 222.553L289.588 218.379L296.712 222.553L303.837 218.379L296.017 213.857C298.276 211.248 297.929 208.118 295.496 205.683C292.889 203.248 288.371 201.509 283.332 201.509C283.158 198.552 280.378 195.943 276.034 194.378C271.516 192.639 266.129 192.639 261.611 193.856ZM246.667 210.031L264.565 199.769C266.477 198.552 269.778 198.552 271.69 199.769C273.601 200.987 273.601 202.726 271.69 203.943L253.792 214.205L246.667 210.031ZM285.939 212.118L268.041 222.379L260.916 218.205L278.814 207.944C280.726 206.726 284.027 206.726 285.939 207.944C288.024 208.987 288.024 210.9 285.939 212.118Z" fill="white"/>
<path d="M206.354 192.986L329.902 194.03V211.248C329.902 220.466 323.82 229.51 311.83 236.466C287.676 250.38 248.579 250.38 224.425 236.466C212.435 229.51 206.354 220.292 206.354 211.248V192.986V192.986Z" fill="url(#paint15_linear_507_1357)"/>
<path d="M212.436 190.725H210.351V248.815H212.436V190.725Z" fill="#4D0063"/>
<path d="M219.56 190.725H217.475V248.815H219.56V190.725Z" fill="#4D0063"/>
<path d="M226.511 190.725H224.426V248.815H226.511V190.725Z" fill="#4D0063"/>
<path d="M233.635 190.725H231.55V248.815H233.635V190.725Z" fill="#4D0063"/>
<path d="M240.76 190.725H238.674V248.815H240.76V190.725Z" fill="#4D0063"/>
<path d="M247.884 190.725H245.799V248.815H247.884V190.725Z" fill="#4D0063"/>
<path d="M255.009 190.725H252.923V248.815H255.009V190.725Z" fill="#4D0063"/>
<path d="M262.133 190.725H260.048V248.815H262.133V190.725Z" fill="#4D0063"/>
<path d="M269.258 190.725H267.172V248.815H269.258V190.725Z" fill="#4D0063"/>
<path d="M276.382 190.725H274.297V248.815H276.382V190.725Z" fill="#4D0063"/>
<path d="M283.333 190.725H281.248V248.815H283.333V190.725Z" fill="#4D0063"/>
<path d="M290.457 190.725H288.372V248.815H290.457V190.725Z" fill="#4D0063"/>
<path d="M297.582 190.725H295.497V248.815H297.582V190.725Z" fill="#4D0063"/>
<path d="M304.706 190.725H302.621V248.815H304.706V190.725Z" fill="#4D0063"/>
<path d="M311.83 190.725H309.745V248.815H311.83V190.725Z" fill="#4D0063"/>
<path d="M318.955 190.725H316.87V248.815H318.955V190.725Z" fill="#4D0063"/>
<path d="M326.079 190.725H323.994V248.815H326.079V190.725Z" fill="#4D0063"/>
<path d="M311.83 219.77C287.676 233.684 248.579 233.684 224.425 219.77C200.272 205.857 200.272 183.247 224.425 169.333C248.579 155.42 287.676 155.42 311.83 169.333C335.984 183.247 335.984 205.857 311.83 219.77Z" fill="url(#paint16_linear_507_1357)"/>
<path d="M268.214 224.118C298.061 224.118 322.256 210.18 322.256 192.986C322.256 175.793 298.061 161.855 268.214 161.855C238.368 161.855 214.173 175.793 214.173 192.986C214.173 210.18 238.368 224.118 268.214 224.118Z" stroke="#4D0063" stroke-width="1.1865" stroke-miterlimit="10"/>
<path d="M261.611 173.507L253.792 168.986L246.667 173.16L253.792 177.334L246.667 181.508L239.543 177.334L232.418 181.508L239.543 185.682L232.418 189.856L268.214 210.552L275.339 206.378L282.463 210.552L289.588 206.378L282.463 202.204L289.588 198.03L296.712 202.204L303.837 198.03L296.017 193.508C298.276 190.899 297.929 187.769 295.496 185.334C292.889 182.899 288.371 181.16 283.332 181.16C283.158 178.203 280.378 175.594 276.034 174.029C271.516 172.464 266.129 172.29 261.611 173.507ZM246.667 189.682L264.565 179.421C266.477 178.203 269.778 178.203 271.69 179.421C273.601 180.638 273.601 182.377 271.69 183.595L253.792 193.856L246.667 189.682ZM285.939 191.769L268.041 202.03L260.916 197.856L278.814 187.595C280.726 186.377 284.027 186.377 285.939 187.595C288.024 188.812 288.024 190.552 285.939 191.769Z" fill="white"/>
<g opacity="0.5">
<path opacity="0.5" d="M333.899 115.244H333.551C333.377 115.244 333.377 115.07 333.377 115.07V114.722C333.377 114.549 333.551 114.549 333.551 114.549H333.899C334.072 114.549 334.072 114.722 334.072 114.722V115.07C334.072 115.07 334.072 115.244 333.899 115.244Z" fill="white"/>
<path opacity="0.5" d="M330.25 166.725H329.902C329.729 166.725 329.729 166.551 329.729 166.551V166.203C329.729 166.029 329.902 166.029 329.902 166.029H330.25C330.424 166.029 330.424 166.203 330.424 166.203V166.551C330.424 166.551 330.424 166.725 330.25 166.725Z" fill="white"/>
<path opacity="0.5" d="M306.617 155.594H306.27C306.096 155.594 306.096 155.42 306.096 155.42V155.072C306.096 154.898 306.27 154.898 306.27 154.898H306.617C306.791 154.898 306.791 155.072 306.791 155.072V155.246C306.965 155.42 306.791 155.594 306.617 155.594Z" fill="white"/>
<path opacity="0.5" d="M290.805 159.246H290.457C290.283 159.246 290.283 159.072 290.283 159.072V158.724C290.283 158.55 290.457 158.55 290.457 158.55H290.805C290.978 158.55 290.978 158.724 290.978 158.724V159.072C291.152 159.072 290.978 159.246 290.805 159.246Z" fill="white"/>
<path opacity="0.5" d="M282.638 142.898L282.29 142.724C282.116 142.724 282.116 142.55 282.116 142.376L282.29 142.028C282.29 141.854 282.464 141.854 282.638 141.854L282.985 142.028C283.159 142.028 283.159 142.202 283.159 142.376L282.985 142.724C282.985 142.898 282.811 142.898 282.638 142.898Z" fill="white"/>
<path opacity="0.5" d="M270.126 174.029L269.779 173.855C269.605 173.855 269.605 173.681 269.605 173.507L269.779 173.16C269.779 172.986 269.952 172.986 270.126 172.986L270.474 173.16C270.648 173.16 270.648 173.334 270.648 173.507L270.474 173.855C270.474 174.029 270.3 174.029 270.126 174.029Z" fill="white"/>
<path opacity="0.5" d="M251.186 129.158L250.838 128.984C250.665 128.984 250.665 128.81 250.665 128.636L250.838 128.288C250.838 128.114 251.012 128.114 251.186 128.114L251.533 128.288C251.707 128.288 251.707 128.462 251.707 128.636L251.533 128.984C251.36 129.158 251.186 129.158 251.186 129.158Z" fill="white"/>
<path opacity="0.5" d="M219.213 143.245L218.865 143.071C218.691 143.071 218.691 142.898 218.691 142.724L218.865 142.376C218.865 142.202 219.039 142.202 219.213 142.202L219.56 142.376C219.734 142.376 219.734 142.55 219.734 142.724L219.56 143.071C219.386 143.245 219.386 143.419 219.213 143.245Z" fill="white"/>
<path opacity="0.5" d="M234.852 190.03L234.504 189.856C234.331 189.856 234.331 189.682 234.331 189.508L234.504 189.16C234.504 188.986 234.678 188.986 234.852 188.986L235.199 189.16C235.373 189.16 235.373 189.334 235.373 189.508L235.199 189.856C235.026 190.03 235.026 190.204 234.852 190.03Z" fill="white"/>
<path opacity="0.5" d="M240.76 158.202L240.412 158.029C240.238 158.029 240.238 157.855 240.238 157.681L240.412 157.333C240.412 157.159 240.586 157.159 240.76 157.159L241.107 157.333C241.281 157.333 241.281 157.507 241.281 157.681L241.107 158.029C241.107 158.202 240.933 158.202 240.76 158.202Z" fill="white"/>
<path opacity="0.5" d="M219.213 119.592L218.865 119.418C218.691 119.418 218.691 119.244 218.691 119.07L218.865 118.723C218.865 118.549 219.039 118.549 219.213 118.549L219.56 118.723C219.734 118.723 219.734 118.897 219.734 119.07L219.56 119.418C219.386 119.592 219.386 119.592 219.213 119.592Z" fill="white"/>
<path opacity="0.5" d="M193.843 150.724L193.495 150.55C193.321 150.55 193.321 150.376 193.321 150.202L193.495 149.854C193.495 149.68 193.669 149.68 193.843 149.68L194.19 149.854C194.364 149.854 194.364 150.028 194.364 150.202L194.19 150.55C194.19 150.724 194.016 150.724 193.843 150.724Z" fill="white"/>
<path opacity="0.5" d="M193.843 127.071L193.495 126.897C193.321 126.897 193.321 126.723 193.321 126.549L193.495 126.201C193.495 126.027 193.669 126.027 193.843 126.027L194.19 126.201C194.364 126.201 194.364 126.375 194.364 126.549L194.19 126.897C194.19 127.071 194.016 127.071 193.843 127.071Z" fill="white"/>
<path opacity="0.5" d="M349.712 142.898L349.364 142.724C349.19 142.724 349.19 142.55 349.19 142.376L349.364 142.028C349.364 141.854 349.538 141.854 349.712 141.854L350.059 142.028C350.233 142.028 350.233 142.202 350.233 142.376L350.059 142.724C349.885 142.898 349.712 142.898 349.712 142.898Z" fill="white"/>
<path opacity="0.5" d="M351.797 127.071L351.449 126.897C351.275 126.897 351.275 126.723 351.275 126.549L351.449 126.201C351.449 126.027 351.623 126.027 351.797 126.027L352.144 126.201C352.318 126.201 352.318 126.375 352.318 126.549L352.144 126.897C351.97 127.071 351.797 127.071 351.797 127.071Z" fill="white"/>
<path opacity="0.5" d="M320.693 149.506L320.345 149.333C320.171 149.333 320.171 149.159 320.171 148.985L320.345 148.637C320.345 148.463 320.519 148.463 320.693 148.463L321.04 148.637C321.214 148.637 321.214 148.811 321.214 148.985L321.04 149.333C320.866 149.333 320.693 149.506 320.693 149.506Z" fill="white"/>
<path opacity="0.5" d="M307.66 121.853L307.312 121.679C307.139 121.679 307.139 121.505 307.139 121.331L307.312 120.984C307.312 120.81 307.486 120.81 307.66 120.81L308.007 120.984C308.181 120.984 308.181 121.158 308.181 121.331L308.007 121.679C307.834 121.853 307.66 121.853 307.66 121.853Z" fill="white"/>
<path opacity="0.5" d="M273.08 202.204H272.733C272.559 202.204 272.559 202.03 272.559 202.03V201.682C272.559 201.509 272.733 201.509 272.733 201.509H273.08C273.254 201.509 273.254 201.682 273.254 201.682V202.03C273.254 202.204 273.254 202.204 273.08 202.204Z" fill="white"/>
<path opacity="0.5" d="M312.525 176.638L312.178 176.464C312.004 176.464 312.004 176.29 312.004 176.116L312.178 175.768C312.178 175.594 312.351 175.594 312.525 175.594L312.873 175.768C313.047 175.768 313.047 175.942 313.047 176.116L312.873 176.464C312.873 176.638 312.699 176.638 312.525 176.638Z" fill="white"/>
<path opacity="0.5" d="M219.908 163.942L219.56 163.768C219.386 163.768 219.386 163.594 219.386 163.42L219.56 163.072C219.56 162.898 219.734 162.898 219.908 162.898L220.255 163.072C220.429 163.072 220.429 163.246 220.429 163.42L220.255 163.768C220.255 163.942 220.081 163.942 219.908 163.942Z" fill="white"/>
<path opacity="0.5" d="M288.372 192.465L288.024 192.291C287.851 192.291 287.851 192.117 287.851 191.943L288.024 191.595C288.024 191.421 288.198 191.421 288.372 191.421L288.719 191.595C288.893 191.595 288.893 191.769 288.893 191.943L288.719 192.291C288.546 192.465 288.372 192.465 288.372 192.465Z" fill="white"/>
<path opacity="0.5" d="M296.365 132.636L296.018 132.462C295.844 132.462 295.844 132.288 295.844 132.114L296.018 131.767C296.018 131.593 296.191 131.593 296.365 131.593L296.713 131.767C296.886 131.767 296.886 131.941 296.886 132.114L296.713 132.462C296.539 132.636 296.539 132.81 296.365 132.636Z" fill="white"/>
</g>
<g opacity="0.5">
<path opacity="0.5" d="M288.72 29.5017H288.372C288.198 29.5017 288.198 29.3278 288.198 29.3278V28.9799C288.198 28.806 288.372 28.806 288.372 28.806H288.72C288.893 28.806 288.893 28.9799 288.893 28.9799V29.3278C288.893 29.5017 288.72 29.5017 288.72 29.5017Z" fill="white"/>
<path opacity="0.5" d="M284.897 81.1559H284.549C284.375 81.1559 284.375 80.982 284.375 80.982V80.4602C284.375 80.2863 284.549 80.2863 284.549 80.2863H284.897C285.071 80.2863 285.071 80.4602 285.071 80.4602V80.8081C285.244 80.982 285.071 81.1559 284.897 81.1559Z" fill="white"/>
<path opacity="0.5" d="M263.002 55.2418H262.655C262.481 55.2418 262.481 55.0679 262.481 55.0679V54.7201C262.481 54.5461 262.655 54.5461 262.655 54.5461H263.002C263.176 54.5461 263.176 54.7201 263.176 54.7201V55.0679L263.002 55.2418Z" fill="white"/>
<path opacity="0.5" d="M245.625 73.5034H245.278C245.104 73.5034 245.104 73.3295 245.104 73.3295V72.9817C245.104 72.8078 245.278 72.8078 245.278 72.8078H245.625C245.799 72.8078 245.799 72.9817 245.799 72.9817V73.3295C245.799 73.5034 245.625 73.5034 245.625 73.5034Z" fill="white"/>
<path opacity="0.5" d="M231.029 41.3282L230.681 41.1543C230.507 41.1543 230.507 40.9804 230.507 40.8065L230.681 40.4586C230.681 40.2847 230.855 40.2847 231.029 40.2847L231.376 40.4586C231.55 40.4586 231.55 40.6326 231.55 40.8065L231.376 41.1543C231.202 41.3282 231.202 41.5022 231.029 41.3282Z" fill="white"/>
<path opacity="0.5" d="M224.947 88.4606L224.6 88.2867C224.426 88.2867 224.426 88.1127 224.426 87.9388L224.6 87.591C224.6 87.4171 224.773 87.4171 224.947 87.4171L225.295 87.591C225.468 87.591 225.468 87.7649 225.468 87.9388L225.295 88.2867C225.121 88.4606 225.121 88.4606 224.947 88.4606Z" fill="white"/>
<path opacity="0.5" d="M205.833 43.5892L205.485 43.4153C205.312 43.4153 205.312 43.2413 205.312 43.0674L205.485 42.7196C205.485 42.5457 205.659 42.5457 205.833 42.5457L206.18 42.7196C206.354 42.7196 206.354 42.8935 206.354 43.0674L206.18 43.4153C206.007 43.5892 206.007 43.5892 205.833 43.5892Z" fill="white"/>
<path opacity="0.5" d="M189.673 104.461L189.325 104.287C189.151 104.287 189.151 104.113 189.151 103.939L189.325 103.592C189.325 103.418 189.499 103.418 189.673 103.418L190.02 103.592C190.194 103.592 190.194 103.766 190.194 103.939L190.02 104.287C189.846 104.461 189.673 104.461 189.673 104.461Z" fill="white"/>
<path opacity="0.5" d="M195.58 72.4599L195.233 72.286C195.059 72.286 195.059 72.1121 195.059 71.9381L195.233 71.5903C195.233 71.4164 195.407 71.4164 195.58 71.4164L195.928 71.5903C196.102 71.5903 196.102 71.7642 196.102 71.9381L195.928 72.286C195.754 72.4599 195.754 72.6338 195.58 72.4599Z" fill="white"/>
<path opacity="0.5" d="M304.359 57.155L304.011 56.981C303.837 56.981 303.837 56.8071 303.837 56.6332L304.011 56.2854C304.011 56.1114 304.185 56.1114 304.359 56.1114L304.706 56.2854C304.88 56.2854 304.88 56.4593 304.88 56.6332L304.706 56.981C304.706 57.155 304.532 57.3289 304.359 57.155Z" fill="white"/>
<path opacity="0.5" d="M318.608 88.9823L318.26 88.8084C318.086 88.8084 318.086 88.6345 318.086 88.4605L318.26 88.1127C318.26 87.9388 318.434 87.9388 318.608 87.9388L318.955 88.1127C319.129 88.1127 319.129 88.2866 319.129 88.4605L318.955 88.8084C318.782 88.9823 318.608 89.1562 318.608 88.9823Z" fill="white"/>
<path opacity="0.5" d="M351.797 86.0257L351.449 85.8518C351.275 85.8518 351.275 85.6779 351.275 85.5039L351.449 85.1561C351.449 84.9822 351.623 84.9822 351.797 84.9822L352.144 85.1561C352.318 85.1561 352.318 85.33 352.318 85.5039L352.144 85.8518C352.144 86.0257 351.97 86.1996 351.797 86.0257Z" fill="white"/>
<path opacity="0.5" d="M373.866 76.2862L373.518 76.1122C373.344 76.1122 373.344 75.9383 373.344 75.7644L373.518 75.4166C373.518 75.2426 373.692 75.2426 373.866 75.2426L374.213 75.4166C374.387 75.4166 374.387 75.5905 374.387 75.7644L374.213 76.1122C374.039 76.2862 373.866 76.2862 373.866 76.2862Z" fill="white"/>
<path opacity="0.5" d="M227.901 116.636H227.554C227.38 116.636 227.38 116.462 227.38 116.462V116.114C227.38 115.94 227.554 115.94 227.554 115.94H227.901C228.075 115.94 228.075 116.114 228.075 116.114V116.462L227.901 116.636Z" fill="white"/>
<path opacity="0.5" d="M267.346 90.8954L266.998 90.7215C266.825 90.7215 266.825 90.5476 266.825 90.3737L266.998 90.0258C266.998 89.8519 267.172 89.8519 267.346 89.8519L267.694 90.0258C267.867 90.0258 267.867 90.1998 267.867 90.3737L267.694 90.7215C267.52 90.8954 267.346 91.0694 267.346 90.8954Z" fill="white"/>
<path opacity="0.5" d="M174.728 78.1993L174.381 78.0254C174.207 78.0254 174.207 77.8514 174.207 77.6775L174.381 77.3297C174.381 77.1558 174.555 77.1558 174.728 77.1558L175.076 77.3297C175.25 77.3297 175.25 77.5036 175.25 77.6775L175.076 78.0254C174.902 78.1993 174.728 78.1993 174.728 78.1993Z" fill="white"/>
<path opacity="0.5" d="M243.019 106.896L242.671 106.722C242.498 106.722 242.498 106.548 242.498 106.374L242.671 106.026C242.671 105.853 242.845 105.853 243.019 105.853L243.366 106.026C243.54 106.026 243.54 106.2 243.54 106.374L243.366 106.722C243.193 106.896 243.193 106.896 243.019 106.896Z" fill="white"/>
<path opacity="0.5" d="M282.117 49.5025L281.769 49.3286C281.595 49.3286 281.595 49.1546 281.595 48.9807L281.769 48.6329C281.769 48.459 281.943 48.459 282.117 48.459L282.464 48.6329C282.638 48.6329 282.638 48.8068 282.638 48.9807L282.464 49.3286C282.29 49.5025 282.29 49.5025 282.117 49.5025Z" fill="white"/>
</g>
<path opacity="0.8" d="M311.83 220.118C287.851 234.032 248.753 234.032 224.773 220.118C212.262 212.813 206.18 203.248 206.701 193.682C191.584 164.985 169.689 137.854 129.375 65.5031C195.233 -10.1521 298.972 -27.1963 398.888 53.3287C409.14 61.6769 338.417 175.421 329.902 193.682C330.424 203.248 324.515 212.987 311.83 220.118Z" fill="url(#paint17_linear_507_1357)"/>
<defs>
<linearGradient id="paint0_linear_507_1357" x1="264.595" y1="98.0524" x2="264.595" y2="176.17" gradientUnits="userSpaceOnUse">
<stop offset="0.0873016" stop-color="#EB5757"/>
<stop offset="0.9709" stop-color="#3C53D7"/>
</linearGradient>
<linearGradient id="paint1_linear_507_1357" x1="258.841" y1="101.251" x2="258.841" y2="175.659" gradientUnits="userSpaceOnUse">
<stop offset="0.0873016" stop-color="#EB5757"/>
<stop offset="0.9709" stop-color="#3C53D7"/>
</linearGradient>
<linearGradient id="paint2_linear_507_1357" x1="413.262" y1="364.085" x2="155.354" y2="283.171" gradientUnits="userSpaceOnUse">
<stop stop-color="#000053"/>
<stop offset="0.5425" stop-color="#23007F"/>
<stop offset="1" stop-color="#4F34D7"/>
</linearGradient>
<linearGradient id="paint3_linear_507_1357" x1="266.519" y1="289.592" x2="266.519" y2="437.754" gradientUnits="userSpaceOnUse">
<stop offset="0.0873016" stop-color="#EB5757"/>
<stop offset="0.9709" stop-color="#3C53D7"/>
</linearGradient>
<linearGradient id="paint4_linear_507_1357" x1="219.644" y1="245.808" x2="330.634" y2="384.111" gradientUnits="userSpaceOnUse">
<stop stop-color="#3C53D7"/>
<stop offset="1" stop-color="#1A1B6E"/>
</linearGradient>
<radialGradient id="paint5_radial_507_1357" cx="0" cy="0" r="1" gradientUnits="userSpaceOnUse" gradientTransform="translate(265.381 304.001) scale(68.7558 58.0582)">
<stop stop-color="#2F3C9E"/>
<stop offset="0.1211" stop-color="#253184"/>
<stop offset="0.2995" stop-color="#192364"/>
<stop offset="0.4722" stop-color="#11194D"/>
<stop offset="0.635" stop-color="#0C1340"/>
<stop offset="0.7778" stop-color="#0A113B"/>
<stop offset="1" stop-color="#000020"/>
</radialGradient>
<radialGradient id="paint6_radial_507_1357" cx="0" cy="0" r="1" gradientUnits="userSpaceOnUse" gradientTransform="translate(267.253 301.433) scale(57.8878 48.8811)">
<stop stop-color="#2F3C9E"/>
<stop offset="0.1211" stop-color="#253184"/>
<stop offset="0.2995" stop-color="#192364"/>
<stop offset="0.4722" stop-color="#11194D"/>
<stop offset="0.635" stop-color="#0C1340"/>
<stop offset="0.7778" stop-color="#0A113B"/>
<stop offset="1" stop-color="#000020"/>
</radialGradient>
<linearGradient id="paint7_linear_507_1357" x1="268.148" y1="295.767" x2="268.148" y2="348.41" gradientUnits="userSpaceOnUse">
<stop offset="0.0873016" stop-color="#EB5757"/>
<stop offset="0.9709" stop-color="#3C53D7"/>
</linearGradient>
<linearGradient id="paint8_linear_507_1357" x1="268.234" y1="268.863" x2="268.234" y2="338.488" gradientUnits="userSpaceOnUse">
<stop offset="0.0873016" stop-color="#EB5757"/>
<stop offset="0.9709" stop-color="#3C53D7"/>
</linearGradient>
<linearGradient id="paint9_linear_507_1357" x1="268.148" y1="275.592" x2="268.148" y2="328.235" gradientUnits="userSpaceOnUse">
<stop offset="0.0873016" stop-color="#EB5757"/>
<stop offset="0.9709" stop-color="#3C53D7"/>
</linearGradient>
<linearGradient id="paint10_linear_507_1357" x1="268.234" y1="248.514" x2="268.234" y2="318.139" gradientUnits="userSpaceOnUse">
<stop offset="0.0873016" stop-color="#EB5757"/>
<stop offset="0.9709" stop-color="#3C53D7"/>
</linearGradient>
<linearGradient id="paint11_linear_507_1357" x1="268.148" y1="255.243" x2="268.148" y2="307.886" gradientUnits="userSpaceOnUse">
<stop offset="0.0873016" stop-color="#EB5757"/>
<stop offset="0.9709" stop-color="#3C53D7"/>
</linearGradient>
<linearGradient id="paint12_linear_507_1357" x1="268.234" y1="228.166" x2="268.234" y2="297.79" gradientUnits="userSpaceOnUse">
<stop offset="0.0873016" stop-color="#EB5757"/>
<stop offset="0.9709" stop-color="#3C53D7"/>
</linearGradient>
<linearGradient id="paint13_linear_507_1357" x1="268.148" y1="234.895" x2="268.148" y2="287.538" gradientUnits="userSpaceOnUse">
<stop offset="0.0873016" stop-color="#EB5757"/>
<stop offset="0.9709" stop-color="#3C53D7"/>
</linearGradient>
<linearGradient id="paint14_linear_507_1357" x1="268.148" y1="207.991" x2="268.148" y2="277.616" gradientUnits="userSpaceOnUse">
<stop offset="0.0873016" stop-color="#EB5757"/>
<stop offset="0.9709" stop-color="#3C53D7"/>
</linearGradient>
<linearGradient id="paint15_linear_507_1357" x1="268.148" y1="214.72" x2="268.148" y2="267.363" gradientUnits="userSpaceOnUse">
<stop offset="0.0873016" stop-color="#EB5757"/>
<stop offset="0.9709" stop-color="#3C53D7"/>
</linearGradient>
<linearGradient id="paint16_linear_507_1357" x1="268.148" y1="187.642" x2="268.148" y2="257.267" gradientUnits="userSpaceOnUse">
<stop offset="0.0873016" stop-color="#EB5757"/>
<stop offset="0.9709" stop-color="#3C53D7"/>
</linearGradient>
<linearGradient id="paint17_linear_507_1357" x1="262.487" y1="19.8413" x2="274.603" y2="243.778" gradientUnits="userSpaceOnUse">
<stop stop-color="#F1EBF9" stop-opacity="0"/>
<stop offset="0.252" stop-color="#F2EEFA" stop-opacity="0"/>
<stop offset="0.2989" stop-color="#F3F0FA" stop-opacity="0"/>
<stop offset="0.4873" stop-color="#EDF9FD" stop-opacity="0.137"/>
<stop offset="0.5741" stop-color="#E9FFFF" stop-opacity="0.2"/>
<stop offset="1" stop-color="#E6FFFF"/>
</linearGradient>
<clipPath id="clip0_507_1357">
<rect width="509" height="309" fill="white" transform="translate(0 165.66)"/>
</clipPath>
</defs>
</svg>
