<svg width="129" height="129" viewBox="0 0 129 129" fill="none" xmlns="http://www.w3.org/2000/svg">
<g opacity="0.2">
<path d="M67.349 68.7073H62.3539V86.8148H67.349C74.8276 86.8148 77.1549 83.4373 77.1549 77.463C77.1549 71.4887 74.8276 68.7073 67.349 68.7073Z" stroke="white" stroke-miterlimit="10"/>
<path d="M64.7379 0.54883C52.169 0.546023 39.8816 4.27057 29.4295 11.2514C18.9775 18.2323 10.8304 28.1559 6.01854 39.7673C1.20668 51.3786 -0.0537794 64.1562 2.39657 76.4839C4.84692 88.8116 10.898 100.136 19.7846 109.024C28.6712 117.913 39.994 123.967 52.3212 126.42C64.6484 128.873 77.4262 127.615 89.0386 122.806C100.651 117.997 110.577 109.852 117.56 99.4013C124.543 88.9508 128.27 76.6642 128.27 64.0953C128.27 47.2442 121.577 31.083 109.663 19.1662C97.7487 7.24931 81.589 0.552593 64.7379 0.54883ZM64.7379 118.333C54.018 118.335 43.5381 115.159 34.6236 109.205C25.7092 103.251 18.7607 94.7872 14.6571 84.8839C10.5534 74.9805 9.47901 64.0825 11.5697 53.5685C13.6603 43.0544 18.8222 33.3965 26.4023 25.8164C33.9824 18.2363 43.6403 13.0745 54.1543 10.9838C64.6684 8.89313 75.5663 9.96757 85.4697 14.0712C95.3731 18.1748 103.837 25.1233 109.791 34.0378C115.745 42.9522 118.921 53.4321 118.918 64.1521C118.885 78.506 113.164 92.2616 103.009 102.406C92.8535 112.551 79.0919 118.257 64.7379 118.276V118.333Z" stroke="white" stroke-miterlimit="10"/>
<path d="M75.7216 51.6783C75.7216 46.4135 73.4085 43.8308 66.8098 43.8308H62.3539V59.7103H66.8098C73.3234 59.7103 75.7216 56.9431 75.7216 51.6783Z" stroke="white" stroke-miterlimit="10"/>
<path d="M64.738 13.6326C54.7568 13.6298 44.999 16.587 36.6986 22.1301C28.3982 27.6733 21.9281 35.5535 18.1066 44.7741C14.285 53.9947 13.2836 64.1414 15.2291 73.9312C17.1747 83.7209 21.9796 92.7138 29.0364 99.7725C36.0931 106.831 45.0847 111.639 54.8738 113.587C64.663 115.535 74.8101 114.537 84.0317 110.718C93.2533 106.899 101.135 100.431 106.681 92.1321C112.226 83.8332 115.186 74.0763 115.186 64.0951C115.171 50.7187 109.852 37.8942 100.395 28.4343C90.9374 18.9744 78.1144 13.6513 64.738 13.6326ZM74.8418 93.6688V105.021H68.4276V94.1513H62.4674V105.007H56.0532V94.137H41.7347V85.6226H44.5728C45.19 85.5299 45.7594 85.2364 46.193 84.7875C46.6265 84.3385 46.9 83.7592 46.9711 83.1392V47.0945C46.9 46.4745 46.6265 45.8952 46.193 45.4462C45.7594 44.9973 45.19 44.7038 44.5728 44.6111H41.7347V36.0966H56.0248V25.1697H62.4391V36.0966H68.3992V25.2407H74.8135V36.5933C84.9315 38.0124 90.2673 42.7521 90.2673 51.0112C90.2673 58.3053 86.1235 61.8671 78.5031 63.4423V63.7687C87.3581 65.1027 92.254 69.445 92.254 77.2784C92.254 86.7294 85.6978 92.1504 74.8135 93.6688H74.8418Z" stroke="white" stroke-miterlimit="10"/>
</g>
</svg>
