<svg width="138" height="126" viewBox="0 0 138 126" fill="none" xmlns="http://www.w3.org/2000/svg">
<path opacity="0.2" d="M80.4775 81.5119L41.5737 15.8518L98.3355 49.4917L80.4775 81.5119Z" stroke="#EB5757" stroke-miterlimit="10"/>
<path opacity="0.2" d="M78.5502 83.0169L41.6424 81.2179L39.6762 17.3894" stroke="#EB5757" stroke-miterlimit="10"/>
<path opacity="0.2" d="M41.0338 81.5714L60.9427 51.97L98.8201 49.481" stroke="#EB5757" stroke-miterlimit="10"/>
<path opacity="0.2" d="M44.0349 84.1102L81.5948 86.0228L99.0286 52.8073L95.7035 110.154L44.0349 84.1102Z" stroke="#EB5757" stroke-miterlimit="10"/>
<path opacity="0.2" d="M81.7368 86.1966L94.8899 109.006" stroke="#EB5757" stroke-miterlimit="10"/>
<path opacity="0.2" d="M41.7656 80.7498C41.5676 80.4172 41.2835 80.1426 40.9493 79.961C40.6151 79.7793 40.2459 79.6987 39.8884 79.7294C39.5309 79.7601 39.2012 79.9006 38.9411 80.1333C38.6811 80.3659 38.5024 80.6801 38.4276 81.0361C38.3529 81.3921 38.3855 81.7739 38.5213 82.133C38.6571 82.4921 38.89 82.8125 39.1904 83.0534C39.4909 83.2943 39.8455 83.445 40.2091 83.4863C40.5728 83.5277 40.9292 83.4578 41.2332 83.2856C41.4351 83.1728 41.6091 83.0176 41.7452 82.8289C41.8814 82.6402 41.9769 82.4218 42.0264 82.1861C42.0759 81.9505 42.0783 81.7023 42.0336 81.4558C41.9888 81.2093 41.8977 80.9693 41.7656 80.7498V80.7498Z" stroke="#EB5757" stroke-miterlimit="10"/>
<path opacity="0.2" d="M79.7017 80.0554C79.5036 79.7262 79.2205 79.4551 78.8883 79.2761C78.5562 79.0972 78.1896 79.0185 77.8351 79.0499C77.4805 79.0813 77.1537 79.2215 76.896 79.4527C76.6383 79.684 76.4612 79.9959 76.387 80.3492C76.3128 80.7024 76.3449 81.0812 76.4792 81.4377C76.6135 81.7942 76.8441 82.1125 77.1417 82.3523C77.4393 82.5921 77.7907 82.7428 78.1515 82.7853C78.5124 82.8279 78.8665 82.7603 79.1692 82.5912C79.3711 82.4784 79.5452 82.3232 79.6813 82.1345C79.8174 81.9458 79.913 81.7274 79.9625 81.4917C80.012 81.256 80.0144 81.0078 79.9696 80.7613C79.9249 80.5149 79.8338 80.2749 79.7017 80.0554V80.0554Z" stroke="#EB5757" stroke-miterlimit="10"/>
<path opacity="0.2" d="M100.352 47.4854C100.156 47.1515 99.8727 46.8753 99.5388 46.6919C99.2049 46.5085 98.8354 46.4261 98.4772 46.4553C98.119 46.4845 97.7883 46.6239 97.5271 46.8558C97.2659 47.0878 97.086 47.4017 97.0102 47.7578C96.9344 48.1139 96.9662 48.4961 97.1014 48.8559C97.2367 49.2156 97.4694 49.5367 97.7699 49.7783C98.0705 50.0199 98.4253 50.1711 98.7894 50.2127C99.1535 50.2544 99.5103 50.1846 99.8147 50.0122C100.221 49.7851 100.506 49.3914 100.607 48.9175C100.708 48.4437 100.616 47.9285 100.352 47.4854V47.4854Z" stroke="#EB5757" stroke-miterlimit="10"/>
<path opacity="0.2" d="M43.2246 17.0198C43.0282 16.6863 42.7454 16.4104 42.412 16.2269C42.0786 16.0435 41.7096 15.9609 41.3517 15.9896C40.9939 16.0182 40.6633 16.1569 40.4019 16.3879C40.1404 16.619 39.96 16.932 39.8833 17.2874C39.8066 17.6428 39.8372 18.0245 39.9712 18.3842C40.1052 18.7439 40.3365 19.0653 40.6359 19.3078C40.9353 19.5502 41.2892 19.7028 41.6528 19.7462C42.0165 19.7895 42.3734 19.7217 42.6785 19.5513C43.0857 19.3238 43.3716 18.9299 43.474 18.4555C43.5763 17.9812 43.4866 17.465 43.2246 17.0198V17.0198Z" stroke="#EB5757" stroke-miterlimit="10"/>
<path opacity="0.2" d="M82.2139 84.6331C82.0161 84.3009 81.7324 84.0266 81.3987 83.8449C81.065 83.6632 80.6963 83.5823 80.3391 83.6125C79.9819 83.6426 79.6523 83.7824 79.3921 84.0141C79.1318 84.2459 78.9525 84.5592 78.8769 84.9145C78.8013 85.2698 78.8327 85.6511 78.9672 86.0102C79.1017 86.3692 79.3333 86.6899 79.6326 86.9317C79.9319 87.1735 80.2855 87.3255 80.6487 87.3686C81.0119 87.4116 81.3684 87.3437 81.6731 87.1735C81.8765 87.0615 82.0519 86.9067 82.1893 86.718C82.3267 86.5293 82.4234 86.3105 82.4737 86.0742C82.524 85.838 82.5269 85.589 82.4823 85.3416C82.4377 85.0942 82.3465 84.8534 82.2139 84.6331V84.6331Z" stroke="#EB5757" stroke-miterlimit="10"/>
<path opacity="0.2" d="M63.206 51.6709C63.0083 51.3387 62.7246 51.0644 62.3909 50.8827C62.0572 50.701 61.6885 50.6201 61.3313 50.6503C60.9741 50.6804 60.6445 50.8202 60.3842 51.052C60.124 51.2837 59.9447 51.5971 59.8691 51.9523C59.7935 52.3076 59.8249 52.6889 59.9594 53.048C60.0939 53.407 60.3255 53.7277 60.6248 53.9695C60.9241 54.2113 61.2777 54.3634 61.6409 54.4064C62.0041 54.4494 62.3606 54.3816 62.6653 54.2113C62.8687 54.0993 63.0441 53.9445 63.1815 53.7558C63.3189 53.5671 63.4156 53.3483 63.4659 53.1121C63.5162 52.8758 63.5191 52.6268 63.4745 52.3794C63.4299 52.132 63.3386 51.8912 63.206 51.6709V51.6709Z" stroke="#EB5757" stroke-miterlimit="10"/>
<path opacity="0.2" d="M102.399 51.7757C102.2 51.4448 101.915 51.1721 101.581 50.9922C101.247 50.8123 100.879 50.7331 100.522 50.7647C100.166 50.7963 99.8372 50.9372 99.5781 51.1697C99.319 51.4022 99.1409 51.7158 99.0663 52.071C98.9917 52.4262 99.024 52.807 99.159 53.1654C99.294 53.5238 99.5258 53.8438 99.825 54.085C100.124 54.3261 100.478 54.4776 100.84 54.5204C101.203 54.5631 101.559 54.4952 101.864 54.3252C102.067 54.2117 102.242 54.0557 102.378 53.866C102.515 53.6763 102.611 53.4567 102.661 53.2198C102.711 52.9828 102.713 52.7333 102.668 52.4855C102.623 52.2376 102.532 51.9964 102.399 51.7757Z" stroke="#EB5757" stroke-miterlimit="10"/>
<path opacity="0.2" d="M96.25 108.273C96.0534 107.939 95.7702 107.663 95.4363 107.479C95.1024 107.296 94.7329 107.214 94.3747 107.243C94.0165 107.272 93.6858 107.411 93.4246 107.643C93.1634 107.875 92.9834 108.189 92.9076 108.545C92.8319 108.901 92.8636 109.284 92.9989 109.643C93.1342 110.003 93.3669 110.324 93.6674 110.566C93.9679 110.807 94.3228 110.959 94.6869 111C95.0509 111.042 95.4078 110.972 95.7121 110.8C96.1185 110.573 96.4035 110.179 96.5044 109.705C96.6052 109.231 96.5137 108.716 96.25 108.273V108.273Z" stroke="#EB5757" stroke-miterlimit="10"/>
<path opacity="0.2" d="M45.1177 85.061C44.9196 84.7319 44.6366 84.4607 44.3044 84.2818C43.9722 84.1028 43.6057 84.0241 43.2511 84.0555C42.8965 84.0869 42.5697 84.2271 42.312 84.4583C42.0543 84.6896 41.8772 85.0015 41.803 85.3548C41.7289 85.708 41.7609 86.0868 41.8953 86.4433C42.0296 86.7998 42.2601 87.1181 42.5577 87.3579C42.8553 87.5978 43.2067 87.7484 43.5676 87.791C43.9284 87.8335 44.2825 87.7659 44.5852 87.5968C44.7872 87.484 44.9612 87.3288 45.0973 87.1401C45.2335 86.9514 45.329 86.733 45.3785 86.4973C45.428 86.2617 45.4304 86.0135 45.3856 85.767C45.3409 85.5205 45.2498 85.2806 45.1177 85.061V85.061Z" stroke="#EB5757" stroke-miterlimit="10"/>
</svg>
