<svg width="66" height="72" viewBox="0 0 66 72" fill="none" xmlns="http://www.w3.org/2000/svg">
<path d="M50.5479 1H11.5537V70.5487H50.5479V1Z" fill="#4D0063" stroke="#280074" stroke-miterlimit="10"/>
<path d="M39.3102 2.98584H22.8369V4.74599H39.3102V2.98584Z" fill="#280074"/>
<path d="M11.5537 1V70.5487H31.0508V68.5629V66.0355V64.0496V6.00967V4.74597V2.98582V1H11.5537Z" fill="#4D0063"/>
<path d="M48.4719 6.00964H13.6299V64.0496H48.4719V6.00964Z" fill="white" stroke="#280074" stroke-miterlimit="10" stroke-linecap="round" stroke-linejoin="round"/>
<path d="M31.412 6.00964H13.6299V64.0496H31.412V6.00964Z" fill="#C08ACF"/>
<path d="M35.1126 67.2991C35.1126 67.9761 34.571 68.5628 33.8489 68.5628H28.2525C27.5755 68.5628 26.9888 68.0212 26.9888 67.2991C26.9888 66.6221 27.5304 66.0354 28.2525 66.0354H33.8489C34.571 66.0354 35.1126 66.6221 35.1126 67.2991Z" fill="white" stroke="#280074" stroke-miterlimit="10" stroke-linecap="round" stroke-linejoin="round"/>
<path d="M28.1625 66.0354C27.5306 66.0354 27.0342 66.577 27.0342 67.2991C27.0342 68.0212 27.5306 68.5628 28.1625 68.5628H31.0961V66.0805H28.1625V66.0354Z" fill="#C08ACF"/>
<path d="M26.8084 27.8988V21.1741L25.2739 18.9626V11.2902" stroke="#280074" stroke-miterlimit="10"/>
<path d="M35.3838 27.8988V22.7988L36.9183 20.5873V11.5609" stroke="#280074" stroke-miterlimit="10"/>
<path d="M32.856 27.8988V21.3997L34.3904 19.8201V13.998" stroke="#280074" stroke-miterlimit="10"/>
<path d="M29.3358 27.8988V21.3997L27.8013 19.8201V13.998" stroke="#280074" stroke-miterlimit="10"/>
<path d="M31.0962 27.8988V15.668" stroke="#280074" stroke-miterlimit="10"/>
<path d="M32.0438 16.4804C32.0438 17.0671 31.5473 17.5636 30.9606 17.5636C30.3739 17.5636 29.8774 17.0671 29.8774 16.4804C29.8774 15.8937 30.3739 15.3972 30.9606 15.3972C31.5925 15.3972 32.0438 15.8937 32.0438 16.4804Z" fill="#280074"/>
<path d="M28.8397 13.4565C28.8397 14.0432 28.3432 14.5396 27.7565 14.5396C27.1698 14.5396 26.6733 14.0432 26.6733 13.4565C26.6733 12.8697 27.1698 12.3733 27.7565 12.3733C28.3432 12.3733 28.8397 12.8697 28.8397 13.4565Z" fill="#280074"/>
<path d="M35.429 13.4565C35.429 14.0432 34.9326 14.5396 34.3459 14.5396C33.7591 14.5396 33.2627 14.0432 33.2627 13.4565C33.2627 12.8697 33.7591 12.3733 34.3459 12.3733C34.9777 12.3733 35.429 12.8697 35.429 13.4565Z" fill="#280074"/>
<path d="M37.9564 10.7936C37.9564 11.3803 37.4599 11.8768 36.8732 11.8768C36.2865 11.8768 35.79 11.3803 35.79 10.7936C35.79 10.2069 36.2865 9.71045 36.8732 9.71045C37.5051 9.75558 37.9564 10.2069 37.9564 10.7936Z" fill="#280074"/>
<path d="M26.3573 10.7936C26.3573 11.3803 25.8608 11.8768 25.2741 11.8768C24.6874 11.8768 24.1909 11.3803 24.1909 10.7936C24.1909 10.2069 24.6874 9.71045 25.2741 9.71045C25.8608 9.75558 26.3573 10.2069 26.3573 10.7936Z" fill="#280074"/>
<path d="M35.3838 43.6047V50.3746L36.9183 52.586V60.2134" stroke="#280074" stroke-miterlimit="10"/>
<path d="M26.8084 43.6047V48.7498L25.2739 50.9613V59.9877" stroke="#280074" stroke-miterlimit="10"/>
<path d="M29.3358 43.6047V50.1038L27.8013 51.6834V57.5054" stroke="#280074" stroke-miterlimit="10"/>
<path d="M32.856 43.6047V50.1038L34.3904 51.6834V57.5054" stroke="#280074" stroke-miterlimit="10"/>
<path d="M31.0957 43.6047V55.8807" stroke="#280074" stroke-miterlimit="10"/>
<path d="M30.103 55.0683C30.103 54.4816 30.5995 53.9851 31.1862 53.9851C31.7729 53.9851 32.2694 54.4816 32.2694 55.0683C32.2694 55.655 31.7729 56.1515 31.1862 56.1515C30.5995 56.1515 30.103 55.655 30.103 55.0683Z" fill="#280074"/>
<path d="M33.3525 58.0922C33.3525 57.5055 33.849 57.009 34.4357 57.009C35.0224 57.009 35.5189 57.5055 35.5189 58.0922C35.5189 58.6789 35.0224 59.1754 34.4357 59.1754C33.849 59.1754 33.3525 58.6789 33.3525 58.0922Z" fill="#280074"/>
<path d="M26.7183 58.0922C26.7183 57.5055 27.2147 57.009 27.8014 57.009C28.3882 57.009 28.8846 57.5055 28.8846 58.0922C28.8846 58.6789 28.3882 59.1754 27.8014 59.1754C27.2147 59.1754 26.7183 58.6789 26.7183 58.0922Z" fill="#280074"/>
<path d="M24.2358 60.7099C24.2358 60.1232 24.7323 59.6267 25.319 59.6267C25.9057 59.6267 26.4022 60.1232 26.4022 60.7099C26.4022 61.2966 25.9057 61.7931 25.319 61.7931C24.6872 61.7931 24.2358 61.2966 24.2358 60.7099Z" fill="#280074"/>
<path d="M35.835 60.7099C35.835 60.1232 36.3314 59.6267 36.9181 59.6267C37.5049 59.6267 38.0013 60.1232 38.0013 60.7099C38.0013 61.2966 37.5049 61.7931 36.9181 61.7931C36.2863 61.7931 35.835 61.2966 35.835 60.7099Z" fill="#280074"/>
<path d="M43.9136 31.419H50.6834L52.8949 29.8845H60.5222" stroke="#280074" stroke-miterlimit="10"/>
<path d="M43.9136 39.9491H49.0135L51.225 41.4836H60.2514" stroke="#280074" stroke-miterlimit="10"/>
<path d="M43.9136 37.4668H50.4126L51.9922 38.9562H57.8143" stroke="#280074" stroke-miterlimit="10"/>
<path d="M43.9136 33.9014H50.4126L51.9922 32.412H57.8143" stroke="#280074" stroke-miterlimit="10"/>
<path d="M43.9136 35.7067H56.1444" stroke="#280074" stroke-miterlimit="10"/>
<path d="M55.3771 36.6544C54.7904 36.6544 54.2939 36.1579 54.2939 35.5712C54.2939 34.9845 54.7904 34.488 55.3771 34.488C55.9638 34.488 56.4603 34.9845 56.4603 35.5712C56.4152 36.2031 55.9638 36.6544 55.3771 36.6544Z" fill="#280074"/>
<path d="M58.401 33.4049C57.8143 33.4049 57.3179 32.9084 57.3179 32.3217C57.3179 31.735 57.8143 31.2385 58.401 31.2385C58.9878 31.2385 59.4842 31.735 59.4842 32.3217C59.4391 32.9535 58.9878 33.4049 58.401 33.4049Z" fill="#280074"/>
<path d="M58.401 40.0393C57.8143 40.0393 57.3179 39.5428 57.3179 38.9561C57.3179 38.3694 57.8143 37.8729 58.401 37.8729C58.9878 37.8729 59.4842 38.3694 59.4842 38.9561C59.4391 39.5428 58.9878 40.0393 58.401 40.0393Z" fill="#280074"/>
<path d="M61.0187 42.5667C60.432 42.5667 59.9355 42.0703 59.9355 41.4836C59.9355 40.8968 60.432 40.4004 61.0187 40.4004C61.6054 40.4004 62.1019 40.8968 62.1019 41.4836C62.1019 42.0703 61.6054 42.5667 61.0187 42.5667Z" fill="#280074"/>
<path d="M61.0187 30.9226C60.432 30.9226 59.9355 30.4261 59.9355 29.8394C59.9355 29.2527 60.432 28.7562 61.0187 28.7562C61.6054 28.7562 62.1019 29.2527 62.1019 29.8394C62.1019 30.4712 61.6054 30.9226 61.0187 30.9226Z" fill="#280074"/>
<path d="M18.1882 31.419H11.4635L9.25206 29.8845H1.57959" stroke="#280074" stroke-miterlimit="10"/>
<path d="M18.1884 39.9491H13.0885L10.877 41.4836H1.85059" stroke="#280074" stroke-miterlimit="10"/>
<path d="M18.1883 37.4668H11.6893L10.1096 38.9562H4.2876" stroke="#280074" stroke-miterlimit="10"/>
<path d="M18.1883 33.9014H11.6893L10.1096 32.412H4.2876" stroke="#280074" stroke-miterlimit="10"/>
<path d="M18.1883 35.7067H5.95752" stroke="#280074" stroke-miterlimit="10"/>
<path d="M6.7697 36.6544C7.35641 36.6544 7.85287 36.1579 7.85287 35.5712C7.85287 34.9845 7.35641 34.488 6.7697 34.488C6.18298 34.488 5.68652 34.9845 5.68652 35.5712C5.68652 36.2031 6.13785 36.6544 6.7697 36.6544Z" fill="#280074"/>
<path d="M3.74577 33.4049C4.33249 33.4049 4.82894 32.9084 4.82894 32.3217C4.82894 31.735 4.33249 31.2385 3.74577 31.2385C3.15905 31.2385 2.6626 31.735 2.6626 32.3217C2.6626 32.9535 3.15905 33.4049 3.74577 33.4049Z" fill="#280074"/>
<path d="M3.74577 40.0393C4.33249 40.0393 4.82894 39.5428 4.82894 38.9561C4.82894 38.3694 4.33249 37.8729 3.74577 37.8729C3.15905 37.8729 2.6626 38.3694 2.6626 38.9561C2.6626 39.5428 3.15905 40.0393 3.74577 40.0393Z" fill="#280074"/>
<path d="M1.08317 42.5667C1.66989 42.5667 2.16634 42.0703 2.16634 41.4836C2.16634 40.8968 1.66989 40.4004 1.08317 40.4004C0.496453 40.4004 0 40.8968 0 41.4836C0.0451322 42.0703 0.496453 42.5667 1.08317 42.5667Z" fill="#280074"/>
<path d="M1.08317 30.9226C1.66989 30.9226 2.16634 30.4261 2.16634 29.8394C2.16634 29.2527 1.66989 28.7562 1.08317 28.7562C0.496453 28.7562 0 29.2527 0 29.8394C0.0451322 30.4712 0.496453 30.9226 1.08317 30.9226Z" fill="#280074"/>
<path d="M43.7333 44.1463C43.7333 46.448 41.8829 48.2985 39.5811 48.2985H22.6566C20.3548 48.2985 18.5044 46.448 18.5044 44.1463V27.2217C18.5044 24.92 20.3548 23.0696 22.6566 23.0696H39.5811C41.8829 23.0696 43.7333 24.92 43.7333 27.2217V44.1463Z" fill="#4D0063" stroke="#280074" stroke-miterlimit="10"/>
<path d="M30.9157 23.0245H22.6566C20.3548 23.0245 18.5044 24.875 18.5044 27.1767V44.1013C18.5044 46.403 20.3548 48.2534 22.6566 48.2534H30.9609V23.0245H30.9157Z" fill="#4D0063"/>
<path d="M37.3243 36.4739C36.873 35.8872 36.1057 35.481 35.1128 35.2102C35.7898 34.9846 36.2863 34.6687 36.6022 34.2625C37.0986 33.6757 37.3694 32.9536 37.3694 32.1413C37.3694 31.1483 37.0084 30.336 36.2863 29.659C35.7447 29.1625 34.9774 28.8466 34.0748 28.7112V27.4475H32.5403V28.6661H30.9607V27.4475H29.4262V28.6661H25.0483V42.6571H29.4262V43.8756H30.9607V42.6571H32.5403V43.8756H34.0748V42.5217C34.2102 42.5217 34.3456 42.4765 34.481 42.4765C35.2031 42.3863 35.7447 42.2057 36.1057 42.0252C36.6924 41.7093 37.1438 41.2128 37.5048 40.6712C37.8208 40.0845 38.0013 39.4527 38.0013 38.7306C38.0013 37.7828 37.7756 37.0607 37.3243 36.4739ZM29.4713 31.5094H31.3668C32.0438 31.5094 32.4952 31.6448 32.766 31.8705C33.0367 32.0961 33.1721 32.4121 33.1721 32.8182C33.1721 33.2696 33.0367 33.5855 32.766 33.8111C32.4952 34.0368 32.0438 34.1722 31.3668 34.1722H29.4713V31.5094ZM29.4713 39.6783V36.835H31.6828C32.45 36.835 32.9916 36.9704 33.2624 37.1961C33.5783 37.4669 33.7137 37.7828 33.7137 38.189C33.7137 38.6403 33.5783 39.0013 33.2624 39.2721C32.9465 39.5429 32.45 39.6783 31.6828 39.6783H29.4713V39.6783Z" fill="#C08ACF"/>
<path d="M62.2375 54.4365H48.4722C47.0279 54.4365 45.8545 55.61 45.8545 57.0542V67.931C45.8545 69.3753 47.0279 70.5487 48.4722 70.5487H62.2375C63.6817 70.5487 64.8551 69.3753 64.8551 67.931V57.0542C64.8551 55.61 63.6817 54.4365 62.2375 54.4365Z" fill="#EB5757" stroke="#280074" stroke-miterlimit="10"/>
<path d="M62.6439 54.4365H60.1165V50.2844C60.1165 47.6667 57.9953 45.5455 55.3776 45.5455C52.7599 45.5455 50.6839 47.6667 50.6839 50.2844V54.4365H48.1113V50.2844C48.1113 46.2676 51.3608 43.0181 55.3776 43.0181C59.3944 43.0181 62.6439 46.2676 62.6439 50.2844V54.4365Z" fill="#4D0063" stroke="#280074" stroke-miterlimit="10"/>
<path d="M55.2873 43.0181C51.3157 43.0632 48.1113 46.3127 48.1113 50.2844V54.4365H50.6839V50.2844C50.6839 47.7118 52.7599 45.6357 55.3325 45.5906V43.0181H55.2873Z" fill="#4D0063"/>
<path d="M48.4722 54.4365C47.0279 54.4365 45.8545 55.61 45.8545 57.0542V67.931C45.8545 69.3753 47.0279 70.5487 48.4722 70.5487H55.3774V54.4365H48.4722V54.4365Z" fill="#EB5757"/>
<path d="M57.8147 60.6196C57.8147 59.2657 56.7315 58.1825 55.3776 58.1825C54.0236 58.1825 52.9404 59.2657 52.9404 60.6196C52.9404 61.6577 53.5723 62.5603 54.5201 62.9214L54.2041 66.8027H56.5961L56.2802 62.9214C57.1377 62.5152 57.8147 61.6577 57.8147 60.6196Z" fill="#280074"/>
<path d="M52.8501 55.8807H49.4652C48.2466 55.8807 47.2988 56.8736 47.2988 58.0922V61.2515" stroke="white" stroke-miterlimit="10" stroke-linecap="round" stroke-linejoin="round"/>
<path d="M54.0234 55.8807H56.0995" stroke="white" stroke-miterlimit="10" stroke-linecap="round" stroke-linejoin="round"/>
<path d="M49.2847 49.8331C49.736 47.3508 51.5413 45.3199 53.9333 44.5526" stroke="white" stroke-miterlimit="10" stroke-linecap="round" stroke-linejoin="round"/>
<path d="M55.3774 44.327C55.3774 44.327 56.235 44.2367 57.3181 44.7332" stroke="white" stroke-miterlimit="10" stroke-linecap="round" stroke-linejoin="round"/>
</svg>
