<svg width="67" height="72" viewBox="0 0 67 72" fill="none" xmlns="http://www.w3.org/2000/svg">
<path d="M66.1041 49.4024C66.1041 61.0769 56.6421 70.5389 44.9676 70.5389C33.2931 70.5389 23.8311 61.0769 23.8311 49.4024C23.8311 37.7279 33.2931 28.2659 44.9676 28.2659C56.6421 28.2188 66.1041 37.7279 66.1041 49.4024Z" fill="#C08ACF" stroke="#280074" stroke-miterlimit="10"/>
<path d="M62.291 49.4025C62.291 58.9586 54.5237 66.7259 44.9675 66.7259C35.4114 66.7259 27.644 58.9586 27.644 49.4025C27.644 39.8463 35.4114 32.079 44.9675 32.079C54.5237 32.079 62.291 39.7992 62.291 49.4025Z" fill="#C08ACF" stroke="#280074" stroke-miterlimit="10"/>
<path d="M44.9205 28.2189C33.246 28.2659 23.8311 37.728 23.8311 49.4025C23.8311 61.077 33.2931 70.539 44.9205 70.539V28.2189Z" fill="#C08ACF"/>
<path d="M66.1041 49.4024C66.1041 61.0769 56.6421 70.5389 44.9676 70.5389C33.2931 70.5389 23.8311 61.0769 23.8311 49.4024C23.8311 37.7279 33.2931 28.2659 44.9676 28.2659C56.6421 28.2188 66.1041 37.7279 66.1041 49.4024Z" stroke="#280074" stroke-miterlimit="10"/>
<path d="M62.291 49.4025C62.291 58.9586 54.5237 66.7259 44.9675 66.7259C35.4114 66.7259 27.644 58.9586 27.644 49.4025C27.644 39.8463 35.4114 32.079 44.9675 32.079C54.5237 32.079 62.291 39.7992 62.291 49.4025Z" stroke="#280074" stroke-miterlimit="10"/>
<path d="M44.2144 28.2189V32.079" stroke="#280074" stroke-miterlimit="10"/>
<path d="M44.2144 66.726V70.539" stroke="#280074" stroke-miterlimit="10"/>
<path d="M44.2144 28.2189V32.079" stroke="#280074" stroke-miterlimit="10"/>
<path d="M44.2144 66.726V70.539" stroke="#280074" stroke-miterlimit="10"/>
<path d="M66.669 49.4025H62.856" stroke="#280074" stroke-miterlimit="10"/>
<path d="M28.209 49.4025H24.396" stroke="#280074" stroke-miterlimit="10"/>
<path d="M66.669 49.4025H62.856" stroke="#280074" stroke-miterlimit="10"/>
<path d="M28.209 49.4025H24.396" stroke="#280074" stroke-miterlimit="10"/>
<path d="M60.5018 34.4327L57.7715 37.1631" stroke="#280074" stroke-miterlimit="10"/>
<path d="M33.2928 61.6418L30.5625 64.3722" stroke="#280074" stroke-miterlimit="10"/>
<path d="M60.5018 34.4327L57.7715 37.1631" stroke="#280074" stroke-miterlimit="10"/>
<path d="M33.2928 61.6418L30.5625 64.3722" stroke="#280074" stroke-miterlimit="10"/>
<path d="M60.5018 64.3722L57.7715 61.6418" stroke="#280074" stroke-miterlimit="10"/>
<path d="M33.2928 37.1631L30.5625 34.4327" stroke="#280074" stroke-miterlimit="10"/>
<path d="M60.5018 64.3722L57.7715 61.6418" stroke="#280074" stroke-miterlimit="10"/>
<path d="M33.2928 37.1631L30.5625 34.4327" stroke="#280074" stroke-miterlimit="10"/>
<path d="M56.1713 31.0905L54.2412 34.3857" stroke="#280074" stroke-miterlimit="10"/>
<path d="M36.8236 64.3722L34.8936 67.6674" stroke="#280074" stroke-miterlimit="10"/>
<path d="M56.1713 31.0905L54.2412 34.3857" stroke="#280074" stroke-miterlimit="10"/>
<path d="M36.8236 64.3722L34.8936 67.6674" stroke="#280074" stroke-miterlimit="10"/>
<path d="M63.8443 59.9942L60.502 58.1112" stroke="#280074" stroke-miterlimit="10"/>
<path d="M30.5625 40.6936L27.2202 38.7635" stroke="#280074" stroke-miterlimit="10"/>
<path d="M63.8443 59.9942L60.502 58.1112" stroke="#280074" stroke-miterlimit="10"/>
<path d="M30.5625 40.6936L27.2202 38.7635" stroke="#280074" stroke-miterlimit="10"/>
<path d="M65.3979 43.9418L61.7261 44.9303" stroke="#280074" stroke-miterlimit="10"/>
<path d="M28.2089 53.8274L24.5371 54.816" stroke="#280074" stroke-miterlimit="10"/>
<path d="M65.3979 43.9418L61.7261 44.9303" stroke="#280074" stroke-miterlimit="10"/>
<path d="M28.2089 53.8274L24.5371 54.816" stroke="#280074" stroke-miterlimit="10"/>
<path d="M49.6277 69.833L48.6392 66.1611" stroke="#280074" stroke-miterlimit="10"/>
<path d="M39.7423 32.6439L38.8008 28.925" stroke="#280074" stroke-miterlimit="10"/>
<path d="M49.6277 69.833L48.6392 66.1611" stroke="#280074" stroke-miterlimit="10"/>
<path d="M39.7423 32.6439L38.8008 28.925" stroke="#280074" stroke-miterlimit="10"/>
<path d="M51.4167 29.0662L50.334 32.738" stroke="#280074" stroke-miterlimit="10"/>
<path d="M40.7307 66.0198L39.6479 69.7387" stroke="#280074" stroke-miterlimit="10"/>
<path d="M51.4167 29.0662L50.334 32.738" stroke="#280074" stroke-miterlimit="10"/>
<path d="M40.7307 66.0198L39.6479 69.7387" stroke="#280074" stroke-miterlimit="10"/>
<path d="M65.8686 55.2397L62.1968 54.2041" stroke="#280074" stroke-miterlimit="10"/>
<path d="M28.8681 44.6009L25.1963 43.5182" stroke="#280074" stroke-miterlimit="10"/>
<path d="M65.8686 55.2397L62.1968 54.2041" stroke="#280074" stroke-miterlimit="10"/>
<path d="M28.8681 44.6009L25.1963 43.5182" stroke="#280074" stroke-miterlimit="10"/>
<path d="M63.4678 39.1873L60.1255 41.0232" stroke="#280074" stroke-miterlimit="10"/>
<path d="M29.8096 57.7817L26.4673 59.6176" stroke="#280074" stroke-miterlimit="10"/>
<path d="M63.4678 39.1873L60.1255 41.0232" stroke="#280074" stroke-miterlimit="10"/>
<path d="M29.8096 57.7817L26.4673 59.6176" stroke="#280074" stroke-miterlimit="10"/>
<path d="M55.7475 67.9028L53.9116 64.5605" stroke="#280074" stroke-miterlimit="10"/>
<path d="M37.1533 34.2445L35.3174 30.8551" stroke="#280074" stroke-miterlimit="10"/>
<path d="M55.7475 67.9028L53.9116 64.5605" stroke="#280074" stroke-miterlimit="10"/>
<path d="M37.1533 34.2445L35.3174 30.8551" stroke="#280074" stroke-miterlimit="10"/>
<path d="M29.998 50.1557C29.998 41.8705 36.6826 35.1859 44.9678 35.1859" stroke="white" stroke-miterlimit="10" stroke-linecap="round" stroke-linejoin="round"/>
<path d="M47.2275 35.1859C47.2275 35.1859 50.0049 35.2801 52.6882 37.1631" stroke="white" stroke-miterlimit="10" stroke-linecap="round" stroke-linejoin="round"/>
<path d="M52.2171 51.1442C51.6052 50.391 50.6637 49.8732 49.4397 49.5908C50.2871 49.3083 50.8991 48.9317 51.3227 48.4139C51.9818 47.6607 52.3113 46.7663 52.3113 45.7306C52.3113 44.5067 51.8405 43.4711 50.9461 42.6237C50.24 41.9647 49.2985 41.5881 48.1687 41.4469V39.8463H46.2387V41.3527H44.2615V39.8463H42.3315V41.3527H36.8237V58.9586H42.3315V60.5121H44.2615V58.9586H46.2387V60.5121H48.1687V58.8174C48.357 58.8174 48.4982 58.7703 48.6865 58.7703C49.628 58.6291 50.2871 58.4408 50.7578 58.2054C51.511 57.7818 52.0759 57.2169 52.4996 56.4637C52.9233 55.7575 53.1586 54.9102 53.1586 54.0158C53.1116 52.7918 52.8291 51.8974 52.2171 51.1442ZM42.3315 44.8833H44.7323C45.5325 44.8833 46.1445 45.0245 46.474 45.307C46.8036 45.5894 46.9919 46.0131 46.9919 46.5309C46.9919 47.0958 46.8036 47.5195 46.474 47.8019C46.1445 48.0844 45.5325 48.2256 44.6852 48.2256H42.3315V44.8833ZM42.3315 55.1456V51.615H45.1089C46.0504 51.615 46.7094 51.7562 47.086 52.0857C47.4626 52.4152 47.6509 52.8389 47.6509 53.3567C47.6509 53.9216 47.4626 54.3453 47.086 54.6748C46.7094 55.0043 46.0504 55.1926 45.1089 55.1926H42.3315V55.1456Z" fill="#280074"/>
<path d="M43.6496 22.3346C43.6496 34.1032 34.0935 43.6594 22.3248 43.6594C10.5562 43.6594 1 34.1032 1 22.3346C1 10.5659 10.5562 1.00977 22.3248 1.00977C34.0935 1.00977 43.6496 10.5659 43.6496 22.3346Z" fill="#C08ACF" stroke="#280074" stroke-miterlimit="10"/>
<path d="M39.7897 22.3346C39.7897 31.9849 31.9754 39.7993 22.325 39.7993C12.6747 39.7993 4.86035 31.9849 4.86035 22.3346C4.86035 12.6843 12.6747 4.86987 22.325 4.86987C31.9754 4.86987 39.7897 12.6843 39.7897 22.3346Z" fill="#C08ACF" stroke="#280074" stroke-miterlimit="10"/>
<path d="M22.2777 1.00977C10.5091 1.05684 1 10.5659 1 22.3346C1 34.1032 10.5091 43.6123 22.2777 43.6594V1.00977Z" fill="#C08ACF"/>
<path d="M43.6496 22.3346C43.6496 34.1032 34.0935 43.6594 22.3248 43.6594C10.5562 43.6594 1 34.1032 1 22.3346C1 10.5659 10.5562 1.00977 22.3248 1.00977C34.0935 1.00977 43.6496 10.5659 43.6496 22.3346Z" stroke="#280074" stroke-miterlimit="10"/>
<path d="M39.7897 22.3346C39.7897 31.9849 31.9754 39.7993 22.325 39.7993C12.6747 39.7993 4.86035 31.9849 4.86035 22.3346C4.86035 12.6843 12.6747 4.86987 22.325 4.86987C31.9754 4.86987 39.7897 12.6843 39.7897 22.3346Z" stroke="#280074" stroke-miterlimit="10"/>
<path d="M21.5718 1.00977V4.86989" stroke="#280074" stroke-miterlimit="10"/>
<path d="M21.5718 39.7993V43.6594" stroke="#280074" stroke-miterlimit="10"/>
<path d="M21.5718 1.00977V4.86989" stroke="#280074" stroke-miterlimit="10"/>
<path d="M21.5718 39.7993V43.6594" stroke="#280074" stroke-miterlimit="10"/>
<path d="M44.2146 22.3346H40.3545" stroke="#280074" stroke-miterlimit="10"/>
<path d="M5.42506 22.3346H1.56494" stroke="#280074" stroke-miterlimit="10"/>
<path d="M44.2146 22.3346H40.3545" stroke="#280074" stroke-miterlimit="10"/>
<path d="M5.42506 22.3346H1.56494" stroke="#280074" stroke-miterlimit="10"/>
<path d="M37.9535 7.27063L35.2231 10.001" stroke="#280074" stroke-miterlimit="10"/>
<path d="M10.556 34.6681L7.82568 37.3984" stroke="#280074" stroke-miterlimit="10"/>
<path d="M37.9535 7.27063L35.2231 10.001" stroke="#280074" stroke-miterlimit="10"/>
<path d="M10.556 34.6681L7.82568 37.3984" stroke="#280074" stroke-miterlimit="10"/>
<path d="M37.9535 37.3984L35.2231 34.6681" stroke="#280074" stroke-miterlimit="10"/>
<path d="M10.556 10.001L7.82568 7.27063" stroke="#280074" stroke-miterlimit="10"/>
<path d="M37.9535 37.3984L35.2231 34.6681" stroke="#280074" stroke-miterlimit="10"/>
<path d="M10.556 10.001L7.82568 7.27063" stroke="#280074" stroke-miterlimit="10"/>
<path d="M33.5756 3.88135L31.6455 7.22365" stroke="#280074" stroke-miterlimit="10"/>
<path d="M14.1337 37.4456L12.2036 40.7408" stroke="#280074" stroke-miterlimit="10"/>
<path d="M33.5756 3.88135L31.6455 7.22365" stroke="#280074" stroke-miterlimit="10"/>
<path d="M14.1337 37.4456L12.2036 40.7408" stroke="#280074" stroke-miterlimit="10"/>
<path d="M41.3433 33.0205L38.001 31.0905" stroke="#280074" stroke-miterlimit="10"/>
<path d="M7.77882 13.5787L4.43652 11.6016" stroke="#280074" stroke-miterlimit="10"/>
<path d="M41.3433 33.0205L38.001 31.0905" stroke="#280074" stroke-miterlimit="10"/>
<path d="M7.77882 13.5787L4.43652 11.6016" stroke="#280074" stroke-miterlimit="10"/>
<path d="M42.8961 16.8739L39.1772 17.8625" stroke="#280074" stroke-miterlimit="10"/>
<path d="M5.42495 26.8066L1.70605 27.7952" stroke="#280074" stroke-miterlimit="10"/>
<path d="M42.8961 16.8739L39.1772 17.8625" stroke="#280074" stroke-miterlimit="10"/>
<path d="M5.42495 26.8066L1.70605 27.7952" stroke="#280074" stroke-miterlimit="10"/>
<path d="M27.0325 42.9063L26.0439 39.1874" stroke="#280074" stroke-miterlimit="10"/>
<path d="M17.0525 5.43484L16.064 1.71594" stroke="#280074" stroke-miterlimit="10"/>
<path d="M27.0325 42.9063L26.0439 39.1874" stroke="#280074" stroke-miterlimit="10"/>
<path d="M17.0525 5.43484L16.064 1.71594" stroke="#280074" stroke-miterlimit="10"/>
<path d="M28.8215 1.85706L27.7388 5.52888" stroke="#280074" stroke-miterlimit="10"/>
<path d="M18.0412 39.0931L16.9585 42.812" stroke="#280074" stroke-miterlimit="10"/>
<path d="M28.8215 1.85706L27.7388 5.52888" stroke="#280074" stroke-miterlimit="10"/>
<path d="M18.0412 39.0931L16.9585 42.812" stroke="#280074" stroke-miterlimit="10"/>
<path d="M43.3669 28.2189L39.6479 27.1832" stroke="#280074" stroke-miterlimit="10"/>
<path d="M6.13101 17.4859L2.41211 16.4032" stroke="#280074" stroke-miterlimit="10"/>
<path d="M43.3669 28.2189L39.6479 27.1832" stroke="#280074" stroke-miterlimit="10"/>
<path d="M6.13101 17.4859L2.41211 16.4032" stroke="#280074" stroke-miterlimit="10"/>
<path d="M40.9665 12.0253L37.5771 13.9083" stroke="#280074" stroke-miterlimit="10"/>
<path d="M7.02561 30.761L3.63623 32.644" stroke="#280074" stroke-miterlimit="10"/>
<path d="M40.9665 12.0253L37.5771 13.9083" stroke="#280074" stroke-miterlimit="10"/>
<path d="M7.02561 30.761L3.63623 32.644" stroke="#280074" stroke-miterlimit="10"/>
<path d="M33.1994 40.9762L31.3164 37.5868" stroke="#280074" stroke-miterlimit="10"/>
<path d="M14.4636 7.03537L12.5806 3.646" stroke="#280074" stroke-miterlimit="10"/>
<path d="M33.1994 40.9762L31.3164 37.5868" stroke="#280074" stroke-miterlimit="10"/>
<path d="M14.4636 7.03537L12.5806 3.646" stroke="#280074" stroke-miterlimit="10"/>
<path d="M7.21387 23.0878C7.21387 14.7556 13.9455 8.02393 22.2778 8.02393" stroke="white" stroke-miterlimit="10" stroke-linecap="round" stroke-linejoin="round"/>
<path d="M24.5845 8.02393C24.5845 8.02393 27.409 8.11808 30.0922 10.0011" stroke="white" stroke-miterlimit="10" stroke-linecap="round" stroke-linejoin="round"/>
<path d="M29.6684 18.2391L24.9139 18.9923C24.6785 18.3803 24.4431 17.9566 24.2548 17.7212C24.0665 17.4859 23.737 17.2505 23.3133 17.0151V20.734C25.9024 21.4401 27.6442 22.1463 28.4915 22.9465C29.6213 23.9822 30.2333 25.3003 30.2333 26.8537C30.2333 27.7952 30.045 28.6426 29.6213 29.3958C29.1977 30.149 28.6798 30.808 28.0208 31.3258C27.3617 31.8436 26.7027 32.2202 25.9495 32.4556C25.2434 32.691 24.349 32.8322 23.2662 32.8793V35.2801H21.3833V32.8793C20.1122 32.7851 19.1237 32.5498 18.3234 32.2673C17.5231 31.9849 16.8641 31.5612 16.2992 31.0434C15.8285 30.5256 15.3577 29.9607 15.0753 29.3487C14.7928 28.7367 14.5574 28.0306 14.3691 27.1833L19.5474 26.5713C19.6886 27.4186 19.9239 28.0306 20.1593 28.4072C20.4418 28.7838 20.8654 29.1133 21.4303 29.3958V24.8766C19.6886 24.4058 18.4646 23.9822 17.7585 23.6527C17.0524 23.3231 16.4404 22.7582 15.8755 21.958C15.3577 21.2048 15.0753 20.2633 15.0753 19.1335C15.0753 17.6271 15.5931 16.3561 16.6758 15.3204C17.7585 14.2848 19.312 13.7199 21.4303 13.6258V12.3547H23.3133V13.6258C25.2434 13.767 26.7027 14.1906 27.6913 14.9909C28.7269 15.7912 29.386 16.8739 29.6684 18.2391ZM21.4774 16.921C20.9125 17.1093 20.5359 17.3446 20.3476 17.58C20.1122 17.8625 20.0181 18.1449 20.0181 18.5215C20.0181 18.8981 20.1122 19.2276 20.3476 19.5101C20.583 19.7925 20.9596 20.0279 21.4774 20.2162V16.921ZM23.3133 29.537C24.0194 29.3958 24.5843 29.1133 24.9139 28.7367C25.2434 28.3601 25.4317 27.9364 25.4317 27.4657C25.4317 27.042 25.2905 26.7125 25.008 26.3359C24.7256 26.0064 24.1607 25.6769 23.3604 25.3944V29.537H23.3133Z" fill="#280074"/>
<path d="M44.4971 7.0824C55.2301 11.0837 63.2328 20.9694 64.2684 33.1618" stroke="#280074" stroke-miterlimit="10"/>
<path d="M26.3261 65.455C13.9926 62.3481 4.43643 51.7563 3.30664 38.3871" stroke="#280074" stroke-miterlimit="10"/>
<path d="M20.7711 58.1113L29.9507 66.8201L18.0879 67.7146L23.6898 64.7959L20.7711 58.1113Z" fill="#280074"/>
<path d="M48.357 15.1322L40.6367 5.05823L52.4995 6.04679L46.521 8.02393L48.357 15.1322Z" fill="#280074"/>
</svg>
