<svg width="113" height="71" viewBox="0 0 113 71" fill="none" xmlns="http://www.w3.org/2000/svg">
<path d="M20.7583 47.9559L12.0894 56.1531V70.4833H20.7583V47.9559Z" fill="#C08ACF"/>
<path d="M29.4272 42.5895H26.5376L20.7583 47.9559V70.4833H29.4272V42.5895Z" fill="#280074"/>
<path d="M38.0962 42.5895H29.4272V70.4833H38.0962V42.5895Z" fill="#C08ACF"/>
<path d="M46.706 42.5895H38.0371V70.4833H46.706V42.5895Z" fill="#280074"/>
<path d="M55.316 35.8077L48.1214 42.5895H46.7061V70.4834H55.316V35.8077Z" fill="#C08ACF"/>
<path d="M63.9848 28.9669H62.5695L55.3159 35.8077V70.4833H63.9848V28.9669Z" fill="#280074"/>
<path d="M72.6538 28.9669H63.9849V70.4833H72.6538V28.9669Z" fill="#C08ACF"/>
<path d="M81.3227 28.9669H72.6538V70.4833H81.3227V28.9669Z" fill="#280074"/>
<path d="M89.9326 23.5415L84.0943 28.9669H81.2637V70.4834H89.9326V23.5415Z" fill="#C08ACF"/>
<path d="M98.5426 15.4033L89.9326 23.5415V70.4834H98.5426V15.4033Z" fill="#280074"/>
<path d="M103.024 11.2163L84.1533 28.9669H62.5694L48.1212 42.5895H26.5374L9.14062 58.9838" stroke="#4D0063" stroke-miterlimit="10"/>
<path d="M93.2349 12.9265L105.501 8.91638L100.547 19.9442L100.665 13.5162L93.2349 12.9265Z" fill="#4D0063"/>
<path d="M45.5855 23.7773C45.0547 26.549 44.1111 29.4387 43.2266 31.7386C43.7573 31.7386 44.7598 31.7976 45.2906 32.8591C45.9983 34.2744 47.3546 37.282 48.2392 39.2281H49.0058V30.854C49.0058 25.9593 46.47 24.1901 45.5855 23.7773Z" fill="#280074" stroke="#4D0063" stroke-miterlimit="10"/>
<path d="M28.8965 23.7773C29.4272 26.549 30.3708 29.4387 31.2554 31.7386C30.7246 31.7386 29.7221 31.7976 29.1914 32.8591C28.4837 34.2744 27.1273 37.282 26.2427 39.2281H25.4761V30.854C25.4171 25.9593 27.9529 24.1901 28.8965 23.7773Z" fill="#280074" stroke="#4D0063" stroke-miterlimit="10"/>
<path d="M28.8965 23.7773C29.4272 26.549 30.3708 29.4387 31.2554 31.7386C30.7246 31.7386 29.7221 31.7976 29.1914 32.8591C28.4837 34.2744 27.1273 37.282 26.2427 39.2281H25.4761V30.854C25.4171 25.9593 27.9529 24.1901 28.8965 23.7773Z" fill="#280074"/>
<path d="M35.5602 1.89868C33.0834 5.08317 28.3066 12.0419 28.3066 20.1211C28.3066 27.1388 33.2013 36.6923 33.2013 36.6923H37.1525H41.0446C41.0446 36.6923 45.9393 27.1388 45.9393 20.1211C45.9393 12.1009 41.2215 5.14215 38.6857 1.95765C37.8012 0.778204 36.5038 0.778204 35.5602 1.89868Z" fill="white" stroke="#4D0063" stroke-miterlimit="10"/>
<path d="M41.2215 36.6923H33.2603V38.5204H41.2215V36.6923Z" fill="#280074" stroke="#4D0063" stroke-miterlimit="10"/>
<path d="M41.2218 38.5204C41.2218 38.5204 45.2319 42.5895 43.7576 48.2508C43.7576 48.2508 42.8141 45.3612 41.5167 44.1227C41.5167 44.1227 42.932 47.0124 40.2193 50.9635C37.5066 54.9147 35.2656 57.0966 36.681 58.8658C36.681 58.8658 30.9017 50.1379 33.7913 44.3586C33.7913 44.3586 31.5504 47.9559 31.6683 50.3738C31.6683 50.3738 30.0171 43.2971 33.2606 38.5794H41.2218V38.5204Z" fill="#EB5757" stroke="#4D0063" stroke-miterlimit="10"/>
<path d="M37.0937 55.2685V38.5204H33.2015C29.958 43.2971 31.6092 50.3148 31.6092 50.3148C31.4323 47.9559 33.7322 44.2997 33.7322 44.2997C31.1964 49.3713 35.2655 56.6838 36.386 58.453C35.9142 57.5684 36.327 56.5659 37.0937 55.2685Z" fill="#EB5757"/>
<path d="M34.5578 38.5204C34.5578 38.5204 32.9656 39.8178 33.3784 42.4125C33.3784 42.4125 33.6143 41.528 34.7937 40.9972C34.7937 40.9972 34.204 45.774 36.0911 48.3687C36.0911 48.3687 36.2091 44.4766 37.8013 43.8869C39.4525 43.2971 41.1038 41.1152 40.1602 38.5204H34.5578V38.5204Z" fill="#EB7A2C" stroke="#4D0063" stroke-miterlimit="10"/>
<path d="M37.0936 38.5204H34.5578C34.5578 38.5204 32.9656 39.8178 33.3784 42.4125C33.3784 42.4125 33.6143 41.528 34.7937 40.9972C34.7937 40.9972 34.204 45.774 36.0911 48.3687C36.0911 48.3687 36.1501 45.715 37.0936 44.4766V38.5204V38.5204Z" fill="#EB7A2C"/>
<path d="M37.1525 1.07312C36.6217 1.13209 36.1499 1.36798 35.6782 1.89873C33.1424 5.08323 28.3066 12.0419 28.3066 20.1211C28.3066 27.1388 33.2603 36.6923 33.2603 36.6923H37.1525V1.07312Z" fill="#C3C5CA"/>
<path d="M37.1526 6.43959C38.6859 6.43959 40.0422 6.08576 41.2217 5.43706C40.3371 4.02173 39.4525 2.84229 38.7448 1.9577C37.8013 0.778259 36.5629 0.778259 35.6193 1.9577C34.9116 2.84229 34.0271 4.02173 33.0835 5.49603C34.204 6.08576 35.6193 6.43959 37.1526 6.43959Z" fill="#EB5757" stroke="#4D0063" stroke-miterlimit="10"/>
<path d="M36.9166 1.07312C36.8576 1.07312 36.8576 1.07312 36.9166 1.07312C36.8576 1.07312 36.8576 1.07312 36.7986 1.07312H36.7397H36.6807H36.6217H36.5627H36.5038H36.4448H36.3858H36.3269H36.2679H36.2089H36.1499H36.091C36.091 1.07312 36.032 1.07312 36.032 1.13209C36.032 1.13209 35.973 1.13209 35.973 1.19106C35.973 1.19106 35.973 1.19106 35.9141 1.25004C35.9141 1.25004 35.8551 1.25004 35.8551 1.30901C35.8551 1.30901 35.7961 1.30901 35.7961 1.36798C35.7961 1.36798 35.7371 1.36798 35.7371 1.42695C35.7371 1.42695 35.6782 1.42695 35.6782 1.48593C35.6782 1.48593 35.6192 1.48593 35.6192 1.5449L35.5602 1.60387C35.5602 1.60387 35.5602 1.60387 35.5012 1.66284L35.4423 1.72181C35.4423 1.72181 35.4423 1.72181 35.3833 1.78079L35.3243 1.83976C35.3243 1.83976 35.3243 1.83976 35.3243 1.89873C35.2654 1.9577 35.2654 1.9577 35.2064 2.01668C35.2064 2.01668 35.2064 2.01668 35.2064 2.07565C35.2064 2.13462 35.1474 2.13462 35.1474 2.19359L35.0884 2.25256C35.0884 2.31154 35.0295 2.31154 35.0295 2.37051L34.9705 2.42948C34.9705 2.42948 34.9115 2.48845 34.9115 2.54743C34.9115 2.54743 34.8526 2.6064 34.8526 2.66537C34.8526 2.72434 34.7936 2.72434 34.7936 2.78331C34.7936 2.84229 34.7346 2.84229 34.7346 2.90126L34.6756 2.96023C34.6756 3.0192 34.6167 3.0192 34.6167 3.07817L34.5577 3.13715C34.4987 3.19612 34.4987 3.25509 34.4397 3.31406C34.4397 3.31406 34.4397 3.37304 34.3808 3.37304C34.3218 3.43201 34.2628 3.49098 34.2039 3.60892C34.2039 3.60892 34.2039 3.60892 34.2039 3.6679C34.1449 3.72687 34.1449 3.78584 34.0859 3.84481C34.2628 3.72687 34.2039 3.72687 34.2039 3.72687C34.1449 3.78584 34.1449 3.84481 34.0859 3.90379L34.0269 3.96276C33.968 4.02173 33.968 4.0807 33.909 4.13967L33.85 4.19865C33.7911 4.25762 33.7911 4.31659 33.7321 4.37556L33.6731 4.43454C33.6141 4.49351 33.6141 4.55248 33.5552 4.61145C33.5552 4.61145 33.5552 4.67042 33.4962 4.67042C33.4372 4.7294 33.4372 4.78837 33.3782 4.84734C33.3782 4.84734 33.3782 4.84734 33.3782 4.90631C33.2603 5.08323 33.1424 5.26015 33.0244 5.43706C34.1449 6.02678 35.5012 6.38062 36.9756 6.43959V1.07312C36.9756 1.07312 36.9756 1.07312 36.9166 1.07312Z" fill="#EB5757"/>
<path d="M42.755 18.8827C42.755 22.0082 40.2192 24.485 37.1527 24.485C34.0271 24.485 31.5503 21.9492 31.5503 18.8827C31.5503 15.7571 34.0861 13.2803 37.1527 13.2803C40.2192 13.2213 42.755 15.7571 42.755 18.8827Z" fill="#EB5757" stroke="#4D0063" stroke-miterlimit="10"/>
<path d="M37.1525 13.2213C34.027 13.2213 31.4912 15.7571 31.4912 18.8237C31.4912 21.9492 34.027 24.426 37.0936 24.426V13.2213H37.1525Z" fill="#EB5757"/>
<path d="M41.2808 18.8827C41.2808 21.1826 39.3937 23.0697 37.0938 23.0697C34.7939 23.0697 32.9067 21.1826 32.9067 18.8827C32.9067 16.5828 34.7939 14.6957 37.0938 14.6957C39.4527 14.6957 41.2808 16.5828 41.2808 18.8827Z" fill="#280074" stroke="#4D0063" stroke-miterlimit="10"/>
<path d="M37.1528 14.6957C34.8529 14.6957 32.9658 16.5828 32.9658 18.8827C32.9658 21.1826 34.8529 23.0697 37.1528 23.0697V14.6957Z" fill="#280074"/>
<path d="M36.7988 40.6434C36.8578 40.8793 36.8578 41.1742 36.9168 41.41H37.5655C37.6244 41.1742 37.6834 40.8793 37.6834 40.6434C37.8013 39.9357 37.9193 39.1691 37.9783 38.4614C38.0962 36.9871 38.1552 35.5718 38.1552 34.0975C38.1552 32.6232 38.0962 31.2078 37.9783 29.7335C37.9193 29.0259 37.8013 28.2592 37.6834 27.5516C37.6244 27.2567 37.5655 26.9619 37.5065 26.667H36.9168C36.8578 26.9619 36.7988 27.2567 36.7398 27.5516C36.6219 28.2592 36.504 29.0259 36.445 29.7335C36.327 31.2078 36.2681 32.6232 36.2681 34.0975C36.2681 35.5718 36.327 36.9871 36.445 38.4614C36.5629 39.2281 36.6809 39.9357 36.7988 40.6434Z" fill="#280074" stroke="#4D0063" stroke-miterlimit="10"/>
<path d="M37.0937 26.667H36.9168C36.8578 26.9619 36.7988 27.2567 36.7398 27.5516C36.6219 28.2592 36.504 29.0259 36.445 29.7335C36.327 31.2078 36.2681 32.6232 36.2681 34.0975C36.2681 35.5718 36.327 36.9871 36.445 38.4614C36.504 39.1691 36.6219 39.9357 36.7398 40.6434C36.7988 40.8793 36.7988 41.1742 36.8578 41.41H37.0347V26.667H37.0937Z" fill="#280074"/>
<path d="M0 70.4833H112.224" stroke="#4D0063" stroke-miterlimit="10"/>
</svg>
