<svg width="170" height="56" viewBox="0 0 170 56" fill="none" xmlns="http://www.w3.org/2000/svg">
<path d="M73.3272 12.0232C72.9772 12.0232 72.6872 12.1732 72.4472 12.4832C72.2072 12.7932 72.0872 13.1832 72.0872 13.6532C72.0872 14.1432 72.2172 14.5432 72.4672 14.8532C72.7172 15.1632 73.0372 15.3132 73.3972 15.3132C73.7472 15.3132 74.0372 15.1532 74.2772 14.8432C74.5172 14.5332 74.6372 14.1432 74.6372 13.6732C74.6372 13.1832 74.5072 12.7732 74.2572 12.4732C74.0172 12.1732 73.7072 12.0232 73.3272 12.0232Z" fill="#D7C2FF"/>
<path d="M80.1971 12.0535C80.0971 12.0535 79.9571 12.0635 79.7771 12.0835C79.7971 12.5535 79.8171 13.0535 79.8171 13.5635C79.8171 14.1335 79.8271 14.6935 79.8571 15.2435C80.0071 15.2735 80.1671 15.2935 80.3171 15.2935C80.8271 15.2935 81.2071 15.1335 81.4471 14.8235C81.6871 14.5035 81.8171 14.1235 81.8171 13.6735C81.8171 13.2235 81.6871 12.8335 81.4171 12.5235C81.1471 12.2035 80.7371 12.0535 80.1971 12.0535Z" fill="#D7C2FF"/>
<path d="M91.8071 12.0037C91.6371 12.0037 91.4571 12.0237 91.2771 12.0537C91.3071 12.5037 91.3171 13.0037 91.3171 13.5737C91.3771 13.5737 91.4471 13.5837 91.5271 13.5837C92.3871 13.5837 92.8171 13.3137 92.8171 12.7637C92.8171 12.2637 92.4871 12.0037 91.8071 12.0037Z" fill="#D7C2FF"/>
<path d="M87.2971 11.9934C87.2971 12.0834 87.0871 12.7434 86.6671 13.9734H87.9571C87.5571 12.7534 87.3471 12.0934 87.3471 11.9934H87.2971Z" fill="#D7C2FF"/>
<path d="M53.7871 11.9934C53.7871 12.0834 53.5771 12.7434 53.1571 13.9734H54.4471C54.0471 12.7534 53.8371 12.0934 53.8371 11.9934H53.7871Z" fill="#676099"/>
<path d="M68.3072 12.0134C68.0872 12.0134 67.8872 12.0334 67.7172 12.0634C67.7472 12.4334 67.7572 12.9034 67.7572 13.4934C67.8872 13.4934 67.9972 13.5034 68.0872 13.5034C68.8372 13.5034 69.2172 13.2434 69.2172 12.7234C69.2072 12.2434 68.9072 12.0134 68.3072 12.0134Z" fill="#D7C2FF"/>
<path d="M63.2171 12.0535C63.1171 12.0535 62.9771 12.0635 62.7971 12.0835C62.8171 12.5535 62.8371 13.0535 62.8371 13.5635C62.8371 14.1335 62.8471 14.6935 62.8771 15.2435C63.0271 15.2735 63.1871 15.2935 63.3371 15.2935C63.8471 15.2935 64.2271 15.1335 64.4671 14.8235C64.7071 14.5035 64.8371 14.1235 64.8371 13.6735C64.8371 13.2235 64.7071 12.8335 64.4371 12.5235C64.1671 12.2035 63.7671 12.0535 63.2171 12.0535Z" fill="#D7C2FF"/>
<path d="M102.647 12.0232C102.297 12.0232 102.007 12.1732 101.767 12.4832C101.527 12.7932 101.407 13.1832 101.407 13.6532C101.407 14.1432 101.537 14.5432 101.787 14.8532C102.037 15.1632 102.357 15.3132 102.717 15.3132C103.067 15.3132 103.357 15.1532 103.597 14.8432C103.837 14.5332 103.957 14.1432 103.957 13.6732C103.957 13.1832 103.827 12.7732 103.577 12.4732C103.337 12.1732 103.017 12.0232 102.647 12.0232Z" fill="#D7C2FF"/>
<path d="M96.0671 12.0037C95.8971 12.0037 95.7171 12.0237 95.5371 12.0537C95.5671 12.5037 95.5771 13.0037 95.5771 13.5737C95.6371 13.5737 95.7071 13.5837 95.7871 13.5837C96.6471 13.5837 97.0771 13.3137 97.0771 12.7637C97.0771 12.2637 96.7371 12.0037 96.0671 12.0037Z" fill="#D7C2FF"/>
<path d="M86.8171 28.6433C85.8271 28.6433 84.9671 29.0133 84.2371 29.7533C83.5071 30.4933 83.1471 31.4733 83.1471 32.7033C83.1471 33.9233 83.5071 34.9033 84.2371 35.6533C84.9671 36.3933 85.8271 36.7633 86.8171 36.7633C87.8071 36.7633 88.6671 36.3933 89.3971 35.6533C90.1271 34.9133 90.4871 33.9333 90.4871 32.7033C90.4871 31.4833 90.1271 30.5033 89.3971 29.7533C88.6671 29.0133 87.8071 28.6433 86.8171 28.6433Z" fill="#D7C2FF"/>
<path d="M74.5571 28.6433C73.5671 28.6433 72.7071 29.0133 71.9771 29.7533C71.2471 30.4933 70.8871 31.4733 70.8871 32.7033C70.8871 33.9233 71.2471 34.9033 71.9771 35.6533C72.7071 36.3933 73.5571 36.7633 74.5571 36.7633C75.5471 36.7633 76.4071 36.3933 77.1371 35.6533C77.8671 34.9133 78.2271 33.9333 78.2271 32.7033C78.2271 31.4833 77.8671 30.5033 77.1371 29.7533C76.4071 29.0133 75.5471 28.6433 74.5571 28.6433Z" fill="#D7C2FF"/>
<path d="M132.757 23.9236H129.227V29.6536H132.757C133.647 29.6536 134.357 29.3536 134.887 28.7636C135.427 28.1636 135.687 27.5136 135.687 26.7936C135.687 26.0736 135.417 25.4136 134.887 24.8236C134.357 24.2236 133.637 23.9236 132.757 23.9236Z" fill="#D7C2FF"/>
<path d="M145.547 33.4133C145.027 33.8533 144.767 34.3733 144.767 34.9733C144.767 35.5233 145.007 35.9633 145.477 36.2833C145.947 36.6033 146.497 36.7633 147.107 36.7633C147.977 36.7633 148.767 36.4333 149.477 35.7933C150.187 35.1433 150.547 34.3733 150.547 33.4933C149.947 33.0033 149.057 32.7633 147.867 32.7633C146.837 32.7533 146.067 32.9733 145.547 33.4133Z" fill="#D7C2FF"/>
<path d="M115.377 28.6433C114.597 28.6433 113.917 28.8833 113.347 29.3733C112.777 29.8633 112.377 30.5233 112.167 31.3433H118.677C118.627 30.7033 118.337 30.0933 117.797 29.5133C117.257 28.9333 116.447 28.6433 115.377 28.6433Z" fill="#D7C2FF"/>
<path d="M98.9871 28.6433C98.0071 28.6433 97.1671 29.0133 96.4671 29.7533C95.7671 30.4933 95.4171 31.4733 95.4171 32.7033C95.4171 33.9233 95.7671 34.9033 96.4671 35.6533C97.1671 36.3933 98.0071 36.7633 98.9871 36.7633C99.9771 36.7633 100.827 36.3933 101.517 35.6633C102.217 34.9333 102.557 33.9433 102.557 32.7033C102.557 31.4633 102.207 30.4833 101.517 29.7433C100.827 29.0133 99.9871 28.6433 98.9871 28.6433Z" fill="#D7C2FF"/>
<path d="M161.737 0.263428H7.75711C3.63711 0.263428 0.287109 3.60343 0.287109 7.73343V48.0534C0.287109 52.1734 3.62711 55.5234 7.75711 55.5234H161.737C165.857 55.5234 169.207 52.1834 169.207 48.0534V7.73343C169.197 3.61343 165.857 0.263428 161.737 0.263428ZM94.6171 11.3634H95.2371C95.3271 11.3634 95.4971 11.3634 95.7371 11.3534C95.9871 11.3434 96.1971 11.3434 96.3871 11.3434C96.8371 11.3434 97.2171 11.4434 97.5271 11.6534C97.8371 11.8534 97.9871 12.1634 97.9871 12.5834C97.9871 13.1534 97.7771 13.5634 97.3571 13.8334C96.9371 14.1034 96.4271 14.2334 95.8071 14.2334C95.6971 14.2334 95.6171 14.2334 95.5671 14.2234C95.5671 14.6634 95.5771 15.2534 95.6071 15.9834H94.6071C94.6371 15.3034 94.6571 14.4934 94.6571 13.5634C94.6671 12.7134 94.6471 11.9734 94.6171 11.3634ZM85.9271 13.7134C86.4771 12.2934 86.7571 11.5134 86.7571 11.3634H88.0971C88.0971 11.4934 88.3471 12.2734 88.8471 13.6734C89.3471 15.0834 89.5971 15.8534 89.5971 15.9734H88.4571C88.4571 15.8134 88.3471 15.3734 88.1371 14.6434H86.4971C86.2771 15.3634 86.1671 15.8034 86.1671 15.9734H85.0971C85.0971 15.8834 85.3771 15.1334 85.9271 13.7134ZM78.8771 11.3634H79.4971C79.5971 11.3634 79.7471 11.3634 79.9471 11.3534C80.1471 11.3434 80.2771 11.3434 80.3371 11.3434C81.1871 11.3434 81.8071 11.5534 82.1971 11.9834C82.5771 12.4134 82.7771 12.9234 82.7771 13.5134C82.7771 14.1834 82.5571 14.7734 82.1271 15.2734C81.6971 15.7734 81.0971 16.0234 80.3171 16.0234C79.9671 16.0234 79.4871 16.0134 78.8671 15.9834C78.8971 15.2734 78.9171 14.4634 78.9171 13.5634C78.9171 12.7034 78.9071 11.9634 78.8771 11.3634ZM76.6271 11.3634H77.6271C77.5971 11.9634 77.5771 12.6934 77.5771 13.5634C77.5771 14.4534 77.5971 15.2634 77.6271 15.9834H76.6271C76.6571 15.2534 76.6771 14.4434 76.6771 13.5634C76.6771 12.7034 76.6571 11.9634 76.6271 11.3634ZM71.7771 11.9734C72.2171 11.4934 72.7671 11.2534 73.4271 11.2534C74.0471 11.2534 74.5771 11.4734 74.9971 11.9134C75.4171 12.3534 75.6271 12.9134 75.6271 13.5834C75.6271 14.3134 75.4071 14.9134 74.9571 15.3934C74.5171 15.8734 73.9671 16.1134 73.3071 16.1134C72.6871 16.1134 72.1571 15.8934 71.7371 15.4534C71.3171 15.0134 71.1071 14.4534 71.1071 13.7834C71.1071 13.0534 71.3371 12.4434 71.7771 11.9734ZM61.8971 11.3634H62.5171C62.6171 11.3634 62.7671 11.3634 62.9671 11.3534C63.1671 11.3434 63.2971 11.3434 63.3571 11.3434C64.2071 11.3434 64.8271 11.5534 65.2171 11.9834C65.5971 12.4134 65.7971 12.9234 65.7971 13.5134C65.7971 14.1834 65.5771 14.7734 65.1471 15.2734C64.7171 15.7734 64.1171 16.0234 63.3371 16.0234C62.9871 16.0234 62.5071 16.0134 61.8871 15.9834C61.9171 15.2734 61.9371 14.4634 61.9371 13.5634C61.9471 12.7034 61.9271 11.9634 61.8971 11.3634ZM56.8571 11.3634H57.9071C57.9071 11.4934 58.1971 11.9934 58.7871 12.8634C59.4071 13.7934 59.7671 14.4234 59.8571 14.7534H59.9071C59.8471 14.2234 59.8171 13.7534 59.8171 13.3334C59.8171 12.6934 59.7971 12.0334 59.7671 11.3634H60.6571C60.6271 11.9534 60.6071 12.6834 60.6071 13.5634C60.6071 14.4534 60.6271 15.2534 60.6571 15.9834H59.7771C59.7771 15.8834 59.4471 15.3734 58.7971 14.4434C58.1171 13.4634 57.7271 12.8034 57.6371 12.4434H57.5771C57.6371 12.9634 57.6671 13.4334 57.6671 13.8434C57.6671 14.4234 57.6871 15.1434 57.7171 15.9834H56.8471C56.8871 15.2534 56.8971 14.4434 56.8971 13.5634C56.9071 12.7034 56.8871 11.9634 56.8571 11.3634ZM52.4171 13.7134C52.9671 12.2934 53.2471 11.5134 53.2471 11.3634H54.5871C54.5871 11.4934 54.8371 12.2734 55.3371 13.6734C55.8371 15.0834 56.0871 15.8534 56.0871 15.9734H54.9471C54.9471 15.8134 54.8371 15.3734 54.6271 14.6434H52.9871C52.7671 15.3634 52.6571 15.8034 52.6571 15.9734H51.5871C51.5871 15.8834 51.8671 15.1334 52.4171 13.7134ZM15.0071 12.0734C22.1871 16.0934 29.3671 20.1234 36.5471 24.1334C36.8771 24.3134 36.8671 24.4234 36.6171 24.6734C35.0071 26.2534 33.4171 27.8434 31.8271 29.4434C31.6571 29.6134 31.5471 29.7134 31.3171 29.4834C25.6071 23.6534 19.8871 17.8434 14.1671 12.0234C14.1171 11.9734 14.0771 11.9134 13.9871 11.7934C14.4171 11.7834 14.7171 11.9134 15.0071 12.0734ZM12.7971 47.5534C12.1971 47.0934 11.9671 46.4734 11.9671 45.7334C11.9671 42.6234 11.9671 39.5234 11.9571 36.4134C11.9571 34.2134 11.9571 32.0234 11.9571 29.8234H11.9671C11.9671 24.5834 11.9671 19.3334 11.9671 14.0934C11.9671 13.4534 12.0871 12.8634 12.5471 12.3734C12.7271 12.1834 12.8471 12.1334 13.0671 12.3534C16.5971 15.9534 20.1271 19.5434 23.6671 23.1334C25.9571 25.4634 28.2471 27.7834 30.5471 30.1034C30.7671 30.3234 30.7871 30.4434 30.5571 30.6834C24.9371 36.2734 19.3171 41.8734 13.7171 47.4834C13.3671 47.8434 13.1271 47.8034 12.7971 47.5534ZM35.9271 36.1634C29.2371 39.8234 22.5471 43.5034 15.8671 47.1734C15.7571 47.2334 15.6571 47.3334 15.5971 47.3734C20.8071 42.1034 26.0271 36.8434 31.2271 31.5634C31.5471 31.2334 31.6971 31.2834 31.9871 31.5834C33.3071 32.9634 34.6471 34.3134 35.9971 35.6634C36.2271 35.8934 36.2471 35.9834 35.9271 36.1634ZM44.6371 31.2934C44.3271 31.5234 43.9771 31.7134 43.6371 31.9034C41.6171 33.0234 39.5871 34.1334 37.5671 35.2534C37.2971 35.4034 37.1371 35.4034 36.9071 35.1634C35.4671 33.6834 34.0171 32.2034 32.5671 30.7434C32.3571 30.5334 32.3471 30.4134 32.5671 30.2034C34.2671 28.5334 35.9571 26.8434 37.6371 25.1534C37.8371 24.9534 37.9771 24.9334 38.2271 25.0734C40.2271 26.2034 42.2371 27.3234 44.2371 28.4434C44.8571 28.7934 45.3371 29.2434 45.3671 29.9734C45.3371 30.5734 45.0671 30.9834 44.6371 31.2934ZM65.8671 36.2534C64.3271 37.8734 62.3171 38.6834 59.8371 38.6834C57.4671 38.6834 55.4571 37.8634 53.7971 36.2234C52.1371 34.5834 51.3071 32.5434 51.3071 30.1134C51.3071 27.6834 52.1371 25.6434 53.7971 24.0034C55.4571 22.3634 57.4671 21.5434 59.8371 21.5434C61.0171 21.5434 62.1371 21.7734 63.2071 22.2334C64.2771 22.6934 65.1371 23.3034 65.7771 24.0634L64.3371 25.5034C63.2471 24.2034 61.7571 23.5534 59.8471 23.5534C58.1171 23.5534 56.6271 24.1634 55.3671 25.3734C54.1071 26.5834 53.4771 28.1634 53.4771 30.1034C53.4771 32.0434 54.1071 33.6234 55.3671 34.8334C56.6271 36.0434 58.1171 36.6534 59.8471 36.6534C61.6771 36.6534 63.2071 36.0434 64.4371 34.8234C65.2271 34.0334 65.6871 32.9234 65.8171 31.5034H59.8571V29.5434H67.8171C67.8971 29.9734 67.9271 30.3834 67.9271 30.7834C67.9071 33.0734 67.2271 34.8934 65.8671 36.2534ZM67.7571 14.1334C67.7571 14.7434 67.7671 15.3534 67.7871 15.9734H66.7971C66.8271 15.2634 66.8471 14.4534 66.8471 13.5534C66.8471 12.6934 66.8271 11.9534 66.7971 11.3534H67.4071C67.4771 11.3534 67.6271 11.3534 67.8571 11.3434C68.0871 11.3334 68.2871 11.3334 68.4871 11.3334C69.5771 11.3334 70.1171 11.7034 70.1171 12.4434C70.1171 13.0334 69.8071 13.4434 69.1871 13.6734V13.7234C69.4271 13.7934 69.6371 13.9734 69.8171 14.2834C69.9971 14.5934 70.2371 15.1534 70.5471 15.9634H69.4971C69.2271 15.1234 69.0171 14.6134 68.8671 14.4134C68.7171 14.2134 68.4871 14.1234 68.1571 14.1234C68.0171 14.1334 67.8871 14.1334 67.7571 14.1334ZM78.6971 36.9834C77.6071 38.1234 76.2271 38.6934 74.5471 38.6934C72.8671 38.6934 71.4871 38.1234 70.3971 36.9834C69.3071 35.8434 68.7671 34.4234 68.7671 32.7034C68.7671 30.9934 69.3071 29.5634 70.3971 28.4234C71.4771 27.2834 72.8671 26.7134 74.5471 26.7134C76.2271 26.7134 77.6071 27.2834 78.6971 28.4234C79.7771 29.5634 80.3271 30.9834 80.3271 32.7034C80.3271 34.4134 79.7871 35.8434 78.6971 36.9834ZM90.9671 36.9834C89.8771 38.1234 88.4971 38.6934 86.8171 38.6934C85.1371 38.6934 83.7571 38.1234 82.6671 36.9834C81.5771 35.8434 81.0371 34.4234 81.0371 32.7034C81.0371 30.9934 81.5771 29.5634 82.6671 28.4234C83.7471 27.2834 85.1371 26.7134 86.8171 26.7134C88.4971 26.7134 89.8771 27.2834 90.9671 28.4234C92.0471 29.5634 92.5971 30.9834 92.5971 32.7034C92.5971 34.4134 92.0471 35.8434 90.9671 36.9834ZM91.5571 14.2234C91.4471 14.2234 91.3671 14.2234 91.3171 14.2134C91.3171 14.6534 91.3271 15.2434 91.3571 15.9734H90.3571C90.3871 15.2934 90.4071 14.4834 90.4071 13.5534C90.4071 12.7034 90.3871 11.9634 90.3571 11.3534H90.9771C91.0671 11.3534 91.2371 11.3534 91.4771 11.3434C91.7271 11.3334 91.9371 11.3334 92.1271 11.3334C92.5771 11.3334 92.9571 11.4334 93.2671 11.6434C93.5771 11.8434 93.7271 12.1534 93.7271 12.5734C93.7271 13.1434 93.5171 13.5534 93.0971 13.8234C92.6871 14.0934 92.1671 14.2234 91.5571 14.2234ZM104.587 37.7434C104.587 39.6734 104.027 41.1334 102.917 42.1334C101.797 43.1334 100.437 43.6334 98.8371 43.6334C97.5071 43.6334 96.4271 43.3034 95.5771 42.6334C94.7371 41.9634 94.1371 41.2034 93.7671 40.3534L95.6971 39.5534C95.9071 40.1634 96.3071 40.6734 96.8771 41.0934C97.4471 41.5034 98.1071 41.7134 98.8371 41.7134C99.9971 41.7134 100.907 41.3634 101.577 40.6734C102.247 39.9734 102.577 39.0334 102.577 37.8434V36.7634H102.487C102.117 37.3134 101.597 37.7734 100.927 38.1434C100.257 38.5134 99.4971 38.6934 98.6571 38.6934C97.2071 38.6934 95.9471 38.1234 94.8971 36.9734C93.8471 35.8234 93.3171 34.4034 93.3171 32.7134C93.3171 31.0134 93.8471 29.5934 94.8971 28.4534C95.9471 27.3034 97.2071 26.7334 98.6571 26.7334C99.4971 26.7334 100.257 26.9134 100.927 27.2834C101.597 27.6534 102.117 28.1134 102.487 28.6634H102.577V27.1034H104.597V37.7434H104.587ZM104.277 15.3934C103.837 15.8734 103.287 16.1134 102.627 16.1134C102.007 16.1134 101.477 15.8934 101.057 15.4534C100.637 15.0134 100.427 14.4534 100.427 13.7834C100.427 13.0534 100.647 12.4534 101.097 11.9734C101.537 11.4934 102.087 11.2534 102.747 11.2534C103.367 11.2534 103.897 11.4734 104.317 11.9134C104.737 12.3534 104.947 12.9134 104.947 13.5834C104.947 14.3134 104.727 14.9134 104.277 15.3934ZM108.687 38.3234H106.577V21.9034H108.687V38.3234ZM109.757 15.9834H108.877C108.877 15.8834 108.547 15.3734 107.897 14.4434C107.217 13.4634 106.827 12.8034 106.737 12.4434H106.677C106.737 12.9634 106.767 13.4334 106.767 13.8434C106.767 14.4234 106.787 15.1434 106.817 15.9834H105.947C105.987 15.2534 105.997 14.4434 105.997 13.5634C105.997 12.7034 105.977 11.9634 105.947 11.3634H106.997C106.997 11.4934 107.287 11.9934 107.877 12.8634C108.497 13.7934 108.857 14.4234 108.947 14.7534H108.997C108.937 14.2234 108.907 13.7534 108.907 13.3334C108.907 12.6934 108.887 12.0334 108.857 11.3634H109.747C109.717 11.9534 109.697 12.6834 109.697 13.5634C109.707 14.4534 109.717 15.2534 109.757 15.9834ZM120.907 33.0934H112.037C112.097 34.2234 112.477 35.1234 113.167 35.7734C113.867 36.4334 114.677 36.7634 115.607 36.7634C117.117 36.7634 118.147 36.1234 118.677 34.8334L120.557 35.6134C120.187 36.4834 119.587 37.2134 118.747 37.8034C117.907 38.3934 116.877 38.6834 115.657 38.6834C113.957 38.6834 112.577 38.1134 111.517 36.9834C110.457 35.8534 109.927 34.4234 109.927 32.6934C109.927 31.0534 110.447 29.6534 111.477 28.4734C112.507 27.2934 113.827 26.7134 115.427 26.7134C117.097 26.7134 118.427 27.2534 119.427 28.3434C120.427 29.4234 120.927 30.8834 120.927 32.7034L120.907 33.0934ZM136.317 30.2834C135.297 31.2034 134.097 31.6734 132.707 31.6734H129.227V38.3234H127.117V21.9034H132.707C134.097 21.9034 135.297 22.3634 136.317 23.2934C137.337 24.2234 137.837 25.3834 137.837 26.7934C137.847 28.1934 137.337 29.3634 136.317 30.2834ZM141.327 38.3234H139.217V21.9034H141.327V38.3234ZM150.537 38.3234V36.7634H150.447C149.607 38.0434 148.377 38.6934 146.757 38.6934C145.567 38.6934 144.567 38.3534 143.767 37.6634C142.967 36.9734 142.567 36.0634 142.567 34.9334C142.567 33.7134 143.037 32.7534 143.987 32.0534C144.937 31.3534 146.107 31.0134 147.497 31.0134C148.737 31.0134 149.747 31.2434 150.547 31.7034V31.3834C150.547 30.5534 150.267 29.8934 149.697 29.4034C149.127 28.9034 148.437 28.6534 147.607 28.6534C146.997 28.6534 146.437 28.8034 145.947 29.0934C145.447 29.3834 145.107 29.7834 144.927 30.2834L142.997 29.4534C143.257 28.7834 143.767 28.1634 144.537 27.5834C145.297 27.0134 146.307 26.7234 147.567 26.7234C149.007 26.7234 150.197 27.1434 151.147 27.9834C152.097 28.8234 152.567 30.0134 152.567 31.5334V38.3234H150.537ZM157.147 43.2734H154.967L157.577 37.6134L152.947 27.0934H155.237L158.587 35.1634H158.637L161.887 27.0934H164.177L157.147 43.2734Z" fill="#D7C2FF"/>
</svg>
