<svg width="14" height="15" viewBox="0 0 14 15" fill="none" xmlns="http://www.w3.org/2000/svg">
<path d="M13.2103 4.80852L13.2105 4.81943L13.2111 4.83032C13.2521 5.55575 13.2523 5.78221 13.2538 7.67441L13.2538 7.68079C13.2538 7.68092 13.2538 7.68105 13.2538 7.68118C13.2538 9.57344 13.2441 9.80222 13.2123 10.5387L13.2121 10.5387L13.2119 10.5506C13.2017 11.0767 13.1062 11.5942 12.9285 12.0845C12.7782 12.4841 12.5498 12.8459 12.2585 13.1473C11.9674 13.4485 11.62 13.6828 11.2389 13.8362C10.7692 14.0183 10.2735 14.1164 9.77275 14.1266L9.7627 14.1268L9.75266 14.1274C9.05423 14.1698 8.83514 14.1699 7.00019 14.1699C5.17228 14.1699 4.95202 14.1599 4.24052 14.127L4.24052 14.127L4.23444 14.1267C3.73183 14.1096 3.23538 14.0039 2.76637 13.8138L2.76443 13.813C2.38221 13.66 2.03377 13.4256 1.74192 13.1238C1.45063 12.8226 1.22217 12.461 1.07199 12.0614C0.894172 11.5701 0.798671 11.0525 0.788492 10.5273L0.788312 10.518L0.787787 10.5087C0.746728 9.78343 0.746582 9.55588 0.746582 7.6575C0.746582 5.76568 0.756304 5.5369 0.788121 4.79958L0.788275 4.79959L0.788502 4.78716C0.798077 4.26323 0.894021 3.74513 1.07195 3.25526C1.22186 2.85546 1.45019 2.49356 1.74145 2.19217C2.03256 1.89094 2.38008 1.65682 2.76132 1.5037C3.23101 1.32158 3.72667 1.22322 4.22739 1.2125L4.23692 1.21229L4.24643 1.21172C4.94517 1.17008 5.16455 1.16992 6.99944 1.16992C8.82779 1.16992 9.04787 1.17921 9.75834 1.21208L9.75833 1.21223L9.77082 1.2125C10.2717 1.22314 10.7676 1.3215 11.2375 1.50368C11.6187 1.65692 11.9662 1.8911 12.2573 2.19233C12.5486 2.49375 12.777 2.85566 12.927 3.25547C13.1075 3.75191 13.2035 4.27744 13.2103 4.80852ZM3.02738 7.65362C3.02738 9.89578 4.78716 11.7417 6.99494 11.7417C8.05282 11.7417 9.06377 11.3067 9.80642 10.5382C10.5485 9.77038 10.9625 8.73244 10.9625 7.65362C10.9625 6.76297 10.6803 5.90018 10.1643 5.19422C10.2999 5.24287 10.4465 5.26949 10.6005 5.26949C11.3392 5.26949 11.9083 4.65498 11.9083 3.93281C11.9083 3.75965 11.8754 3.58781 11.811 3.42696C11.7466 3.26609 11.6518 3.11882 11.5312 2.994C11.4105 2.86914 11.2663 2.76916 11.1064 2.70061C10.9464 2.63205 10.7744 2.59652 10.6001 2.59652C10.4259 2.59652 10.2538 2.63205 10.0939 2.70061C9.93396 2.76916 9.78978 2.86915 9.66912 2.994C9.54849 3.11882 9.45367 3.26608 9.38927 3.42696C9.32488 3.58781 9.29194 3.75965 9.29194 3.93281C9.29194 4.08695 9.31784 4.23619 9.36577 4.37559C8.68622 3.85382 7.85613 3.56553 6.99494 3.56553C4.78716 3.56553 3.02738 5.41146 3.02738 7.65362ZM8.74733 7.65358C8.74733 8.68091 7.94676 9.48432 6.99487 9.48432C6.04299 9.48432 5.24242 8.68091 5.24242 7.65358C5.24242 6.62624 6.04299 5.82283 6.99487 5.82283C7.94676 5.82283 8.74733 6.62624 8.74733 7.65358Z" fill="#616161" stroke="#616161"/>
</svg>
