<svg width="14" height="12" viewBox="0 0 14 12" fill="none" xmlns="http://www.w3.org/2000/svg">
<path d="M13.4208 1.95918C12.9186 2.18228 12.3857 2.32888 11.8401 2.39407C12.415 2.04915 12.8455 1.50763 13.052 0.869723C12.5103 1.19134 11.9174 1.41728 11.299 1.53765C10.9213 1.13561 10.4314 0.856363 9.89305 0.736113C9.35466 0.615862 8.79255 0.660162 8.27964 0.863263C7.76673 1.06636 7.32668 1.41889 7.01656 1.87513C6.70644 2.33138 6.54057 2.87027 6.54046 3.42193C6.54074 3.63293 6.56438 3.84325 6.61096 4.04904C5.51612 3.99451 4.445 3.71029 3.46715 3.21484C2.48931 2.7194 1.62661 2.02381 0.935092 1.17326C0.582771 1.77891 0.474681 2.49612 0.632848 3.1787C0.791015 3.86129 1.20354 4.45787 1.78633 4.84684C1.34985 4.8342 0.922889 4.71632 0.54176 4.50323V4.53662C0.542067 5.17189 0.761508 5.7876 1.16305 6.27986C1.5646 6.77213 2.12366 7.1108 2.74591 7.23875C2.5095 7.30096 2.26604 7.33239 2.02158 7.33225C1.84729 7.33248 1.67336 7.31633 1.50208 7.28401C1.67866 7.83059 2.02124 8.30852 2.48214 8.6513C2.94303 8.99408 3.49932 9.18466 4.07359 9.1965C3.09749 9.96028 1.89323 10.3742 0.653823 10.372C0.435364 10.3718 0.217087 10.3594 0 10.3349C1.18315 11.0926 2.54837 11.518 3.9525 11.5665C5.35663 11.615 6.74794 11.2848 7.98055 10.6105C9.21316 9.9363 10.2416 8.94283 10.9582 7.73432C11.6747 6.5258 12.0529 5.14676 12.0531 3.74179L12.0449 3.38557C12.5857 2.99688 13.052 2.51395 13.4216 1.95992L13.4208 1.95918Z" fill="white"/>
</svg>
