<svg width="6" height="13" viewBox="0 0 6 13" fill="none" xmlns="http://www.w3.org/2000/svg">
<path d="M5.7748 0.674319H4.33578C3.97459 0.652143 3.61321 0.714035 3.27605 0.855811C2.9389 0.997588 2.63382 1.21595 2.38145 1.49613C2.12908 1.77631 1.93528 2.11179 1.81316 2.4799C1.69104 2.848 1.64344 3.24016 1.67358 3.62986V4.99096H0.225923C0.166004 4.99096 0.10855 5.01669 0.0661807 5.06249C0.0238112 5.10829 0 5.17041 0 5.23518V7.20373C0.000189736 7.26844 0.0240499 7.33044 0.0663783 7.37619C0.108707 7.42195 0.166062 7.44775 0.225923 7.44795H1.67358V12.4257C1.67377 12.4905 1.69773 12.5527 1.74022 12.5984C1.7827 12.6442 1.84024 12.6699 1.90022 12.6699H3.78752C3.8475 12.6699 3.90504 12.6442 3.94752 12.5984C3.99001 12.5527 4.01397 12.4905 4.01416 12.4257V7.44795H5.70572C5.76564 7.44795 5.82312 7.42222 5.86549 7.37642C5.90786 7.33062 5.93165 7.2685 5.93165 7.20373V5.22974C5.9314 5.16502 5.90764 5.10301 5.86547 5.05707C5.84441 5.0343 5.81938 5.01626 5.79184 5.00398C5.7643 4.9917 5.73479 4.98542 5.705 4.98552H4.01271V3.8313C4.01271 3.27675 4.13504 2.99519 4.80418 2.99519H5.77408C5.834 2.99519 5.89147 2.96946 5.93384 2.92366C5.97621 2.87786 6 2.81575 6 2.75097V0.919316C6 0.854607 5.97632 0.792526 5.93413 0.746624C5.89193 0.700722 5.83466 0.67473 5.7748 0.674319Z" fill="#616161"/>
</svg>
