<svg width="12" height="13" viewBox="0 0 12 13" fill="none" xmlns="http://www.w3.org/2000/svg">
<path d="M1.85854 0.669922L1.85815 1.16992C1.74338 1.16983 1.62929 1.19312 1.52225 1.23891C1.41516 1.28472 1.31671 1.3524 1.23299 1.43894C1.14923 1.52551 1.0819 1.62923 1.03566 1.74459C0.98943 1.85993 0.965401 1.98411 0.965332 2.10992L1.85854 0.669922ZM1.85854 0.669922L1.85854 1.16992C1.97327 1.16992 2.0873 1.19329 2.19427 1.23917C2.30129 1.28506 2.39965 1.35281 2.48327 1.4394C2.56693 1.52603 2.63413 1.62979 2.68025 1.74517C2.72637 1.86058 2.75026 1.98482 2.75017 2.11065V2.11101C2.75017 2.65275 2.32783 3.06629 1.85696 3.06629C1.38791 3.06629 0.965427 2.65359 0.965332 2.11011L1.85854 0.669922ZM6.49414 6.25029H6.80018L6.9394 5.97775C7.19053 5.48615 7.70334 4.9881 8.65432 4.9881C9.744 4.9881 10.2783 5.34076 10.5813 5.83315C10.9186 6.38119 11.0351 7.20174 11.0351 8.2692V12.1699H9.63296V8.76992V8.75941C9.63297 8.31674 9.63299 7.69427 9.43699 7.18205C9.33299 6.91027 9.16468 6.64169 8.89076 6.44397C8.61452 6.24458 8.27434 6.14865 7.88313 6.14865C7.50391 6.14865 7.16907 6.22551 6.88922 6.39543C6.60598 6.5674 6.41827 6.81093 6.29685 7.07646C6.06931 7.57412 6.05739 8.19801 6.05739 8.70392V12.1699H4.65525V5.15774H5.9604V5.75029V6.25029H6.4604H6.49414ZM2.5604 12.1699H1.15668V5.1572H2.5604V12.1699Z" fill="#616161" stroke="#616161"/>
</svg>
