<svg width="155" height="230" viewBox="0 0 155 230" fill="none" xmlns="http://www.w3.org/2000/svg">
<path opacity="0.2" d="M102.462 157.962L143.337 82.7444L12.1065 1.03816M144.483 82.7674L58.6763 86.3403L7.58432 158.932M103.449 170.146L133.924 224.663M97.7795 161.704L7.35182 4.70055L9.13212 157.99L97.7795 161.704ZM144.519 93.3652L103.051 169.774L12.0175 163.623L136.758 227.046L144.519 93.3652ZM140.887 81.9981C140.426 81.2024 140.192 80.3078 140.214 79.4279C140.236 78.548 140.513 77.7222 141.011 77.0553C141.508 76.3884 142.203 75.9104 143.008 75.6819C143.813 75.4533 144.691 75.4845 145.531 75.7715C146.371 76.0585 147.135 76.5884 147.727 77.294C148.319 77.9996 148.712 78.8491 148.855 79.7349C148.998 80.6208 148.886 81.503 148.533 82.2699C148.18 83.0367 147.601 83.6536 146.871 84.0424C146.389 84.3026 145.851 84.4561 145.289 84.4941C144.727 84.5322 144.151 84.4539 143.595 84.264C143.039 84.074 142.513 83.776 142.049 83.3872C141.584 82.9983 141.189 82.5262 140.887 81.9981ZM93.3609 158.43C92.9077 157.638 92.6794 156.75 92.7048 155.877C92.7303 155.005 93.0083 154.187 93.5038 153.526C93.9993 152.866 94.69 152.394 95.489 152.168C96.2879 151.942 97.1592 151.974 97.9928 152.259C98.8265 152.543 99.5852 153.069 100.173 153.768C100.761 154.468 101.152 155.31 101.297 156.189C101.442 157.068 101.334 157.944 100.986 158.706C100.639 159.469 100.068 160.084 99.3451 160.475C98.8631 160.735 98.3256 160.888 97.7635 160.926C97.2013 160.964 96.6256 160.886 96.0695 160.696C95.5134 160.506 94.9878 160.208 94.5229 159.819C94.0581 159.43 93.6632 158.958 93.3609 158.43ZM1.91609 160.906C1.451 160.112 1.21235 159.217 1.23045 158.335C1.24856 157.454 1.52262 156.626 2.01779 155.955C2.51295 155.285 3.20689 154.804 4.01148 154.572C4.81607 154.341 5.69501 154.369 6.53662 154.654C7.37824 154.939 8.14456 155.468 8.73828 156.173C9.33199 156.879 9.72628 157.729 9.87109 158.616C10.0159 159.502 9.90469 160.386 9.55157 161.154C9.19844 161.922 8.61935 162.54 7.88784 162.929C6.91773 163.453 5.74358 163.534 4.62366 163.154C3.50375 162.775 2.52978 161.966 1.91609 160.906ZM9.29596 7.50773C8.8314 6.71409 8.59275 5.82035 8.61024 4.93977C8.62773 4.05919 8.90056 3.23144 9.39419 2.56139C9.88783 1.89135 10.5801 1.40916 11.3831 1.17599C12.1861 0.942822 13.0638 0.969157 13.905 1.25163C14.7461 1.5341 15.5129 2.05999 16.108 2.76269C16.7032 3.46538 17.0999 4.31324 17.2479 5.19878C17.396 6.08432 17.2887 6.9677 16.9397 7.73695C16.5907 8.5062 16.0156 9.12669 15.2875 9.51979C14.3155 10.0445 13.1397 10.1273 12.017 9.75031C10.8943 9.37329 9.91602 8.56702 9.29596 7.50773ZM99.6324 169.111C99.1723 168.316 98.9382 167.423 98.9597 166.544C98.9812 165.665 99.2574 164.84 99.7533 164.173C100.249 163.506 100.943 163.027 101.746 162.797C102.549 162.567 103.426 162.596 104.265 162.88C105.105 163.165 105.87 163.692 106.463 164.395C107.056 165.098 107.451 165.945 107.598 166.83C107.745 167.714 107.637 168.596 107.287 169.365C106.938 170.133 106.364 170.752 105.636 171.145C105.154 171.409 104.616 171.565 104.052 171.606C103.489 171.647 102.911 171.57 102.352 171.381C101.794 171.192 101.266 170.894 100.799 170.504C100.332 170.115 99.9358 169.641 99.6324 169.111ZM55.5922 90.3279C55.1321 89.533 54.8979 88.6396 54.9194 87.7606C54.941 86.8816 55.2172 86.0564 55.7131 85.3895C56.209 84.7226 56.9024 84.2438 57.7056 84.0138C58.5087 83.7838 59.3855 83.8129 60.2252 84.0973C61.0649 84.3817 61.8297 84.9087 62.4229 85.6116C63.0161 86.3146 63.411 87.162 63.5577 88.0466C63.7045 88.9312 63.5964 89.8133 63.2473 90.5813C62.8981 91.3494 62.3236 91.9689 61.5962 92.3615C61.1142 92.6255 60.5758 92.7823 60.0121 92.8228C59.4484 92.8633 58.8706 92.7869 58.3122 92.5977C57.7538 92.4086 57.2259 92.1106 56.759 91.721C56.2921 91.3313 55.8955 90.8579 55.5922 90.3279ZM8.16728 170.291C7.71161 169.495 7.48203 168.602 7.50757 167.724C7.53311 166.847 7.81259 166.024 8.31075 165.36C8.80891 164.697 9.50343 164.221 10.3067 163.994C11.1099 163.767 11.9859 163.799 12.8241 164.086C13.6623 164.372 14.4251 164.9 15.0163 165.603C15.6076 166.306 16.0007 167.153 16.1462 168.037C16.2916 168.921 16.1829 169.801 15.8336 170.568C15.4844 171.335 14.9103 171.954 14.1838 172.346C13.6991 172.608 13.1587 172.762 12.5935 172.8C12.0284 172.838 11.4496 172.76 10.8905 172.569C10.3314 172.378 9.80299 172.078 9.33565 171.687C8.8683 171.296 8.47124 170.822 8.16728 170.291ZM130.726 226.436C130.261 225.641 130.023 224.747 130.041 223.865C130.059 222.984 130.333 222.155 130.828 221.485C131.323 220.815 132.017 220.334 132.822 220.102C133.626 219.87 134.505 219.899 135.347 220.184C136.188 220.469 136.955 220.998 137.548 221.703C138.142 222.408 138.536 223.258 138.681 224.145C138.826 225.032 138.715 225.915 138.362 226.683C138.009 227.451 137.43 228.069 136.698 228.459C135.728 228.982 134.554 229.063 133.434 228.684C132.314 228.305 131.34 227.496 130.726 226.436ZM145.593 94.0675C145.14 93.2757 144.912 92.3874 144.937 91.5147C144.962 90.642 145.24 89.8239 145.736 89.1637C146.231 88.5035 146.922 88.0308 147.721 87.8051C148.52 87.5795 149.391 87.6111 150.225 87.8959C151.059 88.1807 151.817 88.7059 152.405 89.4054C152.993 90.1048 153.384 90.9471 153.529 91.826C153.674 92.7049 153.566 93.581 153.218 94.3438C152.871 95.1065 152.3 95.7217 151.577 96.1118C151.095 96.372 150.558 96.5255 149.996 96.5635C149.433 96.6016 148.858 96.5233 148.302 96.3334C147.745 96.1434 147.22 95.8454 146.755 95.4565C146.29 95.0677 145.895 94.5956 145.593 94.0675Z" stroke="#329DE3" stroke-miterlimit="10"/>
</svg>
