<svg width="82" height="26" viewBox="0 0 82 26" fill="none" xmlns="http://www.w3.org/2000/svg">
<path d="M1 23.1191L1.48193 23.3105" stroke="#1AFF7C" stroke-width="1.5" stroke-miterlimit="10" stroke-linecap="round"/>
<path d="M1.48193 23.3104L1.96386 23.276" stroke="#1AFF7C" stroke-width="1.5" stroke-miterlimit="10" stroke-linecap="round"/>
<path d="M1.96387 23.276L2.44579 22.6873" stroke="#1AFF7C" stroke-width="1.5" stroke-miterlimit="10" stroke-linecap="round"/>
<path d="M2.4458 22.6873L2.92773 22.7098" stroke="#1AFF7C" stroke-width="1.5" stroke-miterlimit="10" stroke-linecap="round"/>
<path d="M2.92773 22.7098L3.40966 22.5849" stroke="#1AFF7C" stroke-width="1.5" stroke-miterlimit="10" stroke-linecap="round"/>
<path d="M3.40967 22.5849L3.8916 22.9213" stroke="#1AFF7C" stroke-width="1.5" stroke-miterlimit="10" stroke-linecap="round"/>
<path d="M3.8916 22.9213L4.37353 23.1131" stroke="#1AFF7C" stroke-width="1.5" stroke-miterlimit="10" stroke-linecap="round"/>
<path d="M4.37354 23.1131L4.85546 22.6451" stroke="#1AFF7C" stroke-width="1.5" stroke-miterlimit="10" stroke-linecap="round"/>
<path d="M4.85547 22.6451L5.3374 20.2867" stroke="#1AFF7C" stroke-width="1.5" stroke-miterlimit="10" stroke-linecap="round"/>
<path d="M5.3374 20.2867L5.81933 20.315" stroke="#1AFF7C" stroke-width="1.5" stroke-miterlimit="10" stroke-linecap="round"/>
<path d="M5.81934 20.3151L6.30126 20.428" stroke="#1AFF7C" stroke-width="1.5" stroke-miterlimit="10" stroke-linecap="round"/>
<path d="M6.30127 20.428L6.7832 21.2539" stroke="#1AFF7C" stroke-width="1.5" stroke-miterlimit="10" stroke-linecap="round"/>
<path d="M6.7832 21.2539L7.26513 23.3202" stroke="#1AFF7C" stroke-width="1.5" stroke-miterlimit="10" stroke-linecap="round"/>
<path d="M7.26465 23.3202L7.74658 22.7479" stroke="#1AFF7C" stroke-width="1.5" stroke-miterlimit="10" stroke-linecap="round"/>
<path d="M7.74707 22.7479L8.229 22.1682" stroke="#1AFF7C" stroke-width="1.5" stroke-miterlimit="10" stroke-linecap="round"/>
<path d="M8.229 22.1682L8.71093 22.8529" stroke="#1AFF7C" stroke-width="1.5" stroke-miterlimit="10" stroke-linecap="round"/>
<path d="M8.71094 22.853L9.19287 23.2451" stroke="#1AFF7C" stroke-width="1.5" stroke-miterlimit="10" stroke-linecap="round"/>
<path d="M9.19287 23.2451L9.6748 23.6683" stroke="#1AFF7C" stroke-width="1.5" stroke-miterlimit="10" stroke-linecap="round"/>
<path d="M9.6748 23.6683L10.1567 24.0475" stroke="#1AFF7C" stroke-width="1.5" stroke-miterlimit="10" stroke-linecap="round"/>
<path d="M10.1567 24.0475L10.6387 23.3842" stroke="#1AFF7C" stroke-width="1.5" stroke-miterlimit="10" stroke-linecap="round"/>
<path d="M10.6387 23.3842L11.1206 23.2444" stroke="#1AFF7C" stroke-width="1.5" stroke-miterlimit="10" stroke-linecap="round"/>
<path d="M11.1201 23.2444L11.602 23.4048" stroke="#1AFF7C" stroke-width="1.5" stroke-miterlimit="10" stroke-linecap="round"/>
<path d="M11.6025 23.4048L12.0845 23.3163" stroke="#1AFF7C" stroke-width="1.5" stroke-miterlimit="10" stroke-linecap="round"/>
<path d="M12.0845 23.3163L12.5664 23.8118" stroke="#1AFF7C" stroke-width="1.5" stroke-miterlimit="10" stroke-linecap="round"/>
<path d="M12.5664 23.8118L13.0483 23.4816" stroke="#1AFF7C" stroke-width="1.5" stroke-miterlimit="10" stroke-linecap="round"/>
<path d="M13.0483 23.4816L13.5303 23.6567" stroke="#1AFF7C" stroke-width="1.5" stroke-miterlimit="10" stroke-linecap="round"/>
<path d="M13.5303 23.6567L14.0122 23.8219" stroke="#1AFF7C" stroke-width="1.5" stroke-miterlimit="10" stroke-linecap="round"/>
<path d="M14.0122 23.8219L14.4941 23.4358" stroke="#1AFF7C" stroke-width="1.5" stroke-miterlimit="10" stroke-linecap="round"/>
<path d="M14.4937 23.4358L14.9756 22.8483" stroke="#1AFF7C" stroke-width="1.5" stroke-miterlimit="10" stroke-linecap="round"/>
<path d="M14.9756 22.8483L15.4575 24.513" stroke="#1AFF7C" stroke-width="1.5" stroke-miterlimit="10" stroke-linecap="round"/>
<path d="M15.458 24.513L15.9399 23.905" stroke="#1AFF7C" stroke-width="1.5" stroke-miterlimit="10" stroke-linecap="round"/>
<path d="M15.9399 23.905L16.4219 20.954" stroke="#1AFF7C" stroke-width="1.5" stroke-miterlimit="10" stroke-linecap="round"/>
<path d="M16.4219 20.954L16.9038 19.0451" stroke="#1AFF7C" stroke-width="1.5" stroke-miterlimit="10" stroke-linecap="round"/>
<path d="M16.9033 19.0451L17.3852 19.0144" stroke="#1AFF7C" stroke-width="1.5" stroke-miterlimit="10" stroke-linecap="round"/>
<path d="M17.3857 19.0144L17.8677 19.0657" stroke="#1AFF7C" stroke-width="1.5" stroke-miterlimit="10" stroke-linecap="round"/>
<path d="M17.8677 19.0657L18.3496 19.9574" stroke="#1AFF7C" stroke-width="1.5" stroke-miterlimit="10" stroke-linecap="round"/>
<path d="M18.3491 19.9574L18.831 20.3012" stroke="#1AFF7C" stroke-width="1.5" stroke-miterlimit="10" stroke-linecap="round"/>
<path d="M18.8311 20.3012L19.313 20.23" stroke="#1AFF7C" stroke-width="1.5" stroke-miterlimit="10" stroke-linecap="round"/>
<path d="M19.3135 20.23L19.7954 19.6339" stroke="#1AFF7C" stroke-width="1.5" stroke-miterlimit="10" stroke-linecap="round"/>
<path d="M19.7954 19.6339L20.2773 18.4493" stroke="#1AFF7C" stroke-width="1.5" stroke-miterlimit="10" stroke-linecap="round"/>
<path d="M20.2773 18.4493L20.7593 19.2" stroke="#1AFF7C" stroke-width="1.5" stroke-miterlimit="10" stroke-linecap="round"/>
<path d="M20.7588 19.2001L21.2407 19.0776" stroke="#1AFF7C" stroke-width="1.5" stroke-miterlimit="10" stroke-linecap="round"/>
<path d="M21.2412 19.0776L21.7231 19.2483" stroke="#1AFF7C" stroke-width="1.5" stroke-miterlimit="10" stroke-linecap="round"/>
<path d="M21.7227 19.2482L22.2046 19.5511" stroke="#1AFF7C" stroke-width="1.5" stroke-miterlimit="10" stroke-linecap="round"/>
<path d="M22.2046 19.5511L22.6865 19.0055" stroke="#1AFF7C" stroke-width="1.5" stroke-miterlimit="10" stroke-linecap="round"/>
<path d="M22.6865 19.0055L23.1685 19.0464" stroke="#1AFF7C" stroke-width="1.5" stroke-miterlimit="10" stroke-linecap="round"/>
<path d="M23.1689 19.0463L23.6509 18.5006" stroke="#1AFF7C" stroke-width="1.5" stroke-miterlimit="10" stroke-linecap="round"/>
<path d="M23.6509 18.5006L24.1328 17.4872" stroke="#1AFF7C" stroke-width="1.5" stroke-miterlimit="10" stroke-linecap="round"/>
<path d="M24.1323 17.4872L24.6143 16.4088" stroke="#1AFF7C" stroke-width="1.5" stroke-miterlimit="10" stroke-linecap="round"/>
<path d="M24.6143 16.4088L25.0962 17.1949" stroke="#1AFF7C" stroke-width="1.5" stroke-miterlimit="10" stroke-linecap="round"/>
<path d="M25.0967 17.1949L25.5786 17.3851" stroke="#1AFF7C" stroke-width="1.5" stroke-miterlimit="10" stroke-linecap="round"/>
<path d="M25.5781 17.385L26.0601 17.1953" stroke="#1AFF7C" stroke-width="1.5" stroke-miterlimit="10" stroke-linecap="round"/>
<path d="M26.0601 17.1954L26.542 16.5811" stroke="#1AFF7C" stroke-width="1.5" stroke-miterlimit="10" stroke-linecap="round"/>
<path d="M26.542 16.5811L27.0239 17.48" stroke="#1AFF7C" stroke-width="1.5" stroke-miterlimit="10" stroke-linecap="round"/>
<path d="M27.0244 17.48L27.5063 17.8401" stroke="#1AFF7C" stroke-width="1.5" stroke-miterlimit="10" stroke-linecap="round"/>
<path d="M27.5063 17.8401L27.9883 16.9254" stroke="#1AFF7C" stroke-width="1.5" stroke-miterlimit="10" stroke-linecap="round"/>
<path d="M27.9878 16.9255L28.4697 16.6368" stroke="#1AFF7C" stroke-width="1.5" stroke-miterlimit="10" stroke-linecap="round"/>
<path d="M28.4697 16.6368L28.9517 15.3967" stroke="#1AFF7C" stroke-width="1.5" stroke-miterlimit="10" stroke-linecap="round"/>
<path d="M28.9517 15.3967L29.4336 13.6111" stroke="#1AFF7C" stroke-width="1.5" stroke-miterlimit="10" stroke-linecap="round"/>
<path d="M29.4336 13.6111L29.9155 13.3553" stroke="#1AFF7C" stroke-width="1.5" stroke-miterlimit="10" stroke-linecap="round"/>
<path d="M29.9155 13.3553L30.3975 12.3203" stroke="#1AFF7C" stroke-width="1.5" stroke-miterlimit="10" stroke-linecap="round"/>
<path d="M30.3975 12.3203L30.8794 13.4587" stroke="#1AFF7C" stroke-width="1.5" stroke-miterlimit="10" stroke-linecap="round"/>
<path d="M30.8799 13.4587L31.3618 12.966" stroke="#1AFF7C" stroke-width="1.5" stroke-miterlimit="10" stroke-linecap="round"/>
<path d="M31.3613 12.966L31.8433 13.5309" stroke="#1AFF7C" stroke-width="1.5" stroke-miterlimit="10" stroke-linecap="round"/>
<path d="M31.8433 13.531L32.3252 13.6563" stroke="#1AFF7C" stroke-width="1.5" stroke-miterlimit="10" stroke-linecap="round"/>
<path d="M32.3252 13.6562L32.8071 12.7875" stroke="#1AFF7C" stroke-width="1.5" stroke-miterlimit="10" stroke-linecap="round"/>
<path d="M32.8071 12.7875L33.2891 12.8321" stroke="#1AFF7C" stroke-width="1.5" stroke-miterlimit="10" stroke-linecap="round"/>
<path d="M33.2891 12.8322L33.771 13.4547" stroke="#1AFF7C" stroke-width="1.5" stroke-miterlimit="10" stroke-linecap="round"/>
<path d="M33.771 13.4547L34.2529 12.982" stroke="#1AFF7C" stroke-width="1.5" stroke-miterlimit="10" stroke-linecap="round"/>
<path d="M34.2529 12.982L34.7349 12.8157" stroke="#1AFF7C" stroke-width="1.5" stroke-miterlimit="10" stroke-linecap="round"/>
<path d="M34.7354 12.8157L35.2173 13.0799" stroke="#1AFF7C" stroke-width="1.5" stroke-miterlimit="10" stroke-linecap="round"/>
<path d="M35.2168 13.0799L35.6987 15.2074" stroke="#1AFF7C" stroke-width="1.5" stroke-miterlimit="10" stroke-linecap="round"/>
<path d="M35.6987 15.2074L36.1807 15.181" stroke="#1AFF7C" stroke-width="1.5" stroke-miterlimit="10" stroke-linecap="round"/>
<path d="M36.1807 15.1809L36.6626 13.7233" stroke="#1AFF7C" stroke-width="1.5" stroke-miterlimit="10" stroke-linecap="round"/>
<path d="M36.6626 13.7233L37.1445 13.2606" stroke="#1AFF7C" stroke-width="1.5" stroke-miterlimit="10" stroke-linecap="round"/>
<path d="M37.1445 13.2607L37.6265 9.28552" stroke="#1AFF7C" stroke-width="1.5" stroke-miterlimit="10" stroke-linecap="round"/>
<path d="M37.6265 9.28548L38.1084 6.06586" stroke="#1AFF7C" stroke-width="1.5" stroke-miterlimit="10" stroke-linecap="round"/>
<path d="M38.1084 6.06589L38.5903 4.63242" stroke="#1AFF7C" stroke-width="1.5" stroke-miterlimit="10" stroke-linecap="round"/>
<path d="M38.5903 4.63242L39.0723 3.17761" stroke="#1AFF7C" stroke-width="1.5" stroke-miterlimit="10" stroke-linecap="round"/>
<path d="M39.0723 3.17761L39.5542 3.78496" stroke="#1AFF7C" stroke-width="1.5" stroke-miterlimit="10" stroke-linecap="round"/>
<path d="M39.5542 3.78491L40.0361 4.50697" stroke="#1AFF7C" stroke-width="1.5" stroke-miterlimit="10" stroke-linecap="round"/>
<path d="M40.0361 4.50701L40.5181 4.44632" stroke="#1AFF7C" stroke-width="1.5" stroke-miterlimit="10" stroke-linecap="round"/>
<path d="M40.5181 4.44632L41 3.15863" stroke="#1AFF7C" stroke-width="1.5" stroke-miterlimit="10" stroke-linecap="round"/>
<path d="M41 3.15863L41.4819 3.47092" stroke="#1AFF7C" stroke-width="1.5" stroke-miterlimit="10" stroke-linecap="round"/>
<path d="M41.4819 3.47092L41.9639 2.99677" stroke="#1AFF7C" stroke-width="1.5" stroke-miterlimit="10" stroke-linecap="round"/>
<path d="M41.9639 2.99674L42.4458 2.82562" stroke="#1AFF7C" stroke-width="1.5" stroke-miterlimit="10" stroke-linecap="round"/>
<path d="M42.4458 2.82569L42.9277 2.2876" stroke="#1AFF7C" stroke-width="1.5" stroke-miterlimit="10" stroke-linecap="round"/>
<path d="M42.9277 2.2876L43.4097 3.69501" stroke="#1AFF7C" stroke-width="1.5" stroke-miterlimit="10" stroke-linecap="round"/>
<path d="M43.4097 3.69495L43.8916 3.78815" stroke="#1AFF7C" stroke-width="1.5" stroke-miterlimit="10" stroke-linecap="round"/>
<path d="M43.8916 3.78821L44.3735 3.11206" stroke="#1AFF7C" stroke-width="1.5" stroke-miterlimit="10" stroke-linecap="round"/>
<path d="M44.3735 3.11206L44.8555 3.64048" stroke="#1AFF7C" stroke-width="1.5" stroke-miterlimit="10" stroke-linecap="round"/>
<path d="M44.8555 3.64047L45.3374 2.97314" stroke="#1AFF7C" stroke-width="1.5" stroke-miterlimit="10" stroke-linecap="round"/>
<path d="M45.3374 2.97314L45.8193 4.08085" stroke="#1AFF7C" stroke-width="1.5" stroke-miterlimit="10" stroke-linecap="round"/>
<path d="M45.8193 4.08084L46.3013 4.44852" stroke="#1AFF7C" stroke-width="1.5" stroke-miterlimit="10" stroke-linecap="round"/>
<path d="M46.3013 4.44848L46.7832 3.90283" stroke="#1AFF7C" stroke-width="1.5" stroke-miterlimit="10" stroke-linecap="round"/>
<path d="M46.7832 3.90283L47.2651 4.47552" stroke="#1AFF7C" stroke-width="1.5" stroke-miterlimit="10" stroke-linecap="round"/>
<path d="M47.2646 4.47552L47.7466 5.3185" stroke="#1AFF7C" stroke-width="1.5" stroke-miterlimit="10" stroke-linecap="round"/>
<path d="M47.7471 5.31848L48.229 6.27062" stroke="#1AFF7C" stroke-width="1.5" stroke-miterlimit="10" stroke-linecap="round"/>
<path d="M48.229 6.27066L48.7109 5.07056" stroke="#1AFF7C" stroke-width="1.5" stroke-miterlimit="10" stroke-linecap="round"/>
<path d="M48.7109 5.07056L49.1929 6.17768" stroke="#1AFF7C" stroke-width="1.5" stroke-miterlimit="10" stroke-linecap="round"/>
<path d="M49.1929 6.17768L49.6748 4.4704" stroke="#1AFF7C" stroke-width="1.5" stroke-miterlimit="10" stroke-linecap="round"/>
<path d="M49.6748 4.4704L50.1567 6.54803" stroke="#1AFF7C" stroke-width="1.5" stroke-miterlimit="10" stroke-linecap="round"/>
<path d="M50.1567 6.54801L50.6387 6.44067" stroke="#1AFF7C" stroke-width="1.5" stroke-miterlimit="10" stroke-linecap="round"/>
<path d="M50.6387 6.4407L51.1206 5.65869" stroke="#1AFF7C" stroke-width="1.5" stroke-miterlimit="10" stroke-linecap="round"/>
<path d="M51.1201 5.65869L51.602 5.61157" stroke="#1AFF7C" stroke-width="1.5" stroke-miterlimit="10" stroke-linecap="round"/>
<path d="M51.6025 5.61157L52.0845 6.27099" stroke="#1AFF7C" stroke-width="1.5" stroke-miterlimit="10" stroke-linecap="round"/>
<path d="M52.0845 6.27099L52.5664 6.25131" stroke="#1AFF7C" stroke-width="1.5" stroke-miterlimit="10" stroke-linecap="round"/>
<path d="M52.5664 6.25127L53.0483 5.53754" stroke="#1AFF7C" stroke-width="1.5" stroke-miterlimit="10" stroke-linecap="round"/>
<path d="M53.0483 5.53756L53.5303 5.33984" stroke="#1AFF7C" stroke-width="1.5" stroke-miterlimit="10" stroke-linecap="round"/>
<path d="M53.5303 5.33984L54.0122 6.30104" stroke="#1AFF7C" stroke-width="1.5" stroke-miterlimit="10" stroke-linecap="round"/>
<path d="M54.0122 6.30103L54.4941 6.60561" stroke="#1AFF7C" stroke-width="1.5" stroke-miterlimit="10" stroke-linecap="round"/>
<path d="M54.4937 6.60562L54.9756 5.69116" stroke="#1AFF7C" stroke-width="1.5" stroke-miterlimit="10" stroke-linecap="round"/>
<path d="M54.9756 5.6911L55.4575 5.21161" stroke="#1AFF7C" stroke-width="1.5" stroke-miterlimit="10" stroke-linecap="round"/>
<path d="M55.458 5.21161L55.9399 6.44321" stroke="#1AFF7C" stroke-width="1.5" stroke-miterlimit="10" stroke-linecap="round"/>
<path d="M55.9399 6.44324L56.4219 6.56784" stroke="#1AFF7C" stroke-width="1.5" stroke-miterlimit="10" stroke-linecap="round"/>
<path d="M56.4219 6.56784L56.9038 6.3974" stroke="#1AFF7C" stroke-width="1.5" stroke-miterlimit="10" stroke-linecap="round"/>
<path d="M56.9033 6.39739L57.3852 5.70386" stroke="#1AFF7C" stroke-width="1.5" stroke-miterlimit="10" stroke-linecap="round"/>
<path d="M57.3857 5.70387L57.8677 5.63992" stroke="#1AFF7C" stroke-width="1.5" stroke-miterlimit="10" stroke-linecap="round"/>
<path d="M57.8677 5.63994L58.3496 3.91357" stroke="#1AFF7C" stroke-width="1.5" stroke-miterlimit="10" stroke-linecap="round"/>
<path d="M58.3491 3.91357L58.8311 1.09833" stroke="#1AFF7C" stroke-width="1.5" stroke-miterlimit="10" stroke-linecap="round"/>
<path d="M58.8311 1.09833L59.313 2.47879" stroke="#1AFF7C" stroke-width="1.5" stroke-miterlimit="10" stroke-linecap="round"/>
<path d="M59.3135 2.47873L59.7954 1.828" stroke="#1AFF7C" stroke-width="1.5" stroke-miterlimit="10" stroke-linecap="round"/>
<path d="M59.7954 1.828L60.2773 2.54782" stroke="#1AFF7C" stroke-width="1.5" stroke-miterlimit="10" stroke-linecap="round"/>
<path d="M60.2773 2.54788L60.7593 3.79787" stroke="#1AFF7C" stroke-width="1.5" stroke-miterlimit="10" stroke-linecap="round"/>
<path d="M60.7588 3.79785L61.2407 5.44369" stroke="#1AFF7C" stroke-width="1.5" stroke-miterlimit="10" stroke-linecap="round"/>
<path d="M61.2412 5.44369L61.7231 4.29919" stroke="#1AFF7C" stroke-width="1.5" stroke-miterlimit="10" stroke-linecap="round"/>
<path d="M61.7227 4.29919L62.2046 5.28277" stroke="#1AFF7C" stroke-width="1.5" stroke-miterlimit="10" stroke-linecap="round"/>
<path d="M62.2046 5.28277L62.6865 5.24417" stroke="#1AFF7C" stroke-width="1.5" stroke-miterlimit="10" stroke-linecap="round"/>
<path d="M62.6865 5.24419L63.1684 5.20618" stroke="#1AFF7C" stroke-width="1.5" stroke-miterlimit="10" stroke-linecap="round"/>
<path d="M63.1689 5.20618L63.6509 4.62747" stroke="#1AFF7C" stroke-width="1.5" stroke-miterlimit="10" stroke-linecap="round"/>
<path d="M63.6509 4.62745L64.1328 4.34311" stroke="#1AFF7C" stroke-width="1.5" stroke-miterlimit="10" stroke-linecap="round"/>
<path d="M64.1323 4.34311L64.6143 6.15721" stroke="#1AFF7C" stroke-width="1.5" stroke-miterlimit="10" stroke-linecap="round"/>
<path d="M64.6143 6.15719L65.0962 5.40515" stroke="#1AFF7C" stroke-width="1.5" stroke-miterlimit="10" stroke-linecap="round"/>
<path d="M65.0967 5.40515L65.5786 5.77447" stroke="#1AFF7C" stroke-width="1.5" stroke-miterlimit="10" stroke-linecap="round"/>
<path d="M65.5781 5.77444L66.06 6.15623" stroke="#1AFF7C" stroke-width="1.5" stroke-miterlimit="10" stroke-linecap="round"/>
<path d="M66.0601 6.15629L66.542 5.45215" stroke="#1AFF7C" stroke-width="1.5" stroke-miterlimit="10" stroke-linecap="round"/>
<path d="M66.542 5.45215L67.0239 6.1024" stroke="#1AFF7C" stroke-width="1.5" stroke-miterlimit="10" stroke-linecap="round"/>
<path d="M67.0244 6.10238L67.5063 5.59085" stroke="#1AFF7C" stroke-width="1.5" stroke-miterlimit="10" stroke-linecap="round"/>
<path d="M67.5063 5.59085L67.9883 4.45486" stroke="#1AFF7C" stroke-width="1.5" stroke-miterlimit="10" stroke-linecap="round"/>
<path d="M67.9878 4.45486L68.4697 4.20044" stroke="#1AFF7C" stroke-width="1.5" stroke-miterlimit="10" stroke-linecap="round"/>
<path d="M68.4697 4.20044L68.9516 4.34823" stroke="#1AFF7C" stroke-width="1.5" stroke-miterlimit="10" stroke-linecap="round"/>
<path d="M68.9517 4.34819L69.4336 3.64368" stroke="#1AFF7C" stroke-width="1.5" stroke-miterlimit="10" stroke-linecap="round"/>
<path d="M69.4336 3.64374L69.9155 3.51825" stroke="#1AFF7C" stroke-width="1.5" stroke-miterlimit="10" stroke-linecap="round"/>
<path d="M69.9155 3.51825L70.3975 4.0316" stroke="#1AFF7C" stroke-width="1.5" stroke-miterlimit="10" stroke-linecap="round"/>
<path d="M70.3975 4.03158L70.8794 3.57935" stroke="#1AFF7C" stroke-width="1.5" stroke-miterlimit="10" stroke-linecap="round"/>
<path d="M70.8799 3.57935L71.3618 3.68856" stroke="#1AFF7C" stroke-width="1.5" stroke-miterlimit="10" stroke-linecap="round"/>
<path d="M71.3613 3.68851L71.8433 3.81974" stroke="#1AFF7C" stroke-width="1.5" stroke-miterlimit="10" stroke-linecap="round"/>
<path d="M71.8433 3.81979L72.3252 3.32895" stroke="#1AFF7C" stroke-width="1.5" stroke-miterlimit="10" stroke-linecap="round"/>
<path d="M72.3252 3.32899L72.8071 2.62695" stroke="#1AFF7C" stroke-width="1.5" stroke-miterlimit="10" stroke-linecap="round"/>
<path d="M72.8071 2.62695L73.2891 2.87513" stroke="#1AFF7C" stroke-width="1.5" stroke-miterlimit="10" stroke-linecap="round"/>
<path d="M73.2891 2.87509L73.771 3.37126" stroke="#1AFF7C" stroke-width="1.5" stroke-miterlimit="10" stroke-linecap="round"/>
<path d="M73.771 3.37128L74.2529 3.81585" stroke="#1AFF7C" stroke-width="1.5" stroke-miterlimit="10" stroke-linecap="round"/>
<path d="M74.2529 3.81583L74.7349 3.56555" stroke="#1AFF7C" stroke-width="1.5" stroke-miterlimit="10" stroke-linecap="round"/>
<path d="M74.7354 3.56555L75.2173 3.61171" stroke="#1AFF7C" stroke-width="1.5" stroke-miterlimit="10" stroke-linecap="round"/>
<path d="M75.2168 3.61169L75.6987 4.18972" stroke="#1AFF7C" stroke-width="1.5" stroke-miterlimit="10" stroke-linecap="round"/>
<path d="M75.6987 4.1897L76.1807 4.24182" stroke="#1AFF7C" stroke-width="1.5" stroke-miterlimit="10" stroke-linecap="round"/>
<path d="M76.1807 4.24185L76.6626 3.69647" stroke="#1AFF7C" stroke-width="1.5" stroke-miterlimit="10" stroke-linecap="round"/>
<path d="M76.6626 3.6965L77.1445 3.60971" stroke="#1AFF7C" stroke-width="1.5" stroke-miterlimit="10" stroke-linecap="round"/>
<path d="M77.1445 3.60966L77.6265 3.37915" stroke="#1AFF7C" stroke-width="1.5" stroke-miterlimit="10" stroke-linecap="round"/>
<path d="M77.6265 3.37919L78.1084 3.35876" stroke="#1AFF7C" stroke-width="1.5" stroke-miterlimit="10" stroke-linecap="round"/>
<path d="M78.1084 3.35876L78.5903 4.90866" stroke="#1AFF7C" stroke-width="1.5" stroke-miterlimit="10" stroke-linecap="round"/>
<path d="M78.5903 4.90867L79.0723 4.26752" stroke="#1AFF7C" stroke-width="1.5" stroke-miterlimit="10" stroke-linecap="round"/>
<path d="M79.0723 4.26746L79.5542 2.96542" stroke="#1AFF7C" stroke-width="1.5" stroke-miterlimit="10" stroke-linecap="round"/>
<path d="M79.5542 2.96547L80.0361 1.21167" stroke="#1AFF7C" stroke-width="1.5" stroke-miterlimit="10" stroke-linecap="round"/>
<path d="M80.0361 1.21167L80.5181 1.32493" stroke="#1AFF7C" stroke-width="1.5" stroke-miterlimit="10" stroke-linecap="round"/>
<path d="M80.5181 1.32495L81 1.60136" stroke="#1AFF7C" stroke-width="1.5" stroke-miterlimit="10" stroke-linecap="round"/>
</svg>
