<svg width="102" height="31" viewBox="0 0 102 31" fill="none" xmlns="http://www.w3.org/2000/svg">
<path d="M1 28.3918L1.60241 28.631" stroke="#1AFF7C" stroke-width="1.5" stroke-miterlimit="10" stroke-linecap="round"/>
<path d="M1.60254 28.6309L2.20495 28.5879" stroke="#1AFF7C" stroke-width="1.5" stroke-miterlimit="10" stroke-linecap="round"/>
<path d="M2.20508 28.5879L2.80749 27.8521" stroke="#1AFF7C" stroke-width="1.5" stroke-miterlimit="10" stroke-linecap="round"/>
<path d="M2.80713 27.8521L3.40954 27.8802" stroke="#1AFF7C" stroke-width="1.5" stroke-miterlimit="10" stroke-linecap="round"/>
<path d="M3.40967 27.8802L4.01208 27.7241" stroke="#1AFF7C" stroke-width="1.5" stroke-miterlimit="10" stroke-linecap="round"/>
<path d="M4.01221 27.7241L4.61462 28.1445" stroke="#1AFF7C" stroke-width="1.5" stroke-miterlimit="10" stroke-linecap="round"/>
<path d="M4.61426 28.1445L5.21667 28.3843" stroke="#1AFF7C" stroke-width="1.5" stroke-miterlimit="10" stroke-linecap="round"/>
<path d="M5.2168 28.3843L5.81921 27.7993" stroke="#1AFF7C" stroke-width="1.5" stroke-miterlimit="10" stroke-linecap="round"/>
<path d="M5.81934 27.7993L6.42175 24.8513" stroke="#1AFF7C" stroke-width="1.5" stroke-miterlimit="10" stroke-linecap="round"/>
<path d="M6.42188 24.8513L7.02428 24.8867" stroke="#1AFF7C" stroke-width="1.5" stroke-miterlimit="10" stroke-linecap="round"/>
<path d="M7.02393 24.8868L7.62634 25.028" stroke="#1AFF7C" stroke-width="1.5" stroke-miterlimit="10" stroke-linecap="round"/>
<path d="M7.62646 25.028L8.22887 26.0603" stroke="#1AFF7C" stroke-width="1.5" stroke-miterlimit="10" stroke-linecap="round"/>
<path d="M8.229 26.0603L8.83141 28.6432" stroke="#1AFF7C" stroke-width="1.5" stroke-miterlimit="10" stroke-linecap="round"/>
<path d="M8.83105 28.6432L9.43346 27.9279" stroke="#1AFF7C" stroke-width="1.5" stroke-miterlimit="10" stroke-linecap="round"/>
<path d="M9.43359 27.9279L10.036 27.2032" stroke="#1AFF7C" stroke-width="1.5" stroke-miterlimit="10" stroke-linecap="round"/>
<path d="M10.0361 27.2032L10.6385 28.0591" stroke="#1AFF7C" stroke-width="1.5" stroke-miterlimit="10" stroke-linecap="round"/>
<path d="M10.6387 28.0591L11.2411 28.5494" stroke="#1AFF7C" stroke-width="1.5" stroke-miterlimit="10" stroke-linecap="round"/>
<path d="M11.2412 28.5494L11.8436 29.0784" stroke="#1AFF7C" stroke-width="1.5" stroke-miterlimit="10" stroke-linecap="round"/>
<path d="M11.8433 29.0784L12.4457 29.5523" stroke="#1AFF7C" stroke-width="1.5" stroke-miterlimit="10" stroke-linecap="round"/>
<path d="M12.4458 29.5523L13.0482 28.7231" stroke="#1AFF7C" stroke-width="1.5" stroke-miterlimit="10" stroke-linecap="round"/>
<path d="M13.0483 28.7232L13.6507 28.5484" stroke="#1AFF7C" stroke-width="1.5" stroke-miterlimit="10" stroke-linecap="round"/>
<path d="M13.6504 28.5484L14.2528 28.7489" stroke="#1AFF7C" stroke-width="1.5" stroke-miterlimit="10" stroke-linecap="round"/>
<path d="M14.2529 28.7489L14.8553 28.6384" stroke="#1AFF7C" stroke-width="1.5" stroke-miterlimit="10" stroke-linecap="round"/>
<path d="M14.8555 28.6384L15.4579 29.2577" stroke="#1AFF7C" stroke-width="1.5" stroke-miterlimit="10" stroke-linecap="round"/>
<path d="M15.458 29.2577L16.0604 28.8449" stroke="#1AFF7C" stroke-width="1.5" stroke-miterlimit="10" stroke-linecap="round"/>
<path d="M16.0605 28.8449L16.663 29.0638" stroke="#1AFF7C" stroke-width="1.5" stroke-miterlimit="10" stroke-linecap="round"/>
<path d="M16.6626 29.0638L17.265 29.2703" stroke="#1AFF7C" stroke-width="1.5" stroke-miterlimit="10" stroke-linecap="round"/>
<path d="M17.2651 29.2703L17.8675 28.7877" stroke="#1AFF7C" stroke-width="1.5" stroke-miterlimit="10" stroke-linecap="round"/>
<path d="M17.8672 28.7876L18.4696 28.0533" stroke="#1AFF7C" stroke-width="1.5" stroke-miterlimit="10" stroke-linecap="round"/>
<path d="M18.4697 28.0533L19.0721 30.1341" stroke="#1AFF7C" stroke-width="1.5" stroke-miterlimit="10" stroke-linecap="round"/>
<path d="M19.0723 30.1342L19.6747 29.3741" stroke="#1AFF7C" stroke-width="1.5" stroke-miterlimit="10" stroke-linecap="round"/>
<path d="M19.6748 29.3742L20.2772 25.6855" stroke="#1AFF7C" stroke-width="1.5" stroke-miterlimit="10" stroke-linecap="round"/>
<path d="M20.2773 25.6854L20.8798 23.2993" stroke="#1AFF7C" stroke-width="1.5" stroke-miterlimit="10" stroke-linecap="round"/>
<path d="M20.8794 23.2993L21.4818 23.2609" stroke="#1AFF7C" stroke-width="1.5" stroke-miterlimit="10" stroke-linecap="round"/>
<path d="M21.4819 23.2609L22.0843 23.325" stroke="#1AFF7C" stroke-width="1.5" stroke-miterlimit="10" stroke-linecap="round"/>
<path d="M22.0845 23.325L22.6869 24.4397" stroke="#1AFF7C" stroke-width="1.5" stroke-miterlimit="10" stroke-linecap="round"/>
<path d="M22.6865 24.4396L23.2889 24.8694" stroke="#1AFF7C" stroke-width="1.5" stroke-miterlimit="10" stroke-linecap="round"/>
<path d="M23.2891 24.8694L23.8915 24.7804" stroke="#1AFF7C" stroke-width="1.5" stroke-miterlimit="10" stroke-linecap="round"/>
<path d="M23.8916 24.7804L24.494 24.0353" stroke="#1AFF7C" stroke-width="1.5" stroke-miterlimit="10" stroke-linecap="round"/>
<path d="M24.4941 24.0353L25.0966 22.5546" stroke="#1AFF7C" stroke-width="1.5" stroke-miterlimit="10" stroke-linecap="round"/>
<path d="M25.0967 22.5546L25.6991 23.493" stroke="#1AFF7C" stroke-width="1.5" stroke-miterlimit="10" stroke-linecap="round"/>
<path d="M25.6987 23.493L26.3011 23.34" stroke="#1AFF7C" stroke-width="1.5" stroke-miterlimit="10" stroke-linecap="round"/>
<path d="M26.3013 23.34L26.9037 23.5533" stroke="#1AFF7C" stroke-width="1.5" stroke-miterlimit="10" stroke-linecap="round"/>
<path d="M26.9033 23.5532L27.5057 23.9318" stroke="#1AFF7C" stroke-width="1.5" stroke-miterlimit="10" stroke-linecap="round"/>
<path d="M27.5059 23.9318L28.1083 23.2498" stroke="#1AFF7C" stroke-width="1.5" stroke-miterlimit="10" stroke-linecap="round"/>
<path d="M28.1084 23.2498L28.7108 23.3009" stroke="#1AFF7C" stroke-width="1.5" stroke-miterlimit="10" stroke-linecap="round"/>
<path d="M28.7109 23.3008L29.3133 22.6187" stroke="#1AFF7C" stroke-width="1.5" stroke-miterlimit="10" stroke-linecap="round"/>
<path d="M29.3135 22.6187L29.9159 21.3519" stroke="#1AFF7C" stroke-width="1.5" stroke-miterlimit="10" stroke-linecap="round"/>
<path d="M29.9155 21.3519L30.5179 20.0039" stroke="#1AFF7C" stroke-width="1.5" stroke-miterlimit="10" stroke-linecap="round"/>
<path d="M30.5181 20.0039L31.1205 20.9865" stroke="#1AFF7C" stroke-width="1.5" stroke-miterlimit="10" stroke-linecap="round"/>
<path d="M31.1206 20.9866L31.723 21.2243" stroke="#1AFF7C" stroke-width="1.5" stroke-miterlimit="10" stroke-linecap="round"/>
<path d="M31.7227 21.2242L32.3251 20.9871" stroke="#1AFF7C" stroke-width="1.5" stroke-miterlimit="10" stroke-linecap="round"/>
<path d="M32.3252 20.9872L32.9276 20.2194" stroke="#1AFF7C" stroke-width="1.5" stroke-miterlimit="10" stroke-linecap="round"/>
<path d="M32.9277 20.2194L33.5301 21.343" stroke="#1AFF7C" stroke-width="1.5" stroke-miterlimit="10" stroke-linecap="round"/>
<path d="M33.5303 21.3429L34.1327 21.7931" stroke="#1AFF7C" stroke-width="1.5" stroke-miterlimit="10" stroke-linecap="round"/>
<path d="M34.1328 21.793L34.7352 20.6497" stroke="#1AFF7C" stroke-width="1.5" stroke-miterlimit="10" stroke-linecap="round"/>
<path d="M34.7349 20.6497L35.3373 20.2889" stroke="#1AFF7C" stroke-width="1.5" stroke-miterlimit="10" stroke-linecap="round"/>
<path d="M35.3374 20.2889L35.9398 18.7388" stroke="#1AFF7C" stroke-width="1.5" stroke-miterlimit="10" stroke-linecap="round"/>
<path d="M35.9395 18.7389L36.5419 16.5068" stroke="#1AFF7C" stroke-width="1.5" stroke-miterlimit="10" stroke-linecap="round"/>
<path d="M36.542 16.5068L37.1444 16.1871" stroke="#1AFF7C" stroke-width="1.5" stroke-miterlimit="10" stroke-linecap="round"/>
<path d="M37.1445 16.1871L37.7469 14.8933" stroke="#1AFF7C" stroke-width="1.5" stroke-miterlimit="10" stroke-linecap="round"/>
<path d="M37.7471 14.8933L38.3495 16.3163" stroke="#1AFF7C" stroke-width="1.5" stroke-miterlimit="10" stroke-linecap="round"/>
<path d="M38.3496 16.3163L38.952 15.7004" stroke="#1AFF7C" stroke-width="1.5" stroke-miterlimit="10" stroke-linecap="round"/>
<path d="M38.9517 15.7004L39.5541 16.4066" stroke="#1AFF7C" stroke-width="1.5" stroke-miterlimit="10" stroke-linecap="round"/>
<path d="M39.5542 16.4067L40.1566 16.5633" stroke="#1AFF7C" stroke-width="1.5" stroke-miterlimit="10" stroke-linecap="round"/>
<path d="M40.1567 16.5632L40.7591 15.4773" stroke="#1AFF7C" stroke-width="1.5" stroke-miterlimit="10" stroke-linecap="round"/>
<path d="M40.7588 15.4773L41.3612 15.5331" stroke="#1AFF7C" stroke-width="1.5" stroke-miterlimit="10" stroke-linecap="round"/>
<path d="M41.3613 15.5331L41.9637 16.3113" stroke="#1AFF7C" stroke-width="1.5" stroke-miterlimit="10" stroke-linecap="round"/>
<path d="M41.9639 16.3113L42.5663 15.7205" stroke="#1AFF7C" stroke-width="1.5" stroke-miterlimit="10" stroke-linecap="round"/>
<path d="M42.5664 15.7205L43.1688 15.5126" stroke="#1AFF7C" stroke-width="1.5" stroke-miterlimit="10" stroke-linecap="round"/>
<path d="M43.1689 15.5126L43.7714 15.8428" stroke="#1AFF7C" stroke-width="1.5" stroke-miterlimit="10" stroke-linecap="round"/>
<path d="M43.771 15.8428L44.3734 18.5022" stroke="#1AFF7C" stroke-width="1.5" stroke-miterlimit="10" stroke-linecap="round"/>
<path d="M44.3735 18.5022L44.9759 18.4692" stroke="#1AFF7C" stroke-width="1.5" stroke-miterlimit="10" stroke-linecap="round"/>
<path d="M44.9761 18.4691L45.5785 16.647" stroke="#1AFF7C" stroke-width="1.5" stroke-miterlimit="10" stroke-linecap="round"/>
<path d="M45.5781 16.6471L46.1805 16.0687" stroke="#1AFF7C" stroke-width="1.5" stroke-miterlimit="10" stroke-linecap="round"/>
<path d="M46.1807 16.0688L46.7831 11.0999" stroke="#1AFF7C" stroke-width="1.5" stroke-miterlimit="10" stroke-linecap="round"/>
<path d="M46.7832 11.0998L47.3856 7.07526" stroke="#1AFF7C" stroke-width="1.5" stroke-miterlimit="10" stroke-linecap="round"/>
<path d="M47.3857 7.07529L47.9881 5.28345" stroke="#1AFF7C" stroke-width="1.5" stroke-miterlimit="10" stroke-linecap="round"/>
<path d="M47.9878 5.28347L48.5902 3.46497" stroke="#1AFF7C" stroke-width="1.5" stroke-miterlimit="10" stroke-linecap="round"/>
<path d="M48.5903 3.46497L49.1927 4.22415" stroke="#1AFF7C" stroke-width="1.5" stroke-miterlimit="10" stroke-linecap="round"/>
<path d="M49.1929 4.22406L49.7953 5.12663" stroke="#1AFF7C" stroke-width="1.5" stroke-miterlimit="10" stroke-linecap="round"/>
<path d="M49.7949 5.1267L50.3973 5.05084" stroke="#1AFF7C" stroke-width="1.5" stroke-miterlimit="10" stroke-linecap="round"/>
<path d="M50.3975 5.05083L50.9999 3.44122" stroke="#1AFF7C" stroke-width="1.5" stroke-miterlimit="10" stroke-linecap="round"/>
<path d="M51 3.44122L51.6024 3.83159" stroke="#1AFF7C" stroke-width="1.5" stroke-miterlimit="10" stroke-linecap="round"/>
<path d="M51.6025 3.83158L52.205 3.23889" stroke="#1AFF7C" stroke-width="1.5" stroke-miterlimit="10" stroke-linecap="round"/>
<path d="M52.2051 3.23886L52.8075 3.02496" stroke="#1AFF7C" stroke-width="1.5" stroke-miterlimit="10" stroke-linecap="round"/>
<path d="M52.8071 3.02503L53.4095 2.35242" stroke="#1AFF7C" stroke-width="1.5" stroke-miterlimit="10" stroke-linecap="round"/>
<path d="M53.4097 2.35242L54.0121 4.11168" stroke="#1AFF7C" stroke-width="1.5" stroke-miterlimit="10" stroke-linecap="round"/>
<path d="M54.0122 4.11163L54.6146 4.22814" stroke="#1AFF7C" stroke-width="1.5" stroke-miterlimit="10" stroke-linecap="round"/>
<path d="M54.6143 4.22818L55.2167 3.383" stroke="#1AFF7C" stroke-width="1.5" stroke-miterlimit="10" stroke-linecap="round"/>
<path d="M55.2168 3.383L55.8192 4.04352" stroke="#1AFF7C" stroke-width="1.5" stroke-miterlimit="10" stroke-linecap="round"/>
<path d="M55.8193 4.04351L56.4217 3.20935" stroke="#1AFF7C" stroke-width="1.5" stroke-miterlimit="10" stroke-linecap="round"/>
<path d="M56.4219 3.20935L57.0243 4.59398" stroke="#1AFF7C" stroke-width="1.5" stroke-miterlimit="10" stroke-linecap="round"/>
<path d="M57.0239 4.59399L57.6263 5.0536" stroke="#1AFF7C" stroke-width="1.5" stroke-miterlimit="10" stroke-linecap="round"/>
<path d="M57.6265 5.05352L58.2289 4.37146" stroke="#1AFF7C" stroke-width="1.5" stroke-miterlimit="10" stroke-linecap="round"/>
<path d="M58.229 4.37146L58.8314 5.08731" stroke="#1AFF7C" stroke-width="1.5" stroke-miterlimit="10" stroke-linecap="round"/>
<path d="M58.8311 5.08734L59.4335 6.14106" stroke="#1AFF7C" stroke-width="1.5" stroke-miterlimit="10" stroke-linecap="round"/>
<path d="M59.4336 6.14105L60.036 7.33123" stroke="#1AFF7C" stroke-width="1.5" stroke-miterlimit="10" stroke-linecap="round"/>
<path d="M60.0361 7.33125L60.6385 5.83112" stroke="#1AFF7C" stroke-width="1.5" stroke-miterlimit="10" stroke-linecap="round"/>
<path d="M60.6387 5.83112L61.2411 7.21502" stroke="#1AFF7C" stroke-width="1.5" stroke-miterlimit="10" stroke-linecap="round"/>
<path d="M61.2412 7.21504L61.8436 5.08093" stroke="#1AFF7C" stroke-width="1.5" stroke-miterlimit="10" stroke-linecap="round"/>
<path d="M61.8433 5.08093L62.4457 7.67798" stroke="#1AFF7C" stroke-width="1.5" stroke-miterlimit="10" stroke-linecap="round"/>
<path d="M62.4458 7.67794L63.0482 7.54376" stroke="#1AFF7C" stroke-width="1.5" stroke-miterlimit="10" stroke-linecap="round"/>
<path d="M63.0483 7.5438L63.6507 6.56628" stroke="#1AFF7C" stroke-width="1.5" stroke-miterlimit="10" stroke-linecap="round"/>
<path d="M63.6504 6.56629L64.2528 6.50739" stroke="#1AFF7C" stroke-width="1.5" stroke-miterlimit="10" stroke-linecap="round"/>
<path d="M64.2529 6.50739L64.8553 7.33166" stroke="#1AFF7C" stroke-width="1.5" stroke-miterlimit="10" stroke-linecap="round"/>
<path d="M64.8555 7.33166L65.4579 7.30707" stroke="#1AFF7C" stroke-width="1.5" stroke-miterlimit="10" stroke-linecap="round"/>
<path d="M65.458 7.30703L66.0604 6.41486" stroke="#1AFF7C" stroke-width="1.5" stroke-miterlimit="10" stroke-linecap="round"/>
<path d="M66.0605 6.41487L66.663 6.16772" stroke="#1AFF7C" stroke-width="1.5" stroke-miterlimit="10" stroke-linecap="round"/>
<path d="M66.6626 6.16772L67.265 7.36921" stroke="#1AFF7C" stroke-width="1.5" stroke-miterlimit="10" stroke-linecap="round"/>
<path d="M67.2651 7.3692L67.8675 7.74994" stroke="#1AFF7C" stroke-width="1.5" stroke-miterlimit="10" stroke-linecap="round"/>
<path d="M67.8672 7.74994L68.4696 6.60687" stroke="#1AFF7C" stroke-width="1.5" stroke-miterlimit="10" stroke-linecap="round"/>
<path d="M68.4697 6.60681L69.0721 6.00745" stroke="#1AFF7C" stroke-width="1.5" stroke-miterlimit="10" stroke-linecap="round"/>
<path d="M69.0723 6.00745L69.6747 7.54694" stroke="#1AFF7C" stroke-width="1.5" stroke-miterlimit="10" stroke-linecap="round"/>
<path d="M69.6748 7.547L70.2772 7.70275" stroke="#1AFF7C" stroke-width="1.5" stroke-miterlimit="10" stroke-linecap="round"/>
<path d="M70.2773 7.70273L70.8798 7.48969" stroke="#1AFF7C" stroke-width="1.5" stroke-miterlimit="10" stroke-linecap="round"/>
<path d="M70.8794 7.48965L71.4818 6.62274" stroke="#1AFF7C" stroke-width="1.5" stroke-miterlimit="10" stroke-linecap="round"/>
<path d="M71.4819 6.62278L72.0843 6.54285" stroke="#1AFF7C" stroke-width="1.5" stroke-miterlimit="10" stroke-linecap="round"/>
<path d="M72.0845 6.54285L72.6869 4.38489" stroke="#1AFF7C" stroke-width="1.5" stroke-miterlimit="10" stroke-linecap="round"/>
<path d="M72.6865 4.38489L73.2889 0.865845" stroke="#1AFF7C" stroke-width="1.5" stroke-miterlimit="10" stroke-linecap="round"/>
<path d="M73.2891 0.865845L73.8915 2.59142" stroke="#1AFF7C" stroke-width="1.5" stroke-miterlimit="10" stroke-linecap="round"/>
<path d="M73.8916 2.59136L74.494 1.77795" stroke="#1AFF7C" stroke-width="1.5" stroke-miterlimit="10" stroke-linecap="round"/>
<path d="M74.4941 1.77795L75.0966 2.67772" stroke="#1AFF7C" stroke-width="1.5" stroke-miterlimit="10" stroke-linecap="round"/>
<path d="M75.0967 2.6778L75.6991 4.24029" stroke="#1AFF7C" stroke-width="1.5" stroke-miterlimit="10" stroke-linecap="round"/>
<path d="M75.6987 4.24023L76.3011 6.29753" stroke="#1AFF7C" stroke-width="1.5" stroke-miterlimit="10" stroke-linecap="round"/>
<path d="M76.3013 6.29756L76.9037 4.86694" stroke="#1AFF7C" stroke-width="1.5" stroke-miterlimit="10" stroke-linecap="round"/>
<path d="M76.9033 4.86694L77.5057 6.09641" stroke="#1AFF7C" stroke-width="1.5" stroke-miterlimit="10" stroke-linecap="round"/>
<path d="M77.5059 6.0964L78.1083 6.04816" stroke="#1AFF7C" stroke-width="1.5" stroke-miterlimit="10" stroke-linecap="round"/>
<path d="M78.1084 6.04819L78.7108 6.00067" stroke="#1AFF7C" stroke-width="1.5" stroke-miterlimit="10" stroke-linecap="round"/>
<path d="M78.7109 6.00067L79.3134 5.27728" stroke="#1AFF7C" stroke-width="1.5" stroke-miterlimit="10" stroke-linecap="round"/>
<path d="M79.3135 5.27724L79.9159 4.92181" stroke="#1AFF7C" stroke-width="1.5" stroke-miterlimit="10" stroke-linecap="round"/>
<path d="M79.9155 4.92181L80.5179 7.18944" stroke="#1AFF7C" stroke-width="1.5" stroke-miterlimit="10" stroke-linecap="round"/>
<path d="M80.5181 7.18944L81.1205 6.24939" stroke="#1AFF7C" stroke-width="1.5" stroke-miterlimit="10" stroke-linecap="round"/>
<path d="M81.1206 6.24939L81.723 6.71103" stroke="#1AFF7C" stroke-width="1.5" stroke-miterlimit="10" stroke-linecap="round"/>
<path d="M81.7227 6.711L82.3251 7.18823" stroke="#1AFF7C" stroke-width="1.5" stroke-miterlimit="10" stroke-linecap="round"/>
<path d="M82.3252 7.18828L82.9276 6.30811" stroke="#1AFF7C" stroke-width="1.5" stroke-miterlimit="10" stroke-linecap="round"/>
<path d="M82.9277 6.30811L83.5301 7.12092" stroke="#1AFF7C" stroke-width="1.5" stroke-miterlimit="10" stroke-linecap="round"/>
<path d="M83.5303 7.12092L84.1327 6.48151" stroke="#1AFF7C" stroke-width="1.5" stroke-miterlimit="10" stroke-linecap="round"/>
<path d="M84.1328 6.48151L84.7352 5.06152" stroke="#1AFF7C" stroke-width="1.5" stroke-miterlimit="10" stroke-linecap="round"/>
<path d="M84.7349 5.0615L85.3373 4.74347" stroke="#1AFF7C" stroke-width="1.5" stroke-miterlimit="10" stroke-linecap="round"/>
<path d="M85.3374 4.74347L85.9398 4.9282" stroke="#1AFF7C" stroke-width="1.5" stroke-miterlimit="10" stroke-linecap="round"/>
<path d="M85.9395 4.92818L86.5419 4.04755" stroke="#1AFF7C" stroke-width="1.5" stroke-miterlimit="10" stroke-linecap="round"/>
<path d="M86.542 4.04761L87.1444 3.89075" stroke="#1AFF7C" stroke-width="1.5" stroke-miterlimit="10" stroke-linecap="round"/>
<path d="M87.1445 3.89075L87.7469 4.53244" stroke="#1AFF7C" stroke-width="1.5" stroke-miterlimit="10" stroke-linecap="round"/>
<path d="M87.7471 4.5324L88.3495 3.9671" stroke="#1AFF7C" stroke-width="1.5" stroke-miterlimit="10" stroke-linecap="round"/>
<path d="M88.3496 3.9671L88.952 4.10362" stroke="#1AFF7C" stroke-width="1.5" stroke-miterlimit="10" stroke-linecap="round"/>
<path d="M88.9517 4.10358L89.5541 4.26762" stroke="#1AFF7C" stroke-width="1.5" stroke-miterlimit="10" stroke-linecap="round"/>
<path d="M89.5542 4.26767L90.1566 3.65411" stroke="#1AFF7C" stroke-width="1.5" stroke-miterlimit="10" stroke-linecap="round"/>
<path d="M90.1567 3.65416L90.7592 2.77661" stroke="#1AFF7C" stroke-width="1.5" stroke-miterlimit="10" stroke-linecap="round"/>
<path d="M90.7588 2.77661L91.3612 3.08683" stroke="#1AFF7C" stroke-width="1.5" stroke-miterlimit="10" stroke-linecap="round"/>
<path d="M91.3613 3.08679L91.9637 3.70701" stroke="#1AFF7C" stroke-width="1.5" stroke-miterlimit="10" stroke-linecap="round"/>
<path d="M91.9639 3.70703L92.5663 4.26274" stroke="#1AFF7C" stroke-width="1.5" stroke-miterlimit="10" stroke-linecap="round"/>
<path d="M92.5664 4.26274L93.1688 3.94989" stroke="#1AFF7C" stroke-width="1.5" stroke-miterlimit="10" stroke-linecap="round"/>
<path d="M93.1689 3.94989L93.7713 4.00759" stroke="#1AFF7C" stroke-width="1.5" stroke-miterlimit="10" stroke-linecap="round"/>
<path d="M93.771 4.00757L94.3734 4.7301" stroke="#1AFF7C" stroke-width="1.5" stroke-miterlimit="10" stroke-linecap="round"/>
<path d="M94.3735 4.73004L94.9759 4.79519" stroke="#1AFF7C" stroke-width="1.5" stroke-miterlimit="10" stroke-linecap="round"/>
<path d="M94.9756 4.79524L95.578 4.11353" stroke="#1AFF7C" stroke-width="1.5" stroke-miterlimit="10" stroke-linecap="round"/>
<path d="M95.5781 4.11355L96.1805 4.00507" stroke="#1AFF7C" stroke-width="1.5" stroke-miterlimit="10" stroke-linecap="round"/>
<path d="M96.1807 4.005L96.7831 3.71686" stroke="#1AFF7C" stroke-width="1.5" stroke-miterlimit="10" stroke-linecap="round"/>
<path d="M96.7832 3.71694L97.3856 3.69141" stroke="#1AFF7C" stroke-width="1.5" stroke-miterlimit="10" stroke-linecap="round"/>
<path d="M97.3857 3.69141L97.9881 5.62878" stroke="#1AFF7C" stroke-width="1.5" stroke-miterlimit="10" stroke-linecap="round"/>
<path d="M97.9878 5.62877L98.5902 4.82733" stroke="#1AFF7C" stroke-width="1.5" stroke-miterlimit="10" stroke-linecap="round"/>
<path d="M98.5903 4.82725L99.1927 3.19971" stroke="#1AFF7C" stroke-width="1.5" stroke-miterlimit="10" stroke-linecap="round"/>
<path d="M99.1929 3.19976L99.7953 1.00751" stroke="#1AFF7C" stroke-width="1.5" stroke-miterlimit="10" stroke-linecap="round"/>
<path d="M99.7949 1.00751L100.397 1.14908" stroke="#1AFF7C" stroke-width="1.5" stroke-miterlimit="10" stroke-linecap="round"/>
<path d="M100.397 1.14911L101 1.49462" stroke="#1AFF7C" stroke-width="1.5" stroke-miterlimit="10" stroke-linecap="round"/>
</svg>
